<mxfile host="app.diagrams.net" agent="Mozilla/5.0 (Macintosh; Intel Mac OS X 10_15_7) AppleWebKit/537.36 (KHTML, like Gecko) Chrome/133.0.0.0 Safari/537.36" version="26.0.11">
  <diagram name="Page-1" id="C3Lu3QT35Tfa03Sdc-pU">
    <mxGraphModel dx="1375" dy="683" grid="1" gridSize="10" guides="1" tooltips="1" connect="1" arrows="1" fold="1" page="1" pageScale="1" pageWidth="850" pageHeight="1100" math="0" shadow="0">
      <root>
        <mxCell id="0" />
        <mxCell id="1" parent="0" />
        <mxCell id="BSDBFG1URIrfFOQFSTYh-1" value="" style="shape=image;verticalLabelPosition=bottom;labelBackgroundColor=default;verticalAlign=top;aspect=fixed;imageAspect=0;image=data:image/png,iVBORw0KGgoAAAANSUhEUgAAA6YAAAKVCAYAAADcG/ZcAAABX2lDQ1BJQ0MgUHJvZmlsZQAAKJFtkE9LAlEUxY+mCTFYUEhEi1lUKwsbDdqqRRQuBk36sxtHHQMdHzMj1a5F7YXatAvb9AmqRYu+QULQIiLati1yUzLd51Sj1Xtczo/DvZfLAbyCwljZB6CiW0Z6KSGub2yKgWd40Q8BkwgqqsnispyiFnxr72vdwcP1dprvWhnzD7+EMsHmZc2q7xSzf/t73kC+YKqkH1SSygwL8ESI5W2Lcd4jHjHoKOIjzprDZ5xzDl91elbTSeIm8ZBaUvLET8ThXJevdXGlXFO/buDXCwU9myENUY1jAYtI0RchI4oYJMxijTL6fybWmUmiCoZdGNiChhIsmo6Tw1BGgXgZOlTMIEwsIUI1x7P+naHrVRvA/BvQV3e93DFwcQCM3rvexAkwuA+c3zDFUH6S9bR8ZjEqOSwkAP+jbb9OAYFDoF237feGbbdPaf8DcK1/AiyxYoDmX1y1AAAAVmVYSWZNTQAqAAAACAABh2kABAAAAAEAAAAaAAAAAAADkoYABwAAABIAAABEoAIABAAAAAEAAAOmoAMABAAAAAEAAAKVAAAAAEFTQ0lJAAAAU2NyZWVuc2hvdBTxAAIAAAHWaVRYdFhNTDpjb20uYWRvYmUueG1wAAAAAAA8eDp4bXBtZXRhIHhtbG5zOng9ImFkb2JlOm5zOm1ldGEvIiB4OnhtcHRrPSJYTVAgQ29yZSA2LjAuMCI+CiAgIDxyZGY6UkRGIHhtbG5zOnJkZj0iaHR0cDovL3d3dy53My5vcmcvMTk5OS8wMi8yMi1yZGYtc3ludGF4LW5zIyI+CiAgICAgIDxyZGY6RGVzY3JpcHRpb24gcmRmOmFib3V0PSIiCiAgICAgICAgICAgIHhtbG5zOmV4aWY9Imh0dHA6Ly9ucy5hZG9iZS5jb20vZXhpZi8xLjAvIj4KICAgICAgICAgPGV4aWY6UGl4ZWxZRGltZW5zaW9uPjY2MTwvZXhpZjpQaXhlbFlEaW1lbnNpb24+CiAgICAgICAgIDxleGlmOlBpeGVsWERpbWVuc2lvbj45MzQ8L2V4aWY6UGl4ZWxYRGltZW5zaW9uPgogICAgICAgICA8ZXhpZjpVc2VyQ29tbWVudD5TY3JlZW5zaG90PC9leGlmOlVzZXJDb21tZW50PgogICAgICA8L3JkZjpEZXNjcmlwdGlvbj4KICAgPC9yZGY6UkRGPgo8L3g6eG1wbWV0YT4Km3mvLwAAQABJREFUeAHsnQm8TOX/x79CKMqWqKyJlEqUlD1Z2hRSkjbJkqWIUuGHdiW0SKkoKi1aVNJClGghQip7yr4rSyR/7+/vf+Y3rnuvu8y9d+bO53m9xsyc85xneZ9x7vmc7/Lk2H+gmIoIiIAIiIAIiIAIiIAIiIAIiIAIZBGBI7KoX3UrAiIgAiIgAiIgAiIgAiIgAiIgAk5AwlQ/BBEQAREQAREQAREQAREQAREQgSwlIGGapfjVuQiIgAiIgAiIgAiIgAiIgAiIgISpfgMiIAIiIAIiIAIiIAIiIAIiIAJZSkDCNEvxq3MREAEREAEREAEREAEREAEREAEJU/0GREAEREAEREAEREAEREAEREAEspSAhGmW4lfnIiACIiACIiACIiACIiACIiACEqb6DYiACIiACIiACIiACIiACIiACGQpAQnTLMWvzkVABERABERABERABERABERABCRM9RsQAREQAREQAREQAREQAREQARHIUgISplmKX52LgAiIgAiIgAiIgAiIgAiIgAhImOo3IAIiIAIiIAIiIAIiIAIiIAIikKUEJEyzFL86FwEREAEREAEREAEREAEREAERkDDVb0AEREAEREAEREAEREAEREAERCBLCUiYZil+dS4CIiACIiACIiACIiACIiACIiBhqt+ACIiACIiACIiACIiACIiACIhAlhKQMM1S/OpcBERABERABERABERABERABERAwlS/AREQAREQAREQAREQAREQAREQgSwlIGGapfjVuQiIgAiIgAiIgAiIgAiIgAiIgISpfgMiIAIiIAIiIAIiIAIiIAIiIAJZSkDCNEvxq3MREAEREAEREAEREAEREAEREAEJU/0GREAEREAEREAEREAEREAEREAEspSAhGmW4lfnIiACIiACIiACIiACIiACIiACEqb6DYiACIiACIiACIiACIiACIiACGQpAQnTLMWvzkVABERABERABERABERABERABCRM9RsQAREQAREQAREQAREQAREQARHIUgISplmKX52LgAiIgAiIgAiIgAiIgAiIgAjkEgIREAEREAERSAmBDRs22Jo1a1JSVXVEIFkC+fLls9KlS9uRRx6ZbD3tFAEREAERiB8CEqbxc641UxEQARFIF4H333/fhgwZkq42dLAIQKBSpUo2ePBgF6ciIgIiIAIiIAIQkDDV70AEREAERCBFBLCYrlixwi6++GIrWbJkio5RJRFISGDq1Km2bNky27NnT8Jd+i4CIiACIhDHBCRM4/jka+oiIAIikFoC+fPnt/bt21ujRo1Se6jqi4AT6NSpk3377beiIQIiIAIiIAIHEVDyo4Nw6IsIiIAIiIAIiIAIiIAIiIAIiEBmE5AwzWzi6k8EREAEREAEREAEREAEREAEROAgAhKmB+HQFxEQAREQAREQAREQAREQAREQgcwmIGGa2cTVnwiIgAiIgAiIgAiIgAiIgAiIwEEEJEwPwqEvIiACIiACIiACIiACIiACIiACmU1AwjSzias/ERABERABERABERABERABERCBgwhImB6EQ19EQAREQAREQAREQAREQAREQAQym4CEaWYTV38iIAIiIAIiIAIiIAIiIAIiIAIHEZAwPQiHvoiACIiACIiACIiACIiACIiACGQ2gVyZ3aH6EwEREAERiG8C//77r+3bty++IcTg7HPmzGlHHKHn2TF46jRkERABEYgJAvoLExOnSYMUAREQAREQAREQAREQAREQgexLQMI0+55bzUwEREAEREAEREAEREAEREAEYoKAhGlMnCYNUgREQAREQAREQAREQAREQASyLwEJ0+x7bjUzERABEYhaAsSZ7ty5M9lY0z/++MMefPBBmz9/fobNY8eOHTZp0iSjr0iVvXv3+tyY3549eyLVbLLt7N+/39555x37+eefk6z3+++/2/33328LFixIso52iIAIiIAIiEBWEZAwzSry6lcEREAE4pjA999/bxUrVrQPPvggSQoIqREjRtiiRYuSrJPeHYsXL7ZevXrZs88+m96mQsfffvvtVqZMGX+ddNJJVrVqVW9/165doTqR/gCrm266yftB9CdWVq5cacOHDzfmrCICIiACIiAC0UZAWXmj7YxoPCIgAiIQBwT++ecf27Ztm2FdTK4gsrAGRqqMGjXKPvnkExs6dKgVL17cTjnlFHv44YetSpUqoS6uv/56/zxmzJjQttR8+PPPP41xI1ARo3PmzLH+/fv75zvuuCNDMtuWLFnSRo4caZUrV06yfTgmJVpTMz/VFQEREAEREIGMICBhmhFU1aYIiIAIiECaCOD++ttvv9lxxx2XpCClDq63xxxzjB1//PGWI0cO7+vvv/82BO9RRx3lonfjxo124oknWr58+bwt3HbnzZtn69ats61bt1r+/Pm9br169Sxv3rwu2qgze/ZsO/nkk70NlkhBzNFmrlz/+5NJX7t377Zjjz020XkWKFDA7r77bjvyyCPdrbdLly42btw469q1q4+FORx99NFGO1u2bPF5BH0x7g0bNtgJJ5xgBQsW9PkxL46h3WC+dMwYWHqH8TVp0sTnGj4g5gNPOCUl8KmzatUqn0uxYsVC7YfzZEzMpWjRouHN67MIiIAIiIAIRIyAXHkjhlINiYAIiIAIpIfA559/bvXr17dGjRpZ7dq13QKIIAsvM2bMMITkRRddZDVr1rR77rnHtm/f7lVefvlla9++vfXp08eqVatmDRo0cLGG6Nq0aZO1adPGXnnlFZs1a5ZdfPHF1rp1a1uxYoVde+21NnHiRFu+fLldccUVLuS+/PJLb2PAgAF23nnn2dixY0PDQAj27t3bGjZsmCILJMIYd961a9e6OCRmlmM/+ugjn+ett97qQnTz5s3G5xo1avi4zz//fHviiSe8X1yf69ata998801oHHxA6OKKjNBmnC+88ILvR4QSOwvPxo0bez+jR4924R7eAPMMeF5wwQXWt29fw+JLefHFF+22226znj17ettYZBOej/C29FkEREAEREAE0kNAwjQ99HSsCIiACIhARAisWbPGbr75ZrfsPf/88y62EGFYE4Py448/utjECjps2DAXXLjmvvfeey74EKhvvfWWTZkyxR599FFr1aqVJ06688473dLYrl07Q3yVLl3aunXrZrfccou7EiMYsRpiDUSIFS5c2F187733Xhez9P/pp596HT4vW7bMZs6c6SL2iCOS/jOKOMTqiDBGUJ922mnuZktCJLZ1797dRWHLli19+4033mhff/21MV5ENuKVZEUIQuaMhfi5555jCF7Wr1/vVtgKFSr4PuJMA5GORRmRi9UVsUpf06dPD4lOGsDFGNEKjyeffNL7oy6CmUJbEyZMsC+++MIFMGI/3FrrlfSPCIiACIiACESIwP/8kiLUoJoRAREQAREQgdQSeOSRRww3UgRlpUqV3BKJ++jAgQO9KUQedXCdxSJKbCgWRETi5MmT3fpJRVxaSWREzOjll1/uAhILKZa+yy67zAUi7q/XXHONi7Zff/01NFTavuqqqzwelORFbdu29X3EhT799NNuUSWGE4snFtgbbrghdGzCD3/99ZeLZ9yGf/jhB7fCMjfcdYNSp04de/zxx/3rZ5995qIUCyntInjPOeccdzvu16+fXXfddW5Jfemll3wbrrlYQHF5xjKcUDDSV4kSJWzQoEGGcMUdGSH70EMPeX/wfOCBB6xIkSKGAC9fvryLdngiwq+++mqvh7BGrGLxZezJCfFgXnoXAREQAREQgbQQSPpRb1pa0zEiIAIiIAIikAYCWOVI4INAoiCAqlev7pZOviP0lixZ4lY8LJ/16tVzQYbVD0thkNTn9NNPdwsgx+TJk8fOPvtsj8HEIprW0rRpU7d8IkjpB+FWq1Ytt+4m1SbxoFhv586d68IQF2KEcriAbNGiRejwb7/91ueK+24g/rCQMn5EMAL30ksvdYGNFZP5ELOK2y9CPmGZNm2aZwUuV66c76JN6iLcKbjrwhOLNJZjeGI9Zbxk70W4UhC1QRu+Qf+IgAiIgAiIQAYRkMU0g8CqWREQAREQgZQTwG0UqyZZenPnzu0HEssZCCTeeWEp7dix40ECD+thYIkkoVEg7GiEBEOUoB3/ksp/cO0lpvXDDz90911iYbFIkgwoqYL1F7fc5OqEC8pgvdNw4UrbwXfmhxhGuLNeKa69uCBjYSUpUyDMg/HAE5a8gqRN8AxKwJMlezp06BDqh/1kKw4Y4gocHB8cq3cREAEREAERyAgCEqYZQVVtioAIiIAIpIoAbqu41bJmKW64iFRcYANLJ9loEWM///yzWw5ZH5SCWy4iKxCmh+sUKyruqcktU4MwxpJIuwhDxCXClERLrKtKLGr48jKH6zMl+7EO4y5M7CoZgZkPy+nAAEsyAhGxSLIj4k5xV0ak4g6cWIEnFlFeZ5xxhs8Xl+ZgLVWssfDEOooll/Yp7GfOgSBOrG1tEwEREAEREIGMICBX3oygqjZFQAREQARSRYClVUiARAzkm2++aUOGDPEMuoGARCix5ApJfRBnZMl9/fXXPVnRV199leK+yOSLWCO5EK6wiRWS/CCAn3rqKXdtpW+2YTnFUhokUErs2LRuI3vuueee6zGhJHbCXZfYT+JnSUwUWC0D919cdTt16hSybCbsl0y6JFiC59tvv+2W1VdffdUFP3WZE+uskpWYRFDse+2117xNxLGKCIiACIiACGQ2AQnTzCau/kRABERABNwKiZttILgQZbilIorIJvvGG2/Y9ddfb1hGA9destQisliLtHPnzi6iWKMzsJ5iDWVplnBrH8cSVxm4puIOSxwnYo9st1gmw8fBqUH40iZJh8imSyFzLVZIXGSbN28eGrfvTPAP4whiORPs8q9Bn8GY2MgYEMr08eCDD/rccRkm2RGxpUGhHgmasJYSFxpe2EffFOJJSXyEaCeGdPz48XbTTTe5m27AnHVPEfdYZclGzAsxG1hPE+MZ3p8+i4AIiIAIiEAkCeQ44Kr03wwHkWxVbYmACIiACGQ7Ag8//LANHTrUxowZ42uNpnWCxEOGxzuGt0PSINbzxM00XGCG1yEekwyziL9ChQolWS/8mPDP9I+rLseGi8PwOrgSkyAIl9fArRahTCIirJWBuAs/JlKfceEl2ROxs+ntB1doeCK0D8cTYVuwYMEk68EhKV6pmTuWXpI98fCBmGEVERABERABEYCAYkz1OxABERABEYgaAojN5KyNDJSYz8BKmpaBI65YJiW5giBEuFIQy6yVunDhQnd3Ta9YTK5f9rFsDa9IFMQmr+RKenkm17b2iYAIiIAIiEBKCUiYppSU6omACIiACMQdgdWrV/uSKVh477zzTl/CJu4gaMIiIAIiIAIikAkEJEwzAbK6EAEREAEROJhAUm6lB9fK+m9YTR955BE766yzPG4zVsad9eQ0AhEQAREQARFIHQEJ09TxUm0REAEREIF0EsCVNhKxiukcRooOJ8a0e/fuKaqrSiIgAiIgAiIgAmknoKy8aWenI0VABERABERABERABERABERABCJAQMI0AhDVhAiIgAiIQOYSIGtuUpl9UzOSRYsWeXKj1ByT2rpkEV67dm1ExkvfrO1KezBQEQEREAEREIHsQkDCNLucSc1DBERABOKEAEu2PP744/bMM8+kesZ///33QYLuhhtusAULFqS6ncMdwHIvQfnmm2+sV69eRiKltBbEaCBEly9fbh07dkxXe2kdh44TAREQAREQgYwiIGGaUWTVrgiIgAiIQIYQmD17tg0bNsz69etn69atS3EfixcvtvPOO8+WLFkSOgbLIxbNSBaWlrn44otDFtJKlSrZtddee9glapIaA6L0qquusp9//tmrFCtWzNq3b2+FCxdO6hBtFwEREAEREIGYIyBhGnOnTAMWAREQgfglgNXwq6++snPOOceF3/vvvx+CgYBbv359SBCyg+/bt2+3Xbt2GcKU1++//25btmwJHbd79277448/DEvk1q1bbf/+/b6Pd6yzbOcY6lEYA4IYQYsVlP2bN2/2ffQ1b948W7p0qR+zY8cOI4ES482TJ4/X+ffff0Ptrly50gLrKnVpj23btm3zcTBuvtMmY2A8rEtKe/ny5fP2cGnesGGDj+O3337z+fqOA//8+eefPlbe2UdbwTyCOnoXAREQAREQgWggoKy80XAWNAYREAEREIEUEUD4TZ061Xr06GHHHXecTZo0yVq1auXiD4F433332fDhw30fDXbq1Mlq167tltKnn37acOV96KGHrGXLlr5v586dNmLECBeZy5Yts2rVqtmQIUOMZWJmzJjhdekTMdqwYUMbOHCgC8SePXvamWee6XUQhSeeeKL3i9vu22+/7QK3W7duxqtAgQL25JNP2uDBg6148eL28ccf28iRI71P+m/Tpo3dfPPNnv0XAUl7WEX79OnjAprlatg2aNAga9y4sVtP+/bt6+MsWrSoffDBB95ezpw5PV6WsfznP/+x8uXL27hx4+z111+3U0891X766Sdbs2aN3XjjjXbXXXdZ7ty5U8RclURABERABEQgMwjIYpoZlNWHCIiACIhARAjgxotltHLlyi5O586dawsXLvS2sQQiToNYTDbitovV9IwzzrB27drZkUce6ce1aNHCWJMUCyTC8eGHH7YHH3zQrbFYJ7GA8v20006zF154we644w4XeYhVxC39TJkyxcUighFB+uqrr1qDBg2sadOmduyxx/r6p+eee65hCcVaybix1Pbu3dsFMEKZOFkELwVRPGDAAGP7nDlzbMKECS5+GRsCFJGLqAz6p71Vq1bZvffe667DTz31lA0dOtR+/fVXu+2229ziyvy+/vprK1OmjAtwXIJffPHFg9yZvXP9IwIiIAIiIAJZTEDCNItPgLoXAREQARFIGQFca7E8litXzsUkFlPiLL/99tuQ+21SLeXPn99OOukkXz+1dOnSdvzxx3tVRClC8vTTT3erKlZGRCcC8scff3TL5fz5890lFiH75Zdfhrro3LmznXXWWS5GafuXX37x8WDtzJUrl1WoUMEFauiAAx8+/PBDy5s3r910000+D/plPLSNWKZvLKDMFQsn7rqnnHKKWzdLlSplJ5xwQnhz3icbLrnkEitbtqwL2csvv9ymTZvmVtagMpZjYl0RtrgHE1urIgIiIAIiIALRRECuvNF0NjQWERABERCBJAmwtAtusBUrVrTWrVu7eMOySbIhhBeFuM9gGRksp8RzJlewbCJwKQjGggULusWVdnDhRYhiQaVUr17dEIdBwcJJQVQiLrFgHq4Q44kLLX2Fl++//95uv/12Hwtut4wLccoruYI1GPfgo446KlSNsVCC2NVAyLMN8Uqbh+NCXRUREAEREAERyEwCEqaZSVt9iYAIiIAIpJnASy+95BZDXFGDREJYFXF/xapJUiAKlkssmLjxBuKM7UcccYSLMlxhg4KoDC/BdyyViNQOHTqEXG0RdIhKEiglLLQdFNqgLv1gOQ0vWC2JL8XdNhDE7GduuCKPHj3a+8USGxTaQ2yHuygH+8occNFlvgj0wJqKBRkWwfeEYwuO1bsIiIAIiIAIRBOB//0ljaZRaSwiIAIiIAIiEEaA5D8TJ070xD81atSws88+21+XXXaZu8ySWIg4TCyCxGI+99xzvnYoMZhBQRQi7kaNGmUzZ85M1hpJWxdeeKGvF4r7MC649EWCocOVqlWruusvS9qQnTe8NG/e3BMr9e/f362/vCNGcddlrG+88Ya1bds2tDQMxxIXS2bfd955xz799NPw5tw9t0qVKj5OEkExVizIrPOa0Cp70IH6IgIiIAIiIAJRRiDngT+K/aNsTBqOCIiACIhAFBKYPn26J/lBXJ188smZOkJiL1lKpUuXLi5Ag84RX1gUWePzuuuu87hN3GWxoNarV89dbHHBJfkRAg8rIgmUiDllyRWsn/Xr1/c2sUqyDAyutLwQfGTNxc2W9mrVqmV16tRxd2GEct26db0dxsJSLrjQsk4qfRDH+cMPP7jbMa62JEAiOzAutxxHBmCEJFbViy66yBo1auQWUwQz1l6y9HIcY8fiSSwsiZcQxiRUIqkRY8HqynfY4ObMO7GvxLBSNm7c6FZesvlSsOQyZ0R3EGfrOzLxn48++shFOJmRixQpkok9qysREAEREIFoJpDjwB+p5ANYonn0GpsIiIAIiECmESA7LFlfx4wZ40Iq0zpOZUdYRXGLxZ01cM0NbyJwsU2J9ZM/kYhKXHJxH06svfC2g88cR5wqYjixY4jxxM0YgRy42nIMY+OYYFt4e+xLagzBODmWVzQX4oFxN8Y6jKVYRQREQAREQAQgcHDwi5iIgAiIgAiIQIwTQEQi+JIqQXxqUvvDtyMqk2srvG74Z45Lrh+EJ+654YVjknK/TW4fbaR1nOH967MIiIAIiIAIZCUBxZhmJX31LQIiIAIiIAIiIAIiIAIiIAIiYBKm+hGIgAiIgAiIgAiIgAiIgAiIgAhkKQEJ0yzFr85FQAREQAREQAREQAREQAREQAQkTPUbEAEREAERyHYESK5zyy23ePbapCa3d+9e+/zzz+2PP/5Iqkqi20k0RPKioLA0yz333BN8Tdf7ihUrrEePHkbW37SW8PVO169f7xl6We9VRQREQAREQASimYCEaTSfHY1NBERABEQgTQTIeIvICxdpCRtClDZs2NDX/kSkpqQgSqdOnWoseRKIU9YfZYmaSBTGQWIksgqnpaxZs8bXMA3mHWT55V1FBERABERABKKZgIRpNJ8djU0EREAERCDDCNx///2+zujkyZN9vdKUdvTFF1/Yl19+GRKmKT0uJfXKly9vAwcOtJIlS6ak+iF1WE915MiRxpqsFNZEfeKJJ3xN1kMqa4MIiIAIiIAIRBEBCdMoOhkaigiIgAjEOwFccO+66y6rU6eOdejQwRYuXOhIpkyZYu3atbO33nrL6tevb+ecc46NHz8+JA63bNlivXv3tvPOO8+aNGliM2fOTBblnDlzfC3N7t27u4Vy+vTpofpYRNu0aWPbt2/3bVhfb7/9dps7d6716dPHXn/9dXvnnXfsyiuv9DaohIXzoYce8v7r1atns2fPDrWHNbVz585WvXp1q127tg0ePDjU9pNPPmkI5G7duvm4v/nmG58nfTOHq6++2i6//HK79NJL7aKLLrK2bdvarl277N1337Ubb7zRatSoYawvu3nzZoNBz549be3atdasWTP7z3/+Y0uWLLGrrrrK5s+f7+NZt26d17ngggusZs2adt9994XcnX/44QdjjVHmwTip8+GHH4YYhyakDyIgAiIgAiKQAQQkTDMAqpoUAREQARFIPQHcZL/77jsrUaKEde3a1QUWwomCoJowYYKNHTvWxVqFChWsdevWLrwQajfccINbMRGADRo0sBdeeCHJAeCC+/bbb1u5cuXs2muvdcE4ZMiQkABD2CEK9+zZ423gFjtr1iwXfgjmSpUquaW1RYsWdsIJJ3gdrK6//fab3XzzzYbbLCJ6x44dhgUToUzMaK9evTze85VXXrFnn33W3Yx/+eUXt3AWKVLEWrVq5QI36Ju2Eb8Iy5NPPtmoy/dt27a5YL/wwgtdvI8bN84+++wzXwMV0X700UcbY0Nc4hqMdRfRCkPamjdvnvNt3769TZo0yQYMGOBjRdwyNkQsHOHTt29f+/PPP5NkqR0iIAIiIAIiECkCuSLVkNoRAREQAREQgfQQyJEjh1sEEUJYSo8//ni3kAbxlgjFQYMGuSjE2of1dMGCBS7UEGaIveuvv95oBzFJDGliZfXq1S7W7rjjDjvmmGM8zvTVV181rKjVqlVL7JDQtkaNGhnWVcZEX7ly/ffPKO3gMosoJEYUQYfA/eSTT2z58uX22muvhdxp2f7pp5+6dZKGTz31VLvtttvsuOOOC1lg2V66dGl/IaSZK8mcLr74Ym8fCy5Jm0hqVLRoUUMYX3PNNb5/zJgxbvHNkyePLV68mKa8MO4ff/zRPv74Y7eWshFWQ4cONWJTKcWKFXPrMJZY+qfNnTt32rHHHuv79Y8IiIAIiIAIZBQBWUwziqzaFQEREAERSBUBLJ/Dhw93oXbddde5eMSNNkjkQ9xlxYoVvU2slhQEIsIP8Ya1EKFFwdU3qYI4w/r44osvuustLq+Ir9GjRxtW26Ak9TnYH/5eq1YtF6Vsq1y5sreD5XTRokUusM8666xQ9XPPPdc2btwYmhf1kxJ+xIriooxYx8KZO3duPxaL7Pnnn+/7li1bFnINDnWSyAdcivPnz+8uusFuLMAw5kWB8YknnuifCxUqZIULFw6N0zfqHxEQAREQARHIIAISphkEVs2KgAiIgAikjgBW0lGjRrk7KRl1iZfE6heUnDlzBh9DApQNiDoEaRCPyrZp06bxdkjBtRXr4tlnn+0WSOI0iWXFMkhSI8TbUUcd5YI3sCLiBouVNbwEYjnYFghivod/xi2ZJVsQj0H5+eefDdfdwNqaN29et4IG+4N3ROmbb77pArp///4hwUi8LbGjzAO3XKyoQaFvXoEbcrCdd/okdjWcE3GzWHl5BSV8/ME2vYuACIiACIhARhOQK29GE1b7IiACIiACKSIQCKKtW7ca4ot4RyyZhyu43+L2+9RTT7mFj1hKXGfLli17yKFYZXGv7devn4vRoMIVV1zhsaYzZszwhEKI0ZdeeskuueQSe/nll40xBQWLIgmQiIcl9jO5Qkzoo48+6i8SCxHHSZwssZ4I4OQKsZ4kNqINrLcI5+AYBDZtIeRxzSXpEwUrJyITd14syOGlbt26Hr/L3O+++24X34899pi79TInYmRVREAEREAERCCrCMhimlXk1a8IiIAIiMBBBIi1JGkPbqokJUIsJeXiGn4gMZYk8cESiHtrly5dPE4yELrhdYntxPKK+2x4oS/ccbG0Fi9e3DPaDhs2zBo3buzWzNNPP92r0ybZanHFJc6VLMKU8L7CP+N6jMhGVFatWtUz6+I+S3IhLKbEo4bXDz5jkSXuFXGKQCahE8mOSPhEUiOWgSGpEll9aTc4DqHMdtrv0aNHSNizn5hRRCxxpwhZhCrbyAqM4A3a8AmF/ZPU9rAq+igCIiACIiAC6SaQ48BT2P8F1KS7OTUgAiIgAiKQXQlgvSNRDtY4kgBlVMHdFPEY7l6akr6wIpKxlrhIBF96Cn8aGQftFChQ4JCmcJUl7hP32JQU3HI3bdrkQjvcPTklxyZWh/FhGSZZUWJzxeKL2EysL+Jx2Z8vX76QBTaxPjJqG5ZjBP0bb7xhp5xySkZ1o3ZFQAREQARijIBceWPshGm4IiACIpDdCZDhNi2FxEBYTyNRsBImZ6098sgjUyxKGQ9CGxEZqcL4sOwmVXDpTaogZFMqqJNqQ9tFQAREQAREINIE0vdIOdKjUXsiIAIiIAIiIAIiIAIiIAIiIAJxR0DCNO5OuSYsAiIgAiIgAiIgAiIgAiIgAtFFQMI0us6HRiMCIiACIiACIiACIiACIiACcUdAwjTuTrkmLAIiIAIiIAIiIAIiIAIiIALRRUDCNLrOh0YjAiIgAiIgAiIgAiIgAiIgAnFHQMI07k65JiwCIiACIiACIiACIiACIiAC0UVAwjS6zodGIwIiIAIiIAIiIAIiIAIiIAJxR0DCNO5OuSYsAiIgAiIgAiIgAiIgAiIgAtFFQMI0us6HRiMCIiACIiACIiACIiACIiACcUcgV9zNWBMWAREQARFIM4Hdu3fbpEmT7LfffktzGzowvgn88ssv8Q1AsxcBERABEUiUgIRpoli0UQREQAREICGB2rVr2/jx4+3pp59OuEvf/5/A/v37LUeOHOJxGAJVqlQRp8Mw0m4REAERiDcCOQ78Ed0fb5PWfEVABERABNJG4LvvvrOlS5em7eA4OGrq1KlWsWJFK1GiRBzMNu1TLFy4sF1wwQVWoECBtDeiI0VABERABLIVAQnTbHU6NRkREAEREIGsIrBlyxa79dZbDWtgnz59smoY6lcEREAEREAEYpKAhGlMnjYNWgREQAREINoIzJs3z0Uprrz79u2LtuFpPCIgAiIgAiIQ1QSUlTeqT48GJwIiIAIiECsE7rzzTiM65t9//7WOHTvGyrA1ThEQAREQARGICgISplFxGjQIERABERCBWCbw8ccf2+effx6aAkmi5s6dG/quDyIgAiIgAiIgAskTkDBNno/2ioAIiIAIiMBhCWAtDS+bNm2yMWPGhG/SZxEQAREQAREQgWQISJgmA0e7REAEREAEROBwBMaOHWsrV648qBouvR9++KEtWLDgoO36IgIiIAIiIAIikDgBCdPEuWirCIiACIiACByWwM6dO2327NlWpEgRK168uNfnvVSpUrZ7924J08MSVAUREAEREAER+C8BZeXVL0EEREAEREAE0kiA7Lu47e7atcs2b95sjz32mIvSTp06eYvHHHOMFSpUKI2t6zAREAEREAERiB8CEqbxc641UxEQAREQAREQAREQAREQARGISgJy5Y3K06JBiYAIiIAIiIAIiIAIiIAIiED8EJAwjZ9zrZmKgAiIgAhkIIG9e/d6TOnSpUszsBc1LQIiIAIiIALZk4BcebPnedWsREAEREAEMpnAmjVrrHXr1lauXDl78cUXM7l3dScCIiACIiACsU0gV2wPX6MXAREQAREQgeggUKBAAbv11luV7Cg6TodGIQIiIAIiEGMEZDGNsROm4YqACIiACIiACIiACIiACIhAdiOgGNPsdkY1HxEQAREQgSwjsH//fuOlIgIiIAIiIAIikDoCEqap46XaIiACIiACIpAogT///NOef/55Gz9+fKL7tVEEREAEREAERCBpAhKmSbPRHhEQAREQARFIMYHdu3fbtGnTbNasWSk+RhVFQAREQAREQAT+S0AxpvoliIAIiIAIiEAECODCy5IxOXLksNy5c0egRTUhAiIgAiIgAvFDQMI0fs61ZioCIiACIiACIiACIiACIiACUUlArrxReVo0KBEQAREQgVgj8M8//9jy5ctt9erVsTZ0jVcEREAEREAEspyAhGmWnwINQAREQAREIDsQ2LRpk3Xt2tUeeuih7DAdzUEEREAEREAEMpVArkztTZ2JgAiIgAiIQDYlkDdvXqtVq5YVK1Ysm85Q0xIBERABERCBjCOgGNOMY6uWRUAEREAEREAEREAEREAEREAEUkBArrwpgKQqIiACIiACIiACIiACIiACIiACGUdAwjTj2KplERABERCBOCKwa9cu++ijj+yrr76Ko1lrqiIgAiIgAiIQGQISppHhqFZEQAREQATinMD27dvthRdesPHjx8c5CU1fBERABERABFJPQDGmqWemI0RABERABETgEAJ79+61FStWWJ48eaxUqVKH7NcGERABERABERCBpAlImCbNRntEQAREQAREQAREQAREQAREQAQygYBceTMBsroQAREQARHI/gT27dtnGzZssC1btmT/yWqGIiACIiACIhBhAhKmEQaq5kRABERABOKTAIK0b9++9vTTT8cnAM1aBERABERABNJBQMI0HfB0qAiIgAiIgAgEBHLkyGE5c+b0V7BN7yIgAiIgAiIgAikjoBjTlHFSLREQAREQAREQAREQAREQAREQgQwiIItpBoFVsyIgAiIgAiIgAiIgAiIgAiIgAikjIGGaMk6qJQIiIAIiIALJEvj777/t+++/t4ULFyZbTztFQAREQAREQAQOJSBheigTbREBERABERCBVBMIkh899dRTqT5WB4iACIiACIhAvBNQjGm8/wI0fxEQAREQgYgQ2LVrl82YMcMKFChg1atXj0ibakQEREAEREAE4oWAhGm8nGnNUwREQAREQAREQAREQAREQASilIBceaP0xGhYIiACIiACsUVg//79tnPnTtu9e3dsDVyjFQEREAEREIEoICBhGgUnQUMQAREQARGIfQLbtm2zJ554wl555ZXYn4xmIAIiIAIiIAKZTCBXJven7kQgbgn8+++/NnHiRFu6dGncMtDEU0egYsWK1qRJk9QdpNpZRuCff/6xZcuW2Z49e7JsDOpYBERABERABGKVgGJMY/XMadwxR2Dv3r3WvHlzmzRpkuXNmzfmxq8BZx4BXEJxB+X38uabb2Zex+pJBERABERABERABLKIgCymWQRe3cYvgbPOOstuv/12y5kzZ/xC0MyTJUB212HDhiVbRztFQAREQAREQAREIDsRkDDNTmdTc4kJAscdd5xdfPHFljt37pgYrwaZ+QT+/PNPGzt2bOZ3rB7TRQCviCVLlrhHRNmyZdPVlg4WAREQAREQgXgjoORH8XbGNd9sQQBXz6RewQTZf7hC3Ou+ffuM9+xSmAsCISXzzy5z1jyig8DGjRutQ4cONnDgwOgYkEYhAiIgAiIgAjFEQBbTGDpZGqoIQOCPP/6wadOmGYlWEit169a1/Pnz25dffmnVq1e3k0466ZBq69evt++//94WLVpkWOeOOeYYO//88+3cc8+1I46I7edVb7/9tn322WfWt29fK1Wq1CFz1wYRyCgCBQoUsLZt21qhQoUyqgu1KwIiIAIiIALZloCEabY9tZpYdiWwZs0aGz9+vP3999+2detW+/XXX618+fJWpEgRnzKfjzzySBswYIA99thjhwjT1atXW8+ePW327NlWpUoVO+qoozxT8PLly61q1aoxJUx///13Gz16tPXq1SuUUCpPnjyGQIh1gZ1df7/ZeV48ELrpppuy8xQ1NxEQAREQARHIMAISphmGVg2LQMYQOOecc+ytt95yV1Wsou3atbP77rvP41bpkaRKWEOTKlgTv/jiCxs5cmToGKyvJNyJtbhXLL4vv/yyde3aNSRMmzZtapdddpmSSyX1A9B2ERABERABERABEYhCAhKmUXhSNCQRSI5Ajhw5QqIrsAoiRnPlStl/Z9x4icHEshpkBuYdS2NSBevs/PnzbcGCBbZhwwY74YQT7OyzzzbW2eRYljb5+OOPrXLlyvbbb7/ZwoUL3Z0YV+LTTz/dGDOFvmfOnOlW3mLFirmrcYUKFXzsHEcftEEdLMD169e3uXPn2k8//WRYio8//nirVauWj/2XX36xqVOnuqDGfbd48eLujrxu3TofQ+3atX0MiG6syvPmzfPt1MNSTHZkxkUs6jvvvOPHwzAQ9TVr1rQzzjjDx7Z9+3b77rvvfHww5/g6deoYfTFv1hotUaJEUvi0PU4I/PXXX/7QqHDhwnbFFVfEyaw1TREQAREQARGIDIGU3clGpi+1IgIiEAUEqlWrZkcffbRbWXHpJa40OVG7Z88eGzVqlA0dOtROO+00dw1+7733fCYkeWnQoIEh3Lp06eIilLaJ7fz222/t2WeftSeffNIF45YtWzwxzNq1a13YISZxw33mmWf8OAThXXfdZSeffLK7IiNKiXvt1KmTlSlTxkXpa6+9Zh9++KE99dRT7n5MH4jsTz/91MdVqVIlF4qs/Tlu3DgXppMnT/Z4U4QwQpr4XPrEynzllVe6MGX5HuICTznlFBeoWKLp65VXXrHSpUt7htwRI0a4UCbBDcIZ4bpixQobNGiQHydhGgU/7iwews6dO+2TTz7x34yEaRafDHUvAiIgAiIQcwQkTGPulGnAIpA+Alj6Hn/8cevevbtdffXV1rx5c88ieuyxxybaMNbG559/3lq2bGl33323i9gdO3bY5Zdf7sISyymFm3ISLbH+JjGuHMeyOIhALKcIOCyuCDxEHQK1VatWbq3EqkpBvOKqfO+997pbMYJ58ODBvg3L7Ndff21t2rSxVatWedtYL3Hjpc+CBQseYvXFknvnnXd6/w8//LDXQUQjdrt162YkigrmTVsIdeJsGSfznTFjhrG8D+7PzLdfv36exRgrLGND5E+fPt2TR/kE9E9cEyhatKi7yAeeDHENQ5MXAREQAREQgVQSiO30m6mcrKqLgAiYCypEF4IKsYUrKgINEZbYsjEkGCLJEgKQ5C558+Z1N9uOHTu61RIxSeFmnHZJPIRbMG6wWCDJIozL68SJE12wkgUYKybJlxCTuOQGhTauv/56b4N+EH+4+v7www/2xhtv2EcffeSuuwhj9lEHd9x8+fL5K6EgQGAiRIk5xQ2YcSE0sZTSBi7HQWHdSUQpbeKqjOWWsRN3i+DGUgsrLKb0R2EfLsexFpsbzFnvkSXA74/fP14DKiIgAiIgAiIgAqkjIItp6niptghkGwK4xw4ZMsStkLjQ4h6LkES4hReEJ26uWEHDC66rWElxpaVwQ84rKAhG4kV//PFH27x5c2i91FdffTWo4vXpMyhYnMqVKxd89XjPBx54wI/HqoowZmmblK5RSlwqojHh8h30Q9m2bVuoL1x2EaUU3qmDGzMi9LbbbvP5Y8lF4N50IPMqAjqhEA41pg9xSQBLOlmv+b9CLLOKCIiACIiACIhAyglImKaclWqKQLYjgAXxwgsvtGbNmtkHH3zgAjChMEXUbdq0yS2VWDiDQnwl3wMxhyWUm/KgIB5x50XYEXOKK27JkiXtueeeCyVDoi6Wz6DQVpAoiW24AeO2S6wnbSxZssTdh4P6wXtSQhXxTOImEjaFl2Cc4eIhocgMxsE7savE0xJHixt0nz59PLlNOI/w9vU5PgnwAOaOO+7wGFMe+qiIgAiIgAiIgAiknIBceVPOSjVFIOYIICgRYcEL6ycutSQNIsaTLLkITEQpIg5rZMKCZRUrIeuicgxtLF682EUj8aWBkN23b5+vr4rbLv2S6ZYsuyQxot1GjRr5cbgMIyRxG166dKm71CbsM/hOJl0ELWutspzN2LFjDatUUNiOmMUtmXEF1ttgP+7EJ554omdKZWkZXJJ5x2pLIqcgtjWon9g7VlNcfnH9RaQTH4tYRYizbc6cOUY2VhURwFJKxuZTTz1VMERABERABERABFJJ4H+milQeqOoiIALRTwA32HDLzaWXXuoxkcSLEkeJNXPZsmXudnjDDTeERGb4zHC1xQpE8iKSJWFlRJjipssaqsTTIdAQiAjdG2+80dulDsmPqEMhCRHxqvfcc4+7DCNMsTAxvnDLZXjfJCkisy9tIgoRpUGyIurh9ksCIpIysTwM4wy3fGIRfuyxx6x///7Wtm1bt2QxBpbzuP/++z3mNLG42mAMCFAEMXNnblhIEdNwhN8333xj1157ra+ligBXiW8C/D5IkKUiAiIgAiIgAiKQegI5Dlgu9qf+MB0hAiKQWgJY88iAi7gaM2ZMRBLmkNgHoYRVMzyOEgse27H2hRcS9SDsWDN0+fLlbmHEGsrxJPhJKokPY6c+oo4+sUKSLCiwliLaatSo4UvDsCwL9WgPy1G4kMSSisWS/rmJJ66TdhC17MNtF8EbiEvccBHO9E196uKWy3G0i6jEGsw6p4hsRCrjI0ERSZMQptQhiRFtEHOKSzCCNlwMk4gJNnCgcI6oT5tYkleuXOnjwBpMHeaFuMUCi8UUyzHji1TBGksMK3xZ+iYtBU4so8MYVURABERABERABEQgIwhwT8V67kEIVHr6kDBNDz0dKwKpIJARwjQV3Wdo1UCYIrhxdVVJH4FICFPEduvWrV1gJ0xclb7R6eikCPCcl4cp/HHmoYiKCIiACIiACGRXAsHfPFY+IHwrMCqkZ75y5U0PPR0rAiIgAlFO4JJLLnHra5QPM1sMD2v9iy++6JZu1ttVEQEREAEREIHsSgCDCwkhI1kkTCNJU22JQJwSwBWXeNJgGZY4xRCV0yZGuEWLFlE5tuw2KFznq1ev7q7prIOrIgIiIAIiIALZlcDu3bs9NC2S85MwjSRNtSUCcUqArLss7aIiAvFMAJfplGR6jmdGmrsIiIAIiIAIJEVAy8UkRUbbRUAEDiFAPEHCLLZ8Vw61Q1BpQxwS4P8CSby2bdsWh7PXlEVABERABEQgfQQkTNPHT0eLQNwQmDt3rvXs2dOXfSHjK5lrJ02aZCw9wzIt7Gd5moSZgCMJiGVphg8f7n3RLkmX3nvvvQztM5LjV1vZmwBr6bLeL0scqYiACIiACIiACKSOgIRp6niptgjEJQGWW2nVqpW9++67tnPnTtu3b58vR9O5c2ebP3++r/W5YsUKe+mll1ywZhQk+h43bpwvOUMfM2fONMbAeqIqIhANBEgGwUMbFREQAREQAREQgdQRUIxp6niptgjEJYHvvvvO3RNfeeUVa9iwoTOYMGGCsWbpqFGjjEQvWE8zw6U3vI/zzz/fLai8q4hAVhNgLVxZS7P6LKh/ERABERCBWCUgYRqrZ07jFoEIE8AauWrVKl9/sUSJEpY7d27vgaxr69at89jSE044wXCnxWJKXW7Eiavj2KQK9VevXm358uUz2s2ZM+dBVf/66y/fz/aTTjrpkPUfcQ2mr6OPPvqQxZsLFy5s9evXD411165dPjbqbty40bZu3WolS5b0LKnhnWLRok3Wm2ROzJH+GaOKCIiACIiACIiACIhA5hOQMM185upRBKKOwJtvvmmPPvqoCzkWSK5UqZINGjTITj31VHvyySft6aef9jjOK6+80i644AJ3pf399999G+tkNm3aNGRJDSaHeB09erQ99thjhnsj7dLe4MGDrUKFCi4gcQ2mHxLGIBKrVKniqccDgYibcKdOnWzt2rV+fK1atbytoI8ZM2ZYr169bMqUKXbUUUd5jOuCBQusTp069txzz3kfzGXYsGFu1eW4JUuWWPfu3e3nn3/2Pps0aWLz5s2zM88805566qmgab2LQKoJ8BCF3x+/RX7rKiIgAiIgAiIgAiknoBjTlLNSTRHIdgRwi33ttdc8TrNq1aou5h588EG3Nvbo0cNjR1mfFPGGRZEkR9dff72LQdxnceGlXvPmzQ9igyhFGPbt29caNWpkzz//vPXr18+WL19u9957r7dPHb5fdNFFvr9t27Y2Z84cF8I0tnjxYkMIswQH4pbXwoUL7Zdffgn19ffffxuJmAL33u3bt9u0adPcrfiRRx6xli1b2uzZs13sIo6xzvbp08fWrFljzBPRvXLlShemWFdVRCA9BDZv3my9e/e2IUOGpKcZHSsCIiACIiACcUlAFtO4PO2atAj8lwDLWiAazzvvPLdksh4pIo/3Ll26uFDEQooIff/9961Zs2bu+srRCETEZYsWLTzWlBjToOD6O3HiRGvQoIG3G7gF4zbbvn17F6TnnHOOdezY0d1s//zzT3fh/eSTT2z69Ol299132zvvvOMWWdZHxepJwXX4qquuCrpJ8h1RWq1aNRfMiF2spIhSEjTxHeGApZdy3HHH2WWXXZZkW9ohAiklcOyxx7o1vkCBAik9RPVEQAREQAREQAT+n4AspvopiEAcE8ByiJUHAYkYpeBSW65cOStevLh9//33aaKDay7ut1gsA1FKQ7jwIi6xlFIQiu3atbPGjRtbhw4dXOwiUnGJxJLJOMJdIk855RQrU6aMH5vUP6VLl3aX4GB/jRo1PAYWiymuwQjR8uXLB7u9btGiRUPf9UEE0koAF3Q8DHA5VxEBERABERABEUgdAQnT1PFSbRHIVgSweAZusIlNLFxUJrY/qW0kROKVWKG/XLlyuTvvzTff7ImVcBFmGZi6dev6eBgXQhKLbng7HMv25Er+/PkPSrBEvF8wR9pD9IYv54EQlxtvckS1L6UE+J3hXs5vTEUEREAEREAERCB1BCRMU8dLtUUgWxHAtRZr4eTJk23Lli0+N26uf/31VxeOuPGmpdAmFleSKpHxNijEiOJSS2wq1tL169d7zOd1113nsaRk76XkzZvXM/hiNZ07d25wuP3000+ewTe0IZUfKleu7JZY4leDMmvWrIOEarBd7yKQWgLEOJNo69VXX03toaovAiIgAiIgAnFPQDGmcf8TEIB4JlCoUCG75ZZbPC6OJEaXX365u/a+8MILHld6+umnpwnP8ccf7zGcJBjCGsrap7j2Es+K2C1btqz98ccfHqM6ZswY3/fpp5+6iy9utlgxce8lqy/xpjfccIML2pEjR6ZpPMFBZN497bTTjBhUXIaxnL711luycAWA9J4uAlhKeXjCEkUqIiACIiACIiACqSMgYZo6XqotAtmKAAKwTZs2RrKW/v372+eff+5usCz/QkbdwJWX2LmCBQuGvgMBl1niUlkGhpInTx6vQ5u46nbu3NnrsBwMiZDYTpbdAQMG+HFYTclgitgkcRKiuF69ei4YaQ8Byz6WdiGTLmuWIp5x+aUvChl7GRdtU3DbJQFNeMH6ylgZJ/GtZPelzXvuucfH0bNnT0+IxNqnKiKQHgLEL7/88svpaULHioAIiECmEwgPkQkPdcn0gajDNBFg1QTucbj3ivWS44Db3v5Yn4TGLwKxQIALP8uqcNHHShiIvmgZO+PbuHGjCzsEXqQK8yUZEoIRkZiw7Nixw919EY2JFcaFmzHCNFIXXWJYSfyEyzHrsbLuKaKXNVGjoWDNZVkehA7u0GkpLJPTunVrX2MWMa4iAvFAgMRqXG9UYp8A1z+S2alEngBhNCQ33Llzp3sjsf5yUFjjWyW2CPD/BANDsIJBsWLFDM+1MgeSRWZkckdCtViZgftZVlIIDBXpoRf70jo9s9exIiACIQJcWEqUKBH6HqkPiEkukEkVLJXJWSsZFxfZSJRdu3bZBx98YOeee667Ey9dutTdennaGCwfE4l+1EZ8EuAhyrJly/wBjG6os+Y38PTTT/v/8azpXb1GksA111xj999/fySbjOu2EJ8s5fb666/bokWLPOwAYYE4rVixYohNIG5CG/Qh6gl8++237m0WPITmQT4P+8kjQg4PwktYjz4WioRpLJwljVEERCAiBMiYimsx65oGhaeM3MymNZ42aEfvIoDHATHbuKnLpTdrfg94QnCzzbI9iXloZM2o1GtqCJBE7OOPP3YRlZrjVDdxAlyXBg4caM8991wonwL5FkjShkUtfEm2xFvQ1lgjQHgU+TN4EM/a8RRCpd5++20XrNE8HwnTaD47GpsIiEBECeBOTJKlefPmeeZhLLlVq1ZVspqIUo7fxohlxgU7Kbf0+CWTuTPHWk3SNJ2HzOUeqd7I2P7jjz9Gqrm4bYfl0fhbRy4HMtGThLB27dp24403etb8uAUTBxPHOhpYSMnLMWPGDHfdxiuubdu2/qAiUp5okcYpYRppompPBEQgagmQJAkXF54c8lIRgUgSwPreoUOHSDaptkRABEQg1QTInfDQQw/Zu+++62ErQ4cOtauuusoTBqa6MR0Q0wRatWplvPhNkPQRbx7ydnTp0sUfVETb5I6ItgFpPCIgAiIgAiIgAiIgAiIgAqknQMLBO++807Pak3CRbPsIE7LYq8QvAeJMWQrwiSeesJkzZ7pF9auvvoo6IBKmUXdKNCARSJwACbT5g5PUi/28yDibXLJtjieGBzcfYi4zs5AchqQLZATMzAKTlStX+pwzot+//vrLfvvtNz83GdG+2owNAvwOiNtieSQVERABEchsAmR0Jxv7Rx995PkUyJ9AcsFIZEvN7Lmov8gTIO6+U6dO9t5777kl/d577/XVGCLfU9pblCtv2tnpSBHIVAIIq6eeeirRPllntGXLlp72naQRt912W6IZdr/55htPKoFLx7///utLuNx+++1Wrly5RNuN9MatW7f6+qjEurRr1y7SzSfZHvO96667PJ6UeJtIl7Fjx9onn3xiDz/8sBJJRBpuDLVHdsv333/fl7hQlucYOnEaqghkEwKvvfaajR8/3tcRJ95dgjSbnNgIT4PcGtz7sd78448/7vdlya2OEOHuk21OFtNk8WinCEQPASyda9eu9RfrjLEW6vz58/07Fsg9e/Z4ogO2b1AcxHUAAEAASURBVN68+ZCBk06cJ6m49ZBCvFChQoYbxx9//HFI3UhtIJaBix9jp2DJxarEWDOyTJ8+3XgSSBwFhbjSatWq+TIx6e2XjL4kj+DJdFCqVKnibbPunkr8EiDZzvDhw+2+++6LXwiauQiIQJYQ+OGHH/zh9TnnnOPxpfp7lCWnIWY65cEFSzJh8Pjuu++iZtyymEbNqdBA4o1A4HbLOp8IN9xccbMgQQ/7WPKAd6yhbGMJCixzlFmzZtm1115rvXr1sosuuiiEju1JlSFDhrgVlTbKli3r1VjXk3VCkyu4+yIkiU/JkydPqCrusRTWAA1KsI2ntHwmVTluw7TBHILCvMLneNRRRwW7Qu8cz/jgQ7/B8Vh6ebEdZowNbsE4YIlgnz17tjPkO0lpiLlJ+PSYMXA8LzjTJiV8O3yC/umXjJEI3x07dvgx9Fu9enXjZiAYQzAJxsd5hB2vYA60z/yC8WBpSzjPoA29xw4Bzn9GLmYeOyTid6RcI/j/TeH/e/B/PDOI8NCP6xLZNoNrTWb0qz6yngB/T8g4z4NTlkQjQ7iKCCRHgPumJ5980u+XWOaMNbijoUiYRsNZ0BjikgB/QCZMmOCi5rPPPnMBd8YZZ3iSAtagQvzwx4bssazJh3BKT9mwYYPfJIWLp+TaRCwxvjlz5hguuCy1gnti3bp1/aZn9OjRnnKesXHzhbhj4W4EFmnKWUOLeFLE2YMPPmjnnXeenX/++T4F6nI8qey5iWN7ixYtQsIQt+V33nnHfvnlFzvmmGM8c1yjRo1cIOKO/P3331vNmjXdbRLrMMtD8PSPVOjE1EyZMsVjSgcPHmylSpXyBaaJ/WPtNnhSGANulwhY2ihfvryPAbdmxs7T502bNrm1lTnWqlXLU64j7Ln5YyHrE0880V2oEavUZwxYZ2l76tSpfg6xcmOdZo5NmzZ1VpyL559/3q24uBnPnTvXxfOll15qF1xwgY9P/8QeAf6/cr55mBGtqfhjj2psjZjkIuvWrfNBc61lSSquHRUrVszwiYwYMcK+/PJLT3Ci31+G446qDngowd89/s5269YtqsamwUQvAR7ac9/Sp08fF6aZFdaVHBG58iZHR/tEIAMJIGYeffRRd3XlBoanVf3793effxbCRgjiXtGvXz8XcOkdCjGdv/76q6cLRzAerpDMh7UAsfgh+BDLjCU49s0333TxhYWAgmWSgHrELE/rEaTs40UbiLWgMD8WekZ0Tps2zfsJssPRTseOHT3NPVbihQsXOiOyyFEQgKTBv/XWW12448YMR578IQwQ1PSN4KVfXiR6QpgiaoPSo0cPj6sIRCn7eFjAsf/5z3/8QQH988d+wIABbinl2CBhFO+8mB+WalyoEfAURDUJBjiniOHVq1d7jOuzzz7r++mTm0jGwLxwAYUd55+6KrFJgAcZWOaJ2VGJTwIvvfSSX9vw2sBjhJACXP/XrFkTUSD81oL1KYOGuV6dfvrpnuwm2Kb3+CCAdxHhOu3bt4+PCWuWESGAIYEH4jyYZymZaCiymEbDWdAY4pYAYo2nmzfddJNbWi677DKbPHmyW/2uuOIKv8k999xzjZhSnoSmp+D6S8zlsGHDQk9VEU880U/M7Qtr4Ndff+1WQcQa1lxuuhG3h3v6j9Wwa9euHsOKK+8jjzzirqxBNl7aY3013FuxwmKRxEJcv359e+aZZ1wgEqvH9xtuuMGTOSHqAmsngrB79+6+DyZYJLCiYq3iRhBrJOIQoYdrJRbY8IKFGqHKhZg5hVuREZqI5tNOO81Fap06dezKK6/0tvnMfvpCrCIoExaeXNMu5xLBjJsyDwVYM4ynkqwlFxRifRExtAMDjlm1apVbWIM6eo8dAlhKEQfFixePnUFrpBEnwI3eAw884NdVvDJ4AEUcFw/UwgsP4Xjxuwm/BvFQjetM+DaO48Fb4BqM18WHH37o1yasHGznbwZeGcFx1OfaHjwopA36Sni9py+uyRzHjSrfg+M4RiX6CQwcONCTGHK/oCICqSGAgYAX1yquA1wjsrJImGYlffUd9wQQLYHYQiDidsqTT2IWKdwkcNOBhS0SpUOHDlajRg2PVUV84abLmlY8LUtYiFHBgsjND+6mixcv9osWwiu95fLLL3dRSjsIXmI4g0RFZBXmBglLKuPjxg1LJBaCoOB+glgMCm6+ZMXFWpqSgnWWPrBkBDdxwXHc4HFDh7hl3lg9eYDAeUlJwVLC8Q0aNHBRyjHEcjRu3NizJWIBxgJN4VwE4haRynZuOFVikwAu27itq4gABBB3Z511lrF+4PLly0NQeLBGPOCPP/7o1/aTTjrJH66RKZNrPtccPFSI++LaQeG6SzI5HmCReI2wCR76kYWVB2U84MMLh+sLWdm5jpFXgIeIXEOpQ9sXXnih98VnCn2xtAgPxAoWLOjXLTxAuH5VqFDB6+if6CeA+zh/s8PzQET/qDXCaCDAvUebNm3cQw+PN8KqsrLIlTcr6avvuCfAjWyQopubGL7ztCo8mx5WRZ5gR6Igwrj5YVkT4i+5kRk3blyiTSNcuTHiQoUQbNas2SH1GFeQ6CP88yEVE2wIF8KIc26Igjlu3LjRb+hwvyVjMFbQypUru7tJ0Ax8eMIXFAR9YGUItiX3HvQRiMLwutwQ4iaMRZdzg9U2NQltENBwhll4wTWbEi6ey5Qp49v4h/NOHUStigiIQOwT4JrEAz1EA94WFK5zeFTwQqziXYJIRUwSc08hXILrc/jDMMQoDxF5WMh2XP4RnLTNAzSuK1y78MDgGkLfPCTBswTxyvWFaznW2yATO6IUj5GhQ4f6NQtxincH1l68dFRihwBeQDxIQGSoiEBqCWBp59pEvousLrKYZvUZUP9xTSApdym2R7qEu2jwVJUL0amnnmo//fTTIV1hISTmkSf7xEkhtPjDF14QXtwc8dQegcfNDq66WAeCwjy4QeIVXhLOL/w7GYMRpf379/ebNo5LzfFBP4n1G+zD1ZL93BiecsopwWZ/J0aMfbj6Mi9uFhGyCUtSAhKxCT9uFmknYEBffE7IJ7zdcA7h2/U5NggQz0xcOJYLHgCpxCeBL774wu644w73fpgxY4Z7RhA3T2G5LoQiIRyIU/7PIy7btm3rYpTrDteN5AqeFghaPEoQloGHTWLH8BAPN89KlSpZ8+bN/QEjIRo8zMM7hRh3EiYF1lHi64l/V4kdAggKHlyQzDCr3TBjh5pGGk6AVQX4HfEgLauLLKZZfQbUvwhEmABP0UkQRMwmL248cAVmaRliCNiHWxcxmDwdIz4zYUGQBsKLmx8y1ya8WWFd0AULFvhTep6uI2BJmBReEH24pnLjk3BfeL3wz2SIW7p0qY0cOdLd0nBNY8HwxAR0+HHhn4mPRSgzdsaW8EYPtzcstVgUYEHcLO69xKIirhEY9IurHdl3wwuWWkQ5FmUsGwldm3Gd4yJPMiRuQpkLCZRww8M9jocBKtmTAA9U+L2MGjUqe05Qs0oRAa4fXEe4yeMhWCBAOZhrLg8JsUwGD6IQj1hUuRZFunANJu6ZgmcKD85IxITVlWsj/QailDokz5G4gUTsFJIe4VlFdnoVEYh1ArKYxvoZ1PhjlkBwU5LcBKgTJLtIrl74Ply6sDYGNxcIMNy7uFHCrStwF+UJK3GaPEVPWLD4sPAyYhJ3XoQYCT3Cs9peffXVLrxINkSMFE/giZEMnxcJl3BT46l+y5YtjRhX5hNeJ2Hf9IMIfeWVV9ydlrpYbINMp3xP7njaw/WXP9JkFcYCG34s+xHVJCNhvTduEJkfN4fU50WSElzrYEWWy/ClF4j55WYOAYIVmSRI4ecI7iR7wkrBvHHPhjXJq+677z6/gQjGH7wzpqAkti3Yp/foJsC55veQ3DJM0T0DjS4SBBo2bOiJznjg1bNnT3+oFzzYI16eB2XhYQRcP7jmhrv5Mw4EbFB44JiWgmsnooVCvCrXNNrlxVgQq+El/FoXvl2fo5cADz+JGVbSteg9R7EwMkKsyPXBi79lWVUkTLOKvPqNewIkocCiFyShAAjLqHDTghCjcCPBsiwJxQrCCoteUM8rH/iHp924hIUXjqUe648ikHAp5UYFIUkMZbioCo7jGGJKyfCI5RErITcw3GQFffIUfuLEiR6nyjixUiYsiLqpU6e61ZQ/mvRL7GbCPrFMBttoH3GIqxsWSW6kuLkKkjrgEpcwJT5W1tatW4dYMjesw8Rj4TrLPLEeB30wPzJYkkgEl1vOAeMP5oZlE6sCc+aGEReXYB/biPXCAs025sU8EbLBucRtjvVOufHDCos4RvwGbWCh4DwE3+HGHGHFNtZJVYk9Avy+5cIbe+ct0iPmOsB1A88Jrlc8oOIBIEnaSHLHdYj//0GsPaKTB4c84KPwO+I6gKcK1ygKXheJlYTeIAnrBNe8YHvwt4QHaFzXuS6GF65X4YI4fJ8+RycBhATnmd+cigiklQAPy/D24JWVRcI0K+mr77gkgOhAMIWLkswEESRbSs26esRYJhZnybi50cH1l0QayZWUuvKGt8FYuWlLuNxLeJ3kPsM4JeuC4rac2PiJ/eKVXEHsJ1eYAzedvFJa+I2EJz5J6XGql7UEeIBBzDW/Ox5EqMQ3Aa6NWE8Jl+jcubN7mOBtQXxo/wNeLXfddZc//MJDhMRFPFyjIF55AEY4AGKVdl544YWDYPIwEKsGD7OoH26BPahiEl84ngdqhEngnVK7dm1/cNm3b98kjtBmERCB7EyA6wkP07mfy8oiYZqV9NV3XBHgiSaWMtL8h8cXxRUETTZFBBA4iHEsvyqxQ4A/6riB49KOlUxFBMjozRrGeGg8+eSTdv/99/v6xnhd4N2CSOXhV5MmTXzJBogRF0roA9nTiQPFawRx+9Zbb4WAIkTx7CBZG/HxeJkE1tBQpQMfEtvGfh6e4BVD+7179w7FviOkSeCVVQ9Ow8euzyIgAplHgLXb8YLDAl/mQCx6VhUJ06wir37jjgB/6LlB4SYjNdazuAOlCYcIyC00hCImPvBAAQs6/8dV4pMAN3a44oa70CIqiTdlO/HHxPbXq1fPvTlInoarP7+ZIFwBa+btt9/uFlRCKbCaEvvJw45gmSw8MbC4EseP6y1i9uyzz/ZtuOkiSOmTHANBIY4eIRvkHyB8gFh52mFZLh6E0RZ15BYaUNO7CIhAZhKQMM1M2uor7glwA9KvX7+45yAAIpAdCWAdI05cJX4JYAFNWBCpCZMK4TaXXIIRRCqCNIg7pc2E6ykjcsMz6iJ8wwVlwj4ZBy7CQSGLNAmXsPDTD5YSMpXznZeKCIiACGQ2AQnTzCau/kRABERABERABEQgiwngAszSRmQaR9SS3ZU1TlnLNFhiJouHqO5FQATijICEaZydcE1XBERABEQgYwjs2bPHY/YSWrIypje1KgLpI0CmdtZVxgU9KGQUxsU3yDAebNe7CIiACGQGAQnTzKCsPkRABERABLI9gc2bN3scIC77I0eOzPbz1QRjmwCZo5U9OrbPoUYvAtmNgIRpdjujmo8IiIAIiECWECAxTZDgLEsGoE5FQAREQAREIIYJSJjG8MnT0EVABERABKKHABlQybiqIgIiIAIiIAIikHoCEqapZ6YjREAEREAEROAQAvv377d//vnHl+pQjN4heDJlA0l8fvvtN+vfv39o+ZVM6VidRIwASy6xTM4555wTsTbVkAiIQGwQkDCNjfOkUYqACIiACEQ5AW6oWQOS9SKvu+66KB9t9hwe3Fknet68edlzgnEyKxIwlSxZMk5mq2mKgAgEBCRMAxJ6FwEREAEREIF0EPj7779t9uzZVqpUqXS0okPTQ6BevXq+tueuXbvS04yOjQICya3zGgXD0xBEQAQygICEaQZAVZMiIAIiIALxRwBL6ZgxY+Jv4lE049y5c1vp0qWjaEQaigiIQEICLFG0c+dO++mnn2zbtm12/PHH22mnnWb8/410oZ9hw4ZZkyZN7Oyzz45086H2WC5s+/btVrBgQS23FKKS+g9HpP4QHSECIiACIiACIiACIiACIiACqSPAslrEgJcvX95uvPFG6969uzVs2NB69OiRuoZSWBvviY8++sgWLFiQwiPSVq1fv34exvH666+nrQEd5QRkMdUPQQREQAREQAQiQGDv3r2eeCdPnjyKj4sATzUhAiKQ/Qh89tlnbsF86KGH7IILLrCcOXN6XPgRR2SMrQwL5qhRo9wqm1E0sZTiLXP00Ud7X9dff31GdZXt25UwzfanWBMUAREQARHIDAIbN2609u3bW7ly5eyFF17IjC7VhwiIgAjEDAGyli9cuNDy589vnTp1snAxSlbz8IKLLzH7hQsXdjdfMm5TcM0l0RzuvytXrrS//vrLjj32WCMmmSW7gsJ2XsWKFTPWmOaBYXihP8ayadMmd/EtUKBAaDdCc+7cuVa0aFHvO7QjiQ/jx483HkxeffXV9vbbb3u7uCarpJ5AxjyeSP04dIQIiIAIiIAIxDQBnpazjumFF14Y0/PQ4EVABEQgIwhgHSUGHHfep59+2tauXWuBIM2RI4d3yfeRI0faueeea127drWLL77YXX1/+eUX34+rLEsJ3XbbbVazZk3D8nrqqae6SzCxqxTEK67BzZo1876wzE6aNMn3EQv63nvvWZkyZaxp06b+MPHEE090MYngffzxx93NuEOHDlanTh2rW7euLVq0yI9N7B9chV988UUrW7asdevWzUqUKGGDBw8OzSuxY7QtaQISpkmz0R4REAEREAERSDEBnspzY9K6desUH6OKIiACIhAvBBCfJCEKYkvbtm1rr776qlsbAwZfffWV9e3b15o3b+7Wx+HDh7u4fPbZZ4MqLmhZr3js2LF27733WoMGDeybb77x9W+ptGHDBps2bZrdeuutoWOCD1hCe/bsaRdddJGNGzfO3nzzTfdwwbI6YcIEe+CBB+zuu+/2vhGcs2bNsmeeecYQtImV7777zoUr7ruVK1d2QU1MK+NTST0BufKmnpmOEAEREAEREAERiAECq9estd//WG0jR6cvIUmVsypbxVPKWcP6tWNg1hqiCEQvAdaoxaJ4xRVX2F133WUdO3Z0cYpAxW2XMAhcci+55BJ3wa1SpYrHok6ePDk0KVyCEa81atTwbbRz2WWXuYhkuS5EKtbZWrVqhY7hA9bY6dOne/ZfxkD8KeXMM8+0HTt2uJjFfbdFixZeB8tstWrV3Jq6detWdwv2A/7/Hyy0U6ZMcdF6ww03eDZeBCruvIjTzp07h1fX5xQQkDBNASRVEQEREAEREIHDEeDG5uOPP/abHZ7Gq2QtAW5ex7w+3ka88LIdlS9fmgez+8D6tJO/mGalSp5kRx5YzqJOrRr2X6fDNDepA0UgxQSIXaRkxFIqKR5EhCsS9oCLLsISgfjEE0/YnXfeaSNGjLCff/7ZVq1adYjnCaI1KEWKFLHzzjsv+OrCFRfhGTNm2KWXXmqjR492N9yTTjrJ3XqDigjJZcuWuesvYwgvuOTiWrxmzZpDBG3VqlWNdaoTFupimaWQX4Cyb98+r4uQbtOmjce/+g79kyICEqYpwqRKIiACIiACIpA8AYQprmHcIEmYJs8qM/Zu3bbdZs+d7131v69XmrucOn2mTZz0ma38/Q8b8PBg69e7h9WrfX6a29OBIpAaAsQ3vvbaa24BZIkVkv5gFaxUqVJqmonKuiQs+s9//mMzZ860efPm2erVq13IEf+J+2x4MqNwYU6yoyAmNZgY7sFYXXGt/eGHHww3YY4n3jS85M2b19dODWJbg325cuWyfAceYGEhfeSRR4LN/k5iJNapTliIe0VIt2zZ8iABynfGsXjxYo+HTXicvidNQMI0aTbaIwIiIAIiIAIpJsBTfBZyD7+BSvHBqpihBFo2vyzN7e89YAFBmBJDvHHjJruzd397eOB91qhBnTS3qQNFIKUEEEVffvmlu6DyGWGF4EKcEReJoIqVgjURAUqCoOLFi/uw8WxYvny5C27mRcIh4krZTtIiCm60HJtcIUkRCZUeffRR91oh7jRhIQswbru4C3/99ddWv359r4I1lKy9ZFT/5JNPnCsPASjsW79+vXP3DWH/kI2XYxDXnIugYEnFoku8LO7AKiknoORHKWelmiIgAiIgAiKQJAFimsjuGH6DkmRl7Yg5Ag3q1bQuHW+xnbt22oCHHrdp079R5s2YO4uxN2Cso2SdxUJI1lgS+5BYB4FHvCTxlLFSEJeIOZIEsbQK8Zgsq8KSLcSccu3s1auXL/1CVtwuXbp4oqJ69ep5YqLk5omVFZdbYjtJQBfu+htYV3lHsNauXdsaN25st9xyi7dPHCtLzxBbWrJkSbea3nHHHcaLfWTxTVjwkCFDMOKWcbOcTfDie5BcKaFlNmE7+n4wgdh5zHLwuPVNBERABERABKKKADddPFnHYkoCDZXsR6D9zddZngM3oEOeft4GPvyE9e3dXW692e80R82MVqxYYV988YVnm0VUhYsc3E5JHIQ77KBBg6JmzMkNBOsuApRrJW67xHyypAuWUbYzR+b1wQcfuFvu0qVLbffu3daqVatQeASitl27dod0QyIj3HcR8rwHhfYQoCeffLJv4uEhGX7HjBnj8aasdUqSIpIyYZFmOyEZxJsiNGmLsSUsWEURz4w/WGM1qINVmzEyDyy/8qIJyBz+XcL08IxUQwREQAREQAQOS4C1+Xr37u1P3FlyQCV7ErjxupYHXCnz2QOPDrXefR+wAX3vssYN6mbPyWpWmU4giE1EHGEZXbJkiYvPwOoXDAhR1KdPHxdwwbZof8eVlvVJieMk2RBCG+GIt0l4wY2WrLvUYR9utsH8cZENT3wUHMd+lqLhFV5IcnTPPfeEbzKSIrENN12OCxeWWEjPOuusg/o+6OD//8IYE8aiBvVoEysvL5XUEZAwTR0v1RYBERABERCBRAlwA4ULV7gLWaIVtTHmCbRsdtkBt8q/7LGhw63vwEfdilqXbL0HbkhVRCClBLAcknV327ZtHo9I8h7cRhFiCLbq1av7Wp3ERTZt2tQtcFgdb7vtNhsyZEhKu4m6egjUhFlxEw4yJXUSHpPa73BOrPD/ODzxUmJ1tC1jCEiYZgxXtSoCIiACIhBnBBCkjz32WJzNOn6n2/aGVrb/wPSfHP6C3f/IE2bK1hu/P4ZUzhw3UDLH4qrKOphz5sw5kFhro8cz4nZKIh/cR0m4FRSsc9TFUjpgwIBgs95FIFsRkDDNVqdTkxEBERABERABEcgIAt9894N16HrosjP/HrB6LVv+m/UZ8IiNfn6olS9XNiO6V5vZgACJeciw++2339r8+fN9KROy0yI2SdxDkqMyB5L4JFZIEoQ4vfbaay1//vyJVdE2EYh5AhKmMX8KNQEREAEREIFoIEC8EpYPXNTOOOOMaBiSxhABApUrneKtrFm7znglVVatXmOTp86QME0KUJxuJ8kP8ZKjRo0KJS8ixvLCCy/0pU1YbiSlhSy1KiKQnQlImGbns6u5iYAIiIAIZBoB1tq7//773eLB4vAq2YPAmZVPs6ULvrGff12c5IReHvumvfXuB0nu1474IbBq1Sr76aeffDmX559/3hMYVahQwWrUqOHLlLCu5ZVXXqlMrfHzk9BMU0FAwjQVsFRVBERABERABJIiwHIFZMk8XFKPpI7X9uglQCKW0ytVTHKARYsUTnKfdmR/Arjl/vrrr/b555/7+6xZszw+lGVOjj/+eLv00kuN6wNLlaiIgAgkTUDCNGk22iMCIiACIiACKSZAhsfzzz8/xfVVUQREIHYJbNmyxRMYjRgxwiZNmuTrVeLOX79+fReolSpV8sy6PNRIuBxK7M5aIxeBjCUgYZqxfNW6CIiACIhAnBBgsXgWa+cmVFbTODnpmmbcEGCdYtYVXbBggX3yySc2ffp0W7dunZUtW9Zq1qxpzZs3tzZt2miZkbj5RWiiGUFAwjQjqKpNERABERCBuCPAWoSPP/64kWWza9eucTd/TVgEshuBf/75x6ZOnWoLFy60L774wrPpEkt+3HHHuRCtXLmy1apVyypWTNrNO7sx0XxEICMJSJhmJF21LQIiIAIiEDcE9h1YNmT9+vV25JFHxs2cs8NEJ0+dbrt2/22NLqyd6Ln7ZdESe2rEKGve9BJrUK9mdpiy5nAYAitXrrRBgwbZxIkTjQdOO3bsMJZrQYT26NHDSpYsaUWLFjXc91VEQAQiR0DCNHIs1ZIIiIAIiEAcE+BGdeTIkXFMILamvv3Pv6xGvUsPZEfNZXVrX2B1a9VwYbpx02bjdWqF8j6hZSt+t6VLl9ltt99l117dzPrdc6cdcUSO2JqsRpssAdx0cctlfVHWCl22bJknLTrqqKPskksu8Rfrh6qIQHYlwMOXXLlyZXm2aAnT7PoL07xEQAREQAREQASSJPDuhEm2d88eu+n6VnZ188ssX968Xnfs62/b2DfesVlfTfLvlzSqbxfWvcBa3XibTfv62wNrUf57YHvOJNvVjtggsHTpUlu0aJGvPfzdd9/ZlClTPD6U9UWbNWtmV111lRUqVMhSs85oVsy8RIkShrcGyZhURCCtBObOnWuFCxe2IkWKpLWJiBwnYRoRjGpEBERABEQg3gnsOSByWDIiX758Vr78f61t8c4kmue/+cCN/L/791vJk06wMqVKhoba+urmdunFDUPf+XBEjiOscKGCtm379oO260tsEdiwYYMtXrzYPRtIXoSb7saNG61Bgwb26quv+v9blnTBHT/v/z+oiPYZMl6E6aZNm6J9qBpfFBMgqVfjxo3dRT0rhylhmpX01bcIiIAIiEC2IcCN4e233+5ZOl988cVsM6/sOBEyKO/ZuzfRqRUrVtR4JSy5cuW0ff/sM1yACxU8NuFufY9CAjt37vRM2d9//729//779umnn9qqVat8TVHWF+3Xr5916NAhy90X04MOEb3/wAMWxKmKCKSVAK68uXPnzvL/CxKmaT2DOk4EREAEREAEwggcc8wx1rFjRzv2WImWMCxR95Gb+K+/+d4++WzKgbjS863CyeUOGuOfB4Qn1jJiT4OCKL2wbk379vvZ1qXHffbk4/dbkcKFgt16jyICeC7MmjXLVq9ebR999JFNPZBVd+3ate6iWKdOHWN90RYtWngyoygadpqHUq1aNdt74CHL77//nuY2dGB8EyBpX44cOaLib9f/rrrxfU40exEQAREQARFIFwHWLr366qvT1YYOzhwCK39fZXv27LW169YfcNE9+EHChImf2ocff2avj342NJh9Byysvyxa6gJg3foNB7KxKvNyCE6UfGCN0WeffdYTGC1fvtxY1uWEE04whNt1111npUqV8mVd8ufPHyUjjtwwTjnlFM8IjmuyHoxFjmu8tMRSSEcccYT/X8nqOUuYZvUZUP8iIAIiIALZhgAuohT+yKtEJwEsA9dd09zWb9hkT4940b6ZNcfKlinlg127boONf3+izZ//00GD3//vfkPM4v75yfuvWc6cSn50EKAs+IKVkNfkyZOtV69ensgIt1aE55lnnmnt2rWz1q1bZ8HIMr9Lktbgtvz3339nfufqMeYJzJgxw+cQDQ81JExj/uekCYiACIiACEQDge0HEuOMHTvWk0fIchoNZyT1Y9j+55+2bPlvdsXll6T+YB2RoQSIoWRJlxUrVvhyLh9//LFNmDDB1xJFiOKme8stt3hmUSyI8VQeeOABzyI8c+ZMu+KKK+Jp6pprOgmQ/AvX98qVK9s111yTztbSf7iEafoZqgUREAEREAERcGvF119/7S6DEqax84NYvXptaLC/LlrisVZNGtYLbdOHrCWAGF2zZo1nzWWdUVx2iadkWZdu3bpZ/fr1/aaaGG/WHY3HcsYZZ7hAJ7OqhGk8/gLSPmcSg5GpGg+DaCgSptFwFjQGERABERCBmCdw3HHH2csvv+zCJuYnEwcTKFe29AGX3CNszGtv+U39rTe1tkubXGRNGl1oucJcdceNn2Bvjf/A5s6bZxfWq6Pzm0m/ja+++spFKJlzEaJYTIsVK2b33nuvJxnDXT54ZdKQorYbXDBZd/X111+3++67L2rHqYFFHwEe9LCM0v333x8Vg5MwjYrToEGIgAiIgAhkBwK5cunPaqycxysubeRiZ/YPP9quXbv8M0mNEsYHn3dOFfts8lTrd09Pa3Z5k0P2x8p8o3mcxEZitcEdHnH1+eef29KlS90t99RTT7UmTZq4GMVlV+VQAmSRPv/8823UqFGeAKpTp06HVtIWEUhAAGvp888/b927d4+auHn9BU1wkvRVBERABERABNJC4J9//rGVK1e69Y1F71Win0Dzphcbr+RK2dKl7MXhTyRXRfvSSID/L6+99potXLjQ49xYC5jkRaeddpp16dLFiBU977zzlGk2BXwbNmxojRs3tgcffNCqVq3q3FJwmKrEKYFly5bZTTfdZH8eiKuPpiRhEqZx+oPUtEVABERABCJLgCQSnTt3trJly9rw4cMj27haE4FsRID1RQcOHGhLlizxG2OWWjr55JPtrrvusqZNmxrZddlGBmWVlBEgY/Sdd95ptWvX9uvQ6NGjPfY2ZUerVrwReOKJJzyR2IgRI6xKlSpRM30J06g5FRqICIiACIhALBPIly+fNWjQwIg1VREBETDDi+Cvv/6ytWvXegKjMWPG2BtvvGG5c+f2NUbr1avnS72w3EmFChWELJ0EatWqZUOHDrUBAwbYoEGDrH///lauXLl0tqrDsxMB4knfffddGzdunK/ve/3110fV9CRMo+p0aDAiIAIiIAKxSoAEJD179ozV4WvcIhAxAmTS3bp1q98A//DDDzZnzhy3zhAH2apVK8PtFBddrHzxmkk3YrATNNS1a1ePFySZzc8//+xWVGJ0CxYsmKCmvsYbgWnTptljjz1mP/74o2ez7tOnT9QhkDCNulOiAYmACIiACIiACIhA7BGYPn26C9Bhw4b5mqPr16/3BEZ33HGHL2NSqFAhd9HFTVclYwiQvOvWW2+1/fv3W48ePaxDhw7O/plnnrECBQpkTKdqNaoJbNu2zZNi8RvYsWOH4cbbrFmzqIzdljCN6p+SBicCIiACIhArBHbu3OnZRLGc1q1bN1aGrXGKQJoI7N2715eZIKMxcWqfffaZzTuwpA7riRYtWtSqV69uffv2tbPOOitN7eugtBPIkyePYTnlRdz7Sy+9ZLhR33LLLVazZk3Pckwcb5EiRdLeiY6MWgKIzz179tjMmTNt1apV7tbNsjClS5e2999/35NjRevgJUyj9cxoXCIgAiIgAjFFgFg6Eo7wx1/CNKZOnQabCgLc6CJCf/31V5s0aZJt3rzZY0lZ1qVXr15+00t2WLmOpgJqBlYl3rRixYq2evVq+/TTT+3NN9/0eF5i4YnxpWBlLV68uD9QIFZeJXYIkFUXt3ks5GvWrPGBL1q0yB8aTZkyxa3kuM7zUIJlhHhwGs1FwjSaz47GJgIiIAIiEDMESOAyePBgzygaM4PWQEUghQTIpDty5EhfX3T58uXG2pklSpTwuOr69eu79Y3vKtFFAOt1t27dfFDt27e3LVu22CuvvGJY0Hr37u3byX7MMj2IUq3FHF3n73CjwTLKOsAIUx6OUipXrmyl/o+96wCMotqiB0IaIQkJEEJoCT30HnrvvYiKoggiqKCgqF8EpYgoUhUQRFQQEFCqgDQBpYfee+8t9JZAwn/nhQ2bkIT0nd29T4ednZ15774zu5M5c+89N08eXYqJKvFceH6toQkxNfhZCn0YgYiIxwa30jLmOTmmh0N6kZK3DPoyqiAgCMREgDd0vAGQZgwEeLPtoDxBbGEq7DQ1W3hEeGp2n6Z9R0REaA8owwEpYsR8tClTpujSLSQuDM1lDmnu3Ll1ndE0NU4GSxYCJoXecuXKReuH6slr1qzBwYMHwbJX0qwHgVy5csHf318rXbNUkLU3IaYGPYMnL9zFzsPXceDUbVy7GWZQKy1nloNDOhTJ646qJbOhYG7reApkObRkZEFAEEgLBMLDwxESEqI9DvSeSrMsAq7Ko5crp6824pvhY1LVmK07dun+AwsXSNVxUrNzEhLmSS9btgx79+7FkiVLtFetRIkSugxS8+bNUaNGDV1vlN5SabaDAB+q1alTRy+2MyuZiTUiIMTUgGft2q0wjJ19BJv3hRjQOuOYtGH3FazYfBGvNQ5Ao0qRNx/GsU4sEQQEAXtDgCFyffv2BZ9g9+/f396mb7j5Ojs7oUqlCvhn1Vr8OnVmqtrn7e2Frp07oEbVoFQdJzU637ZtG44cOYJff/1V54uyxAjz0Lp06aKFchgFwHxRqc+bGuhLn4KAIGCOgBBTczQMsr54/XnDkVIVEYWRvcpiwX9n8e/2ywZBCjhz6R6GTTuAhkG+KszIMGaJIYKAIGCHCLAeY6VKlaLyfOwQAkNN2cHBAa2bN9aLoQyzoDHMQ6Nnn7loQ4cOxerVqxEcHKzrXhKvKlWqYP369aKka8FzJEMLAvaMgBBTg539O/cf4ei5yORlI5mWM5sbHB3SI7u3SoxXYbSPwo2T98oc3D3HbqJkAWMrjRnpfIotgoClELh48WLU0KxxaGutQoUKekosm2GLjeUlWIqCgirSrAcB/tZ27twJekMpfEMVT9Y2pDf05ZdfRr169dCuXTtd6sV6ZiWWCgKCgK0hIMTUYGf04aMIXFehvEZrZy/fxYBJe5SAhBJFMBApJU6kyJeuP1D/CjElHtIEASMhsH//fl2egLmXDHVlyQJTo7CKNOtCgMSU+YU+Pj7acJahKFCggC6P4+fnZ12TsQNrmS/KuoUsH7F161YtkMKw3I4dOyIoKEifu/z589sBEjJFQUAQsAYEhJhaw1kyiI1Xb4QaxBIxQxAQBIyMwMqVK3XO2rfffqvrqlHOniGEXAJLlYkyvWhQ1ah1WbEOBI7t34vzV87qOpa0mOGfrIFI8ZQPP/wQRYsWxSuvvGIdk7FRK/nwZ9CgQZg2bRoeKjViLmXKlNE1dvkggQqeTk5O+tzZKAQyLUFAELBSBISYWsmJc8yQHivH1rYSa1PPzGlLT2Li/GOpN4D0LAgIAklCgCUmmK82fPhwrerplTUb/PL4o0HlGmjY9mVk9c0B72yRXrYkDSAHGRKBAzu3Yc+WTdivXidNnoKb10J0KRGKP5UsWVILQRnScBsxiiG5Dx480Hmh9IpOnjwZJ0+e1OSzUKFCOkyXNUZJTKU+pY2cdJmGIGDDCAgxteGTK1MTBAQBQSAtEGCh9pkzZ2LChAlI5+yKd/sOQp4CBRFYuhxcM7qlhQkyhoUQ4DnmwrZ/+xZcOHsGOzeuQ4sWLdXSHMOGDdPlRSxkns0OyxB5EtFZs2ZpJd2NGzfCzc1N54myzmj58uXh5eWFPHny2CwGMjFBQBCwPQSEmNreOZUZCQKCgCCQZggwb61bt27gjXLVBk3wyjs9kSd/wTQbXwYyDgJFy1YAl2oNGsPNwwPzf/tZe+/oPW3ZsqVxDLVSS65du4bRo0dj165d2LBhA0JDQ7W6bq1atbBw4UIUKVJEl3WhOJU0QUAQEASsEQEhptZ41sRmQUAQEAQMgMC+ffvQvXt3nD53Hl0/7Y/mr3Q0gFVigqURcHZxxdt9BqB4uYr4Y9IPaNO2LebMno1WrVpZ2jSrGp+quWfOnMGePXvAfG2WeLlw4QKyZ8+uSSjVdDt16gSWKZImCAgCgoAtICDE1BbOosxBEBAEBIE0RuD06dNa2fPkmbPoOWgoKtdpkMYWyHBGR6Ca8qAHFCqCrz54R9fMLF68uFaBNbrdlrTv0aNHWLdunc4ZJSFdsWKFqtGdTpPPNm3a6PqirJUbGBhoSTNlbEFAEBAEUgUBIaapAqt0KggIAoKAbSPAkMJ9+w/gnc8GoHy1WrY9WZldkhHI6Z9Ph3d/1ettHYb6zTffIFOmTEnuz1YPpGd01KhRmoheuXIFV69eRYkSJbRHlJ5mX19f5MyZE66urrYKgcxLEBAEBAEIMZUvgSAgCAgCgkCiEFi0aBGmTp2KyrXroclLHRJ1rOxsfwjQc9rytc5aHKtZs2Zo1KiR/YFgNuP79+/rEi6s60vRooEDB+Lo0aNarIhhue+88w6opFujRg2zo2RVEBAEBAHbR0CIqe2fY5mhICAICAIphsDdu3cxb948PFTlYRq/+GqK9Ssd2TYC7d58Bwd3bkfnzp3BOpv22FjGhQSUv5/Lly9j+fLlcHFx0SS0ffv2mrB7e3tLuLM9fjlkzoKAIKAREGIqXwRBQBAQBASBBCNw69YtHDp0CCUrVEKZKtUTfJzsaN8IeGXJiuqNmuGXkd9g586dKF26tF0AwrDcSZMmaREj5o4yRPfixYuajE6cOFGT0AIFCsDT09Mu8JBJCgKCgCAQHwJCTONDRz5LNgKPHwNh4Y8RwZUUaLovpHump7BHj3H/YcQz2zOkTwcHtaj/pQkCgkAKIMBcuE2bgjFu7t8p0Jt0YS8IpHdwQOW6DbDw9yno27cvFi9ebJNTDwsLA0N1N2/ejM8++wwhISGalNIz6uPjg//9739ayTpDBrn9sskvgExKEBAEkoWAXBmTBZ8cHBcC1+6F4/i1MGw6fgebTt3DdfU+JdqFK/dwNoNbtK6oWPjl2uv4Yfe9aNv5JjC7M7K7Z0AhHxcE+bvBV61LEwQEgaQjMH78eBQpVQae3lmT3okcaZcIZHTLBK+sWbFjxw7cuHFD19y0BSBIRllb9ODBg1pRd86cOQgPD9dCRfXr10fBggV1qRyqEksTBAQBQUAQiBsBuUuPGxv5JIkInFCEdOCSi9h88i6OXg5NYi/xHObwbPHw6+fUOFxitBX7Izd4uDigon9GDGjmh4q5RdUwBkzyNoURYH1PekqooFmhQoUU7t2y3R07dgwMy3RWHiBpgkBiEMisvjctXu2E0f0+AgW0OnSwbuEslkz6+eefsW3bNh3efuLECRQtWhQs60KRpyxZsmhlXQ8Pj8TAJPsKAoKAIGC3CAgxtdtTnzoTf6BCapuMP4bjmpA+VkG3phjayPXHMIX0cnvkOvdJ2vanfePJSJH9xNz+GLcfPMLKg7ex98IxzHsrH8rlloLkqfMNsO9ep02bhi+//BIPHjyIAoIhfCNHjkTTpk2jtlnzytq1a/Fajw/h7pnZmqchtlsIgew5c4O1Oi9dumQhC5I/7LJly9CrVy/tIWVv7u7u6NmzJ6pWrWr3isPJR1d6EAQEAXtGQIipPZ/9FJ77jfvh6DzjDE5eCX2S02kiiBwocv0pUX26LXLt2X253Sujo84dDdX5o0/3SVw/T/e+cusRPpp/Hn909kc2N/n6E2NpyUfg2rVrukbjggULopFS9kyS+u6776JMmTJaBCWrCmW01kbhFuYKirfUWs+g5e0uWqYcGPpKhVqjN4bj8jvPvOqFCxdqm6moy/zQUqVKoWbNmujYsSOopFu4cGGjT0fsEwQEAUHA8AjInbnhT5H1GDht2w0s3X3zie8yFrvJK591mEZy1ji2/9whL+6GhmP0v1ewQ+Wq6mbeTyzDRNtkvu+T9eBjd/Hn7lt4t7J3tF3ljSCQVAR+/PFHTJkyJepw3rj6+flpr1BoaGSIOfPqRo0aha+++ipqP2tbYYiyk5MTPLzkt2Nt507sTTgC9Ob+8ccfuqRLcHAwGL5OIl29enUdEZE/f35UrlxZh+omvFfZUxAQBAQBQeB5CAgxfR5C8nmCEVixl6SUDJMMkC3G+mOz7Xr9CRuNY71YLjc0Keque5qriOTOU3fVuupDHxaj70SO+c3iC0JMNbLyT3IR+OeffzB9+vSobgoVKoTZs2fDQXkWI1StzyFDhmDGjBn685kzZyIoKAgtWrSI2t+aVqg06uyaEdl8/azJbLHVYAgUCCyqvZCMNKC30Sht/fr1GDhwoLaNZJS/X0Y4fPzxx7r+qrOzs647mj59eqOYLHYIAoKAIGBTCAgxtanTabnJnLnxEFfvPgIVcp+2563H//kDFb678cRduDql16Q0cX3Titj6j9x2LywCwafvISiP5Jo+PV+ylhQE9u7di3v3Ir35NWrUwHfffRetJuHnn3+O/fv3a9VO5tZRKMVaiSnt5088vdRfSspXRY55ggDDwUn6HqdQGbGkAGsKJ2ZN0fnz5+uIB25jTjgfHtWuXRtdu3a1m3qrScFQjhEEBAFBIKUREGKa0ojaaX83H4SrXNDHKrfUnAwmD4yTSkCp2Q/HkVnlgl678zBF++b90KnrDxUxTZ6NcrR9I0BCeuTIEV0agkgEBgZqIRRzVKjMS+EjlpNg4/63b99+Zj/zY2RdELBlBHxy5MLNmzf1Ax0q16ZlY77o3LlzceDAAWzYsAF8sMT80Hr16qFx48bag8sHTJkzi7hXWp4XGUsQEAQEASIgxFS+BymCwJ3QCIQqRd5nwnejvJaxhd5yGxvJbOzrD8MjcOVWmNk+JuIbW3/s63nbI8d5KofEY6QJAklDgMJGd+8yxDyyeXp6wtHR0fRWvzLsLyAgQBNRElLTMVTylCYI2CMC3tmy4cyBi88IhaUmFkuWLMHQoUNx9OhRLWjEB0Zvv/02PvzwQ62k6+bmhkyZMsWI+klNi6RvQUAQEAQEgZgICDGNiYi8TzICdJYmLtzWRDI5ZFqtPxnHfLgkz1gOFAQShgDzTSUvLWFYyV6CQHIQoJIuIxlYR5hklKJjzAHn74+CZOXLl9c5o8wdFSXd5CAtxwoCgoAgkPIICDFNeUztt0fFTJPtiSRhNDlPUxFJEmjhpqkIsHQtCAgCgkAaInD58mWwvigJKcnopk2bcOLECU1Eu3fvjqJFi6JJkybw8fFJQ6tkKEFAEBAEBIHEICDENDFoyb7xIpAuSl3XRPnIMKleaGKa5qwzjvWoPjhUHPs8sz3iyb48JjFjcn9pgkDCEejduzdu3bqFCxcu6IMoBnT27NmoDlgyhl6amI3H3LlzR29mbhtrH5qH/DZs2BDvvfdezMPk/XMQiIgIx63r13RtVQ9PL4ZsRB3x6GEYbt24jkcPlWCTEmtycnGGWyYPVYMyMtT68eMI3L19R4nwPEJGvV3+HEaBZ0UrGzduxMSJE3Xu9u7du8HfJPNDSUZJRLOpsOEcOXJolWwrmpaYKggIAoKAXSIgf4nt8rSn/KR5OxgZyhspo++V0QFda2WDg0FU9fdfeICNh+/g0u1HevIGMSvlT4T0mCoIUK2zQ4cOYE3D+BrrH3KJrzHM8ODBg9F22bNnj1buHTNmjCJOclmOBk48by6ePYOvP+wOHxWi+cHg4cjk4Rm19+Xz5zG8zwfYs/XpOSsQWAyden+KMpWqKUVYYM4vExD870r0Gz0efv75oo5NqRWqzobev4/79+6o2q9eihxFzz9OqXHspR+STj7k4cLawcuXL9fiRfzNlCxZUivpDhgwAGXKlLEXSGSegoAgIAjYFAJyB2RTp9OCk3kSGkuC6uyYHmNfyoUmxYwl7nLp1iPU/f4YzqvSNnS6SjCvBb8vVjY0PTHmntHUMH/79u1aKbREiRKp0b3N9clcwt2bN+LkkUO4evE8Thw6gOLlg2LkuQNFy5RHfkVIwx7cx9kTxzHqs4/Qa/AwlKpYOdUxuXfnNub++iPOnz6Jd/sNhntm5dWVlmgEGKGwZs0aHDp0CAsWLMDOnTt1SG6BAgV0neDs2bOjWbNmoqSbaGTlAEFAEBAEjIWAEFNjnQ/rtka7TAG/zI7I4Wk8z4CzYzoUyO6C8zcVMY1kptaNt1hvUwjQK3vt2jWbmlNqToYhvBv/WQpP5Ym8p5SRt/y3EoVKlIKzi2u0YavUbYB2b76tS/ocP7hfe1G3r/8PhYqXjLZfXG/o9byjSpvcvHYVHt7ecHRyxoN7d1X4r7sei5/fvX1TkeOLKiw4HFmz+yoC6q3Ge4iQSxdx9MA+HV4aciXSk24ip+HK+xdy6YIK8b6NLFl9dN/cdvvmDTg5u8DN3UObFBb6QG9zc/eEi1KSNY1H76G7Z2ZFxNPjxtUruK4Whitn9fXTtThv37qJ8EfhyKSVop10Xwxfvn3jhsbCXW3P4Bi5Pa65W3r70qVLdX1RKumSlDo5OeG1115D+/btUbNmTZCQ5skjNb8sfZ5kfEFAEBAEUgoBIaYphaSd90NPqUrj0rVGnTKkg6NBv1nkzqy1SltpszRBQBCwPgQeR0RoD2nwf6vw1sf9lEfyBLasWYUGbV5CrnwFYp0QCWU2FfKbxccXd1QoKInd89p9RXiXzZmJ8UP66zxWN1VOJHe+grimSOaHKnS4hPK6khxPGj4El86dVaQxArkD8uO9gUMUQc2BUZ9/gn3bt+hhtq1fg1YdOqHLx31x5cJ5TP9hFP79e6EmiXmUze8P/BrZ/XJjRN/eyFeoiA45Tp/eATs2rkW/rh3x6bDvUatpK5Uz+xA/ffuVChG+hzc/+QxLZ83AvKm/4IF6T9IaVKMOuvXtj10bN2DmxLHo9eW3KBVUVXuSSV5H9PlQE9p3+g1SpD5ta4jGhTftjlDn9KGaG8kol19++UXPh2SUUQRz5sxB3rx5UahQobi6ke2CgCAgCAgCVo6AQemDlaNq9+aT8hmb9pGgShMEBAHrROC+8lhu37AGOfMGoEyVasiRJy9W/jUXe7dthm/uPM94Ah8rUTSG1e7ZHIxTKvS3ePkKz3hWYyLxUIknrV22CPN++xnN27+OijXr4Mzxo1j4+29Ruz5WHtKrly+hUp16KFe1piKslzHn14lYvXA+Xn23lzruNe1dpShbs/YdEVC4qPZ+/jzia1w4cwrv9R+i7Vjyx3T8+fMEvPVJPxQoWgynjxzRXloXVzcc2rVTj3dk3241TgNFqm8qYnsOlWrXVw/YHHR/HdRYAYWLqPlvwaqF87A7eBNKVAjCPwtm48COrTrEmeVSTh4+iGPKg9vt0/7IpDywlm5U0D1+/LjOy963b58O06WSbmBgINq2bYtKlSpp76go6Vr6TMn4goAgIAikDQJCTNMGZ7sYxURHjcz5TDYanTjbxRdGJikIJAUB5V27rIjZruANiqjVR47c/ipcNbMKzS2FrWv/RYWadZVXNHtUzysVUTu0Z6fyKKoc0+PH4JfXH1XqNnouMSWR3bJmNQqr8ODX3/9IiRd5KxJcHRmUB2/u5J90//RoVm/QBM6uLor43tWhtjn9A0DhJYbJlq9eW3ty6eWs0aiZDqvdrjynh/fuQts3uqKs6o/XojsqfHf6D6Nx/tRJRUyLY/u6/5QX+JSex94nHtcj+/aocOIQna965eIFBBQJ1GJPbTt306831GcFHzzAplUrtPe2ZuPmKrS5tBprt+7fJaMb9iuS6l+wMALLloNDBocojCyxQgLaq1cvMEw3NDQU7u7uWq06KChI1xdljVGp/WuJMyNjCgKCgCBgOQSEmFoOe5sbmV5IXR/UyMxU3QSaapga2kyb+3bIhASBlEGAIZ9HFUm7cOa0JmTTxo7Q4bAMU72gVHrPnjgK72xPa1VSFIkLyWrLVzuiycuvwVPlgD5UOb3xtbu3b+kc0Qo1a2tCyX1JNkk8dWkablAXvRvXr2LyF9+CobrM6YxQ4bylVYgv7XRwiE7+uO3i2dPaToYHT/h6IHvRIcAUc7pz6wbyKuJ4//4DHFHkNTR/QbhmzIiPvh6B1X/NU8T1BA7u2QWfHH7wzUXPsCOO7t+Lyd99q7y5x9iRHrdc9ZoqF9ZJhfBWwT7lRT517LAOE96lxKLKV6upw4wt/XDuhsp1valyd+kdHTVqFEqVKqXxEjKqvxLyjyAgCAgCdomAEFO7PO0pP2mSPKrcRr5a+pYn9vlp29Q/fGWOqTRBILUQ4M11JpWPeFfIS8OuAABAAElEQVTlKJJwSEs5BO7dva29pSRlN5VY1I5N63XnDqpkCIWC9mzZhMDS5aIGbN/tPbRUuZ3uqrYlRYUS2h5HPFb1T9MrsvT0zyRzSMMehCIsLFR1ozy358/hR0Uur125gpe79tDqv2uXLsTN69fjHIalTTyUh7dh63Y6H5YPytg4ln/BQE2gS5SviJ1qXpdVLmo2RULLVqmpck3XYavypB4/tF8pCldRNVndEay8o9/3/1SNW1yR7jfglTUbZv44NrI/1a9/ocJKpCkTtq75F/mKFFPiQc4oXblaVC1XvaOF/mFJl1mzZqFgwYIWskCGFQQEAUFAEDAaAk//4hrNMrHHKhHgPZbpRsuIE+AtYKR9JhptRCvFJmtGIEeOHGjdurWupUiPEL1B586ds+YpGcp2ekpPHz2Cpi+9ivqtXox80qQsfPQwFFPHjsLerZvRsO1LUTa7qRBRr6xZlXhR4v7cubhlhKubm/ZIMqw3k0dmVY/0nuo/+InQELToUoiqW9uhxweorkJ1b4Rc1TmeEeERkeOrC0565TV9pMKII5Q3k8JrOfIEwCtLVuTKXwANWr+kvZ6PHj1UJPes9mRy/2KqxM0PyqN6QuXDtn79Te0B9lMhy8vmzlJe2Yd4scu76jqWXocoe6gSNF0+/gwBhQLBPNRQFc5ral5ZsqFctVr4a/pkTWwLFiuhQpkDTB/LqyAgCAgCgoAgYCgEEveX2lCmizGGQkAT0iekj+zPqC3KTmWgke00Kn5i13MRqFy5Mj788EM4Ko8eGx+E9O7d+7nHGWUH1mwtWTJhpVTS2mYq6e5SnkSKH5WtWkMLHZnbEFSrLmZOGKPI5D7kKZA89VZ3RURJEP/85UdMGzcKhYuXxmZVkmbNssW6JAyvH87KA0vv6caVyxVhfIS1yxcj+N9VKFGuojaLob9Uvl27bAn+XTRPh98WKVVGh+v+OnIozp08gXyFA3Fg5zZNKLt+OkARYA/kL1Zce1UdVA4rc07pDc5frBgiZkdooSfOzcHRAcwbpfjSWmXTbuUp/nvmNBW2e0Tn3tIAKhGXrFhJ5cRO1HmnrV97ExndMplDJuuCgCAgCAgCgoBhEEhvGEvEEKtHwOQpNTLfiww2JlmwerhlAgZF4N13340ipTSxbt26BrU0drOmTJmiRWf69++PgwcP6pzF2PdM+633leeS4bPFywdpRd6YFhQpWVaJAhXTuZj8iedUQkeZvbM+iZKIsbe6CHh6Z4GfUvRlWHDM5uTsjDotWqNa/cZKwOhfTFXk9IaqZVq7SUvtrdRkMbAEGrdrj2MH92H6+O+UWu5FFC9bQZFHfy0u5OKaEdUaNtV5qX8pNV/mumby8ETL1zrpOqobVSju9PHfKzXdrSioxJtcXFy0rSwbU7VeIxRTBDdH7rzatDz5CqO4el+pTkM1pywqLNcFtZu1UuVhauO/JYu0WrC3j4/aJygyx1bNj9dk35x5FMGuAB+/nChQvMQzea8x5y3vBQFBQBAQBAQBSyEgHlNLIW+D4/JGkE86TOTPiFOMtFHCeI14bmzFpuDg4Gh5c+vWrbO6qbGu5KBBgzB9+nS0atUK7dq1A9VSLd0yunvg9Z6fPCF9rs+Yw1IxPQcN1SJATorkvdN3kA6lTac8jzFbBlVsuW7Ltqo2aEtNFmN+zitZthw50f3zL3FdKd5GqFxhhvYunzMLRw7shZuyxVmN0bZTN9Rp3kbVRX2oS7BwXIocUbSIucbMdx029U/cVbVTme/pkMERJRSxzq9Kx9y8EZmLmkn1RWVhk/AP++Y8mcdKcstGNeEPBg/TOa+mXFkKIPVQ9U9vqVxb5qhG1iVVIcMqHJiKwTyP10Ou4KgizjUUQfZR8+G8pAkCgoAgIAgIAkZEQIipEc+KFdoUdavzxBUZ9d5Ic6FtNOyJcQm18ezZs1i0aBHu3LljpNmILWmIwIULF3BLEYuEtG+++QZr165FZiW2w2PWr1+fkMOUEut9zJkzB1u2bEnQ/s/bid/b60qEZ9u2bRg+fPjzdo/6fOXKlVHrx44dw4gRIzRBbdSoEXx9faM+s8QKVW4Z6hpXIxkzD1XNkOlZT6jpWOZouisyGFd7pOqYMnSX4bhFS5fXu+3ZFoxFM6aiTOWqkeG8aitJYvacuePqRnstWTPUvG4ox3ZTnlMusTV6OkmCzRvnnlEJHsVsMfs2fc56p2GqDMuGf5bioXqtWKtuFMk17SOvgoAgIAgIAoKAkRAQYmqks2Hltpg4n+amCWV9aTznKBsTMe6pU6cwduxYkJxIs08EqKTqrEI7TeHq8aFw+/ZtLF26NL5dYv3snhLWoUop8yhTounyI+phyqZNm7Br164EdxkWSxmVixcv4o8//tChpgqEBPdlzTs+VsZfVfVC//h5Aq5fvaoVf+kFLVi0BFq/0SVeUmvpedNTemj3Tgz7tJcShXqIl7q+iwJK+IheVWmCgCAgCAgCgoBRERBiatQzY3V2ReYz8cbd2KG8kXZSHTOh99ess/f999/jgZnapdWdHjE4WQjQc/jLL7/gmgqZTK3mrtRj33//fRQtWjRFhjh69Ci+/fZbVKpUCZ07d05wnzNnzsTUqVOj7d+wYUO0bdsWZ86cwZgffoj2ma2+yaBCbms1baVyVovi+MEDKn/0PHLny49yVWsiS/bs6vphXJLH63AOlTtL9d6AQkUQWKacerDybOizJc8dI1DkmmrJMyBjCwKCgCBgPASEmBrvnFitRSR6psWok4iyLxFOH29vb9SpU8eoUxK70gCBrVu3YsaMGak6kpOTEypUqICaNWumyDgM4XVT4aABAQFo0qRJgvs0D+WtUqUKhgwZgiJFiiC7ImNff/11gvux9h1J7jy8vFU+aCW9WNt8/JQAU5s33jKs2SdPnsSrr76Kbt266ZzsBg0aGNZWMUwQEAQEAUEgbRAQYpo2ONv8KDF5Xsz3Ng+ATFAQsBEEqAzLWqyMEnjhhRfSfFYMQ32oSrCEPwrX+eDMrWSeJ4WAzp44hvt37yF/0WKgRzMhjaJFZ08cx4Wzp8A6nt7ZsifkMNknlRHgeT59+jQ++eQThKocWKpXFyxYEAMGDNAh43yokpDQ+VQ2U7oXBAQBQUAQSEMEhJimIdi2PlR6FcSrF7olTQpDBps0w4xNNgp5NtjJEXMMgUDXrl3x1VdfWcyWsNAHWDzjN2xes1rV6nSEd5asumwKa5Ru37AW50+fRJ78BWMlplTDDbl0Qefp+uaiIFE67N+xBdPHjUZeFdKa0z+fIqYWm1qqDUyRowsKF69sPvDI7JVq46RkxyVKlMDQoUNx8+ZNnQNNkbDZs2frPOuyZcuiadOmWgk6d+7c8PPzS8mhpS9BQBAQBAQBgyIgxNSgJ8YqzVJMT3NSAxtvCuWNJKVCTQ18qsQ0CyGQN29k3UwLDa9KnETgysXzqrSJH8qqfM7Tx45g0e9TlKqthyrZEhGvWfS0/rdkIdxUWZaGL7yMcLX/4b274K9I6avdeynF3mdVbePt0Eo+vH71Mmb9NBatXo8UZbIWT6O/v7/2ktIzf/78eVBobu/evZg8eTJ69+6NPHnyIFu2bChfvrwOcWfZImmCgCAgCAgCtouAEFPbPbdpOzOSUjWiaUnbwRM+msk+vjI0UJogkBAE0upGP63GScicLb1P7nwFUbV+IwTVroe7t2/iqvKERkSo8F7VSF7PnjiKFfP/xA7lRS1fvTZavNYJ+zYHY+mfMzQxDbl8GV5Zs2HVwvm6XEoWn+yo06KN9izO/HGcUtq9gmavvIbaSuCIntkNK5bqUGFuz1ugkAofzoD7Sin54pnTuHf3Dhq1a4/L58/h75ksF1MDTV5+FZmzRHe/PlSKxiwxM3fyTwh7cA8vdu2BoFr1FEEOx8oFc1QY8h3s27YFbTp1RYkKQVECSiztsvKvOVillkLFSym7OuLU4YNwcnVF+Wq19IV1zd8L4ZvbH4VKlMT+7VtV2ZrfdF3Umk2aY3fwJmxctQJhiphXq99EY3by0EHM/HGswu0imipb66paqw4qj3nTyuXa6xz24D7OnTyB+m1e1FdCzsvDKwvavfm2Ek7yT/MwWnpFuVSuXBlvvfWWPs99+vTR5ZYmTJiA8ePHo2fPntqTOm7cOF3zlXVfTbVf9QHyjyAgCAgCgoBVIyDE1EpOH/Nx/t1+2bDWHr0WjtAw5c1QLklD31w/cZnSRv4nTRBICAIBAQEoWbIkzp07l5Ddk7QP1XgpMiQtEoE7JKOqXMul82eV1/QoAkuXQ8iVyGtguCqpc3jvbpw6ckQRvMqqVucyeCpSFVC4CLL65oC7qg+aJ38BXfcza/YciiTeV7VGcykCt1ERuima4OUKyIe/pk/BjZAQNHnxFZw5fhQLFdmrUKM23L0yY/v6tdi9ZZNS4a2OMypH9Yu3O6FIqTIoVakKtm34D37+/qjZuEVUCRbmsm5UNUOXzJ6hc1l5eWH/4Y8eaiXf7evX4PyZU6hSpwFcVNkZdUnn5RL37txW+/2KXcq2UkFVVX/pFBG/jTOKNFIQq2yVGvqaekIRVQdVtsjBIR2mjRuptlfHQ1UK5uGDUPj45YSHpxdyBeTXObQ7N6qw2F8mwDdXHhW+HIC///gd10Ouoln719VcjmH+1F/U8dVUnd2bGPR+V+RRDwFKV6qsbNikCPJcRU7f0TZa+rtoEttiHWn+9qgYzRrBGRV+DPcNCgpCjRo19G+T3lVXReSlCQKCgCAgCFgvAkJMreTcPQp/jC8m7jGstWGOzrjpmQXpHDLwfsyQjXbpRf3DG0LDGmpI9OzbKCozf/rppzq08IgiQyndAgIC8Morr8DHxyelu7ba/lYtnKeI0gZkUOJHpStVQ/FyFbFuxRI9HwclfFSsXAVVS9RT1xg9f+qE8myeQs2mLTR59M7qg2oNm6gano9wbP9e5fm8i6JlymPa2FGoochkoxfbqxxVJ+zctE6FCf+mPbOMoKhStwE6ffgpHJUH9cCO7Wj28muazB07sA+zVT3Tl99+D/kDiyvC6KpJc4Ty3DqorHU2elV3Knvrt3pBjdFcbUmH5XNn4ei+fZo8e3p5qe3NNJnltcdUbubyhXO6r66f9EM+1Te9wvS87ti4Tvf77D+8eAFZfHyVZ7S+8g674+K5M1i3bDEqKdKbK28+TB71Dao1aKo8pR20cNTuzRswb/Ik3GwQoo/lPDv37oPbN27guy8+0XOsXLchglf/g+B//1FiRA8MQUy1seqfZs2a6dXWrVtrgrpz507MmTNH56SyxnSZMmXg7++Pli1bImfOnKhXr57pUHkVBAQBQUAQsCIEhJha0clKS1Orl/aBX7aMzx3y6Nnb2HYgRHM8E9cj6Yu8dXru4Wm+g8lGDmxUG9McFBkwQQjwxvd///ufIg7x5zkmqLMYOzEckeqz0p4iULVeI50nmk15QJkbSo+kqTEkdsnM6Zg9eSJqNGyKm9dCkE15RhlZElt7rEgnyd6tG9e0R9VREdt0CnNvlb+YXnkoKR7Ep1WZldCSE+t9KsKZXp0PCglR/TdjJjddOoYkkNEWjsqTSfJmPtxD9Z4hx+zDQT2goyVcP3nkoPaaOrm46lBZHVHCi+STdkeJ//Bq5JHZW/etj80Q+zwY5ZEvsBhatO+IKd8Px+JZ09Cj/5BonkLm2d66fg2lK1fXBJvzZEhz+gzplc331ViP4aketDg5ucA5owvcPDLDXY2dXtnsrDyOxDk1vuOm+SbnlQ9uuJCIstQMQ6SXLVumawzPmzcP9KwSX5b3KleuHAYPHpyc4eRYQUAQEAQEgTRGQIhpGgP+vOHcXDIgn18m7Dx8/Xm7ptrnPt4uaFM7F8oVTpi64+BfD2DxdkVOVcF5Kt4aOUSWttHK9GY3hqkGpHRscwiQPAqBTJvTSo9gLqWi6+jkrAc05ZeSWFHsh4Tv28l/qLDc3NqbGa7CWklK0qd30KTxwf37+prEg/m7d3J1QVYlqLR/+xYUVWHBTqoszrEDB1R4rCKebplUt4+jwnKfzvApgdSXDNNb0+vTHRXJy6g8uJlxVHloCxYvqUc9d/K4In2ZFUGMnEMshymy6qXDeU8dO6xCiL2UlzdyHpnc3XHu1AncVsQ19P49XDp7BgWKltD7llThxP0KTMRv3w3DmiV/oU6z1gqVx3igcmLZsigyv2/bZhQrWwHOap7HD6p5ps+gvKse+nPzx3LR5qVwspbGMGe2Vq1a6eXEiRNYvXo1NmzYANbw/eGHHzBmzBg0atRIe1JZI9hTedglKsFazrDYKQgIAvaIgBBTg511J8f0KJHfE8uCL+Du/UcWsS40LBwzlp3C2h0Jy2ndsv+qslPd0PAhv9Hva2hfOpOhRjfWIqdfBhUEDI5AOmRUCr1eqh7pb2NHwNnZGft2bEUtFaLLHMycef3xlwrPvXLhvBZEipxMOrhmzKQJ3IJpv2LU55/A0dkJj8IeopFS783snUVdF3gNM/NUJvLy4JrRTQsPMcd0zMC+yukaobyvzk/CaR3jvDYyP7RY2fL4e9Z0JeY0W9fwpKJwoRKlde7smAGfgiSbZXKqKDGoQ7t2YvEf0xTZdcLVyxd1eLCH8oBmy5ETs5TYUS0VzlxFeZuX/vk7RpvNs0HrF+GlPLixGZLIqRry+xEQEAAunTt3xsmTJ8Fw3wPqwQNDfrmNOdy+vr6oUqWKzklt0aKFIechRgkCgoAgYM8ICDE14NmvUSYbMmV0xMdjdljEupt3HmLz/hC1JGJ45RHgfR09E9GfwCeijzTYlTdg2sY0GEuGEAQEgcQjQA9pU5XbyXBZEk1TY4grFW4fKO+hj1JvfaPnxzi4azuUixQdun+gcyLdlOezav3GyJLdV3sPM3t5o2aTFjo01dnFWSvevtvvS5w4fAAMoc1bsJASRcqtrlnpUFt5HXl9cHRSJFIR1CbtXoGr6o8hvdn9cqF1xzd1XifDrqs2aKz7NPeeM2KkZFAVVS+1ME4cOqC9tvmKFANDkRkey3xVTxMBNk1Kvbq4uqHxix1QvkYdHDu4F07qWponfyFFpN3wTt9B2jPsroSNPJTnlZ5Q14yucHFzVfbf0jhwX2L2es+PcHDndk1Q8xUORL7CRfU8mUeat0BBZFdCSJxnraYtNWkmMXdP74UOPXqpefnpkOaCxUvAR+VosjSPNTd/f39wad68Obp164b7itgzrHf//v0YOHCgDn3m58xF/eabb7TIlDXPV2wXBAQBQcBWEHj6V99WZmQD83BUuUBBxbyxalwdRQ6v4ULIA8PP6sytCMw68AjXH6hwOP2fMU3mjdnTxZg2ilWCgD0jQAKaK6DAMxAwVzJH7rxR2z2V9y9Iif3EbC4ZM2ixJNP2TCqH0rxlUoq9JcpXMt+k1/3y+EfbZm6Dq8pxzZO/cNTnPjlyRa2br5DEeinhJS7mjeHFLH8TV8ugxJY4N/P5cV/WX+USs5WsUCXmJmTJ5qtIeZOo7RmUR7V4uaCo96YV8zGcnB0QUKiY6SOtbEx1Y1tpfHBA4TI2lpthW7BgAY4fP45Jkybh99+VV3n0aF2ihnmpjRs3Br2uPIaeeGmCgCAgCAgCaYuAENO0xTtRo2VQZQGqlLCOm4QdZ0Ox6ORl3HgQFukxTdRM025nekS4KL0TaYKAICAICAJ2hgCVe9mogr13714EBwdjyZIlWkCJXtWaNWuiePHiWkApa9asuhyNnUEk0xUEBAFBwGIICDG1GPS2OTC9kYZuyjyThaZXQ9srxgkCgoAgIAikOALZs2cHl7p166JTp064c+eOrpE6f/58jBs3TntT6TUlUWW91A8++CDFbZAOBQFBQBAQBKIjEFmALfo2eScIJBoBkjxyUh3Ga2ByarLP8AQ60WdADhAEBAFBQBBICgI5cuRAwYIFtUjSX3/9hZNKPIm5qBmV0vLatWvRr18/nYfatWtX7V0NCQnB7du3kzKUHCMICAKCgCAQDwLiMY0HHPkoEQhoUsr9mWNq5PbEPiW+aWw7jYyh2CYICAKCQNIRuHblCtxVORwXVcrGiC1v3rx477339MIyNCtWrMC+ffvwzz//YOrUqahUqZL2tr744ovIpmrhVq9e3YjTEJsEAUFAELA6BISYWt0pM67BJHqsDxpJ+IxJ+yKFj57kmBrTROOeYLHM7hFg7l3Yg1BVR5QloqQJAklD4PKFsygc4K89kknrIe2OCggIAD2lEar8z5EjR0BvKUN9z549iy5duiBTpkwoVqyYFlAimfVStWilCQKCgCAgCCQNASGmScNNjoqBADneU7VbRU4NSvp0uDHJsybQBjUyBrbyVhAwCgIeHh7qBj0cYWGhRjFJ7LBCBA7v3YMGtWoiSxbrEPcjxCwTVLhwpDIza6GyMex327Zt+O677/Dvv/9iwIABqFatmi5T065dO+1VdWLZI6UOLE0QEAQEAUHg+QhIjunzMZI9EoiAJn1qXyPTPU2gDW5jAuGW3QSBNEfA19cX4aomJ2uJShME7B2BFi1a6FzUY8eOYcqUKejevTuuX7+OkSNHgp5Whvp+/fXXWLVqFbZu3WrvcMn8BQFBQBB4LgLiMX0uRLJDghBQjE+TPhPzS9BBltnJWuy0DDoyqiAQNwL0GD0MC8PtGzfi3kk+EQTiQeDM8WPIkCEDfHyi13qN5xDDf0TPL0koF+aikpxu2LAB//33Hz7//HP4+fnBzc0N9erV0wq/7du312JKhp+YGCgICAKCQBojIB7TNAbcloczhceaskyNNtdIzvwkjJfuXWmCgCCQaARKliyJ86dP4t4dUSVNNHhyALat+xeurq4oUaKETaLBfFOG837yySdYvHgxzpw5g549e+r81PHjx+ONN94Ay9Dwcyr+ShMEBAFBQBB4ioAQ06dYyFoyENA0TyndRqry6pVk9JZ6h0bSUWWfqPKmHsjSs00j4O/vj1vKIxQWKnmmNn2iU2lyuzdvhKOjI1iixR5arly5NAl9/PgxTp06hSFDhqBNmzb4888/0aBBAzRs2BBvvvkm1qxZo72t9oCJzFEQEAQEgbgQkFDeuJCR7YlGgE5IrcqrViIJYKK7SPUDntqY6kPJAIKATSLQo0cPtGjZCvu2b0HV+o1tco4yqdRB4NTRwzh6YB+aNm2qQ1pTZxTj9ponTx706dNHG8hQX3pTZ8+ejcOHD4NiSQxvZimaUqVK6ffZs2c37mTEMkFAEBAEUgEBIaapAKp9dvk0RNaopJTnhbYx5PhpWRv7PFsya0EgqQj4+/vD2yszQi5dSmoXcpydInB4907cCLkapW5rpzDoaZuUfVu2bKkFxVgrlSJJY8aM0R7lvn376hI0zZs3xwsvvKAVfu0ZL5m7ICAI2AcCEsprH+c5TWapSZ8aiV5Jo7bIPNjHhvXoGhU3sUsQMCGQM2dO7fGaM/lH3L19y7RZXgWBeBF49DAMRw/ug4d7JpB0SYtEwMXFRQsjtWrVCt9//z3u3LmjXxs3boz9+/ejf//+oBo2hZUmTpyI3bt34/jx4wKfICAICAI2iYB4TG3ytFpmUiSkelHDG5Kb0j5tG727lsFIRhUErB2BjBkzanGXmTNnYv5vP+PV7h9Y+5TE/jRA4J8Fc7BmyUJ8PXhwGoxmvUNQvfftt9/WC8WRQkJCsG7dOuzYsQPdunVD3rx5kS1bNv1wqFy5cqhVqxbc3d2td8JiuSAgCAgCZggIMTUDQ1aTjkAU4VPUj15Jo7ZI8vwk7NioRopdgoDBEWA+3KJFizB/2q8ILFMOZavUMLjFYp4lETikQnjHf9UfRQoXQv369S1pilWNXb16dW1vkyZNtCf1xIkTWLBgAUaMGKGJKgmpp6enJrEVK1ZEnTp1rGp+YqwgIAgIAjERkFDemIjI+yQjYFw6ajalJ8rBosprhomsCgKJRIDlPj777DM4qB/SuC8/x+G9uxPZg+xuLwiwrNCU0UPhm91H50/S4yctcQg4OTnB29sb9JAOGjQId+/exblz59ClSxede0qiytBfLu+8844WU7pw4ULiBpG9BQFBQBAwAAJCTA1wEmzBBO0xVf+k52LMQF4NMz2mFD6inRLPawvfPJmDpRAoXbo0WJfRIeIRfhkxBLuCN1jKFBnXoAgc2bcHP307GLu2bMJ7770Hk+CPQc21KrOo2Dts2DAEBwdj8uTJugxN+vTpsW3bNtDTypzUL7/8Egy5P3/+vFXNTYwVBAQB+0VAQnnt99yn+MxVgGxkGK8mfSnefYp0qMWPFDHVIb0p0qN0IgjYLwKsx8jf1Pvvv49vPlJlZF7piKbtX4dHZi/7BUVmrhFYPPM3/D5hDJwzOKD/F19o755AkzoIsPwOl9dffx0PHjzAf//9B6r8fqFwZ6gva8aWL18etWvXRqNGjeDn55c6hkivgoAgIAgkEwHxmCYTQDn8CQKKjJr4KF+N3ajKa3wrjY2hWCcIAA4ODrqUxfDhwzUB+X38dxjy4bu4dO6sVuylEqs0+0Dg0cOHCAsNxcnDBzH04/fw/cC+8PPJhtl//qnDvjNlymQfQFhwlhRFyp07Nzp06IApU6bg8ePH+Pjjj5ErVy789ddf2mtNVe1XXnkFc+fOxeXLl3H//n0LWixDCwKCgCAQHQHxmEbHQ94lEQFNStU/2hNJj2QS+0ntw2gXQ41pp2GNTG0QpH9BIIUR4I3uSy+9pMMJR40ahQ61KypBpOrIH1gMlWrXh7tnZgQUDkzhUaU7IyBw+fw53LwWgg0rl+Hm9WtYt2wxIh49xFsq/7FPnz5aRdYIdtqrDSzNw+Xvv//WRPSff/7ROaht27aFv7+/FkyicFKJEiUQGBgILy+JdrDX74rMWxAwAgJCTI1wFmzEhsgaocYlpYT5aSivse20ka+ETMOOEKD3tFevXqhXr54WZxk5ciT+mTsL/y5eABdVYiabb2T4YAZHR+TMG4AcufPAxTWjHSFk/VO9dvWyIqHX8DAsDOdPn9QTunXjOu7dvaO95IULFcKQwV+iZMmSCAoK0h5165+1bcyAyr5szD29ePGirpG6cuVK/Pbbb9q7Sq8qQ3w7deqEgIAA/Tu2jZnLLAQBQcCaEBBiak1ny+i2asVbo/pKnzhItY0KyMfGtdPop1nsEwTiQoDlKypXrqw/JkFlGzp0KI4cOaJFWPQG9c9uJZQUERGhQw1N21L79dGjR/rBFAl0ajbOi41CNLbWOCc+3GMz4UhvW6lS9bRXLmvWrLY2ZZubD+sQ58uXTy/NmjUDIxwWL16MefPmYcmSJejevTvCw8PRoEEDFClSBF999RUyZMgAR/VAyXTubQ4UmZAgIAgYBgEhpoY5FdZvCO9XuFD19gkNNNykIhV5n6jySiyv4c6PGGR7CPzvf//Tk5o0aZJ+DVV5iIcOHQJrMt67dy9NJszyGt999x08PDzQo0ePVBuT5JcKqCzv4evrm2rjWKpjKsGSfDo7O6Nw4cKWMkPGTWEETOJJ7Pb333/H9u3bsWnTJixfvhzTpk3T3u+WLVtqMlu0aFEtppTCJkh3goAgIAhoBISYyhchxRDg09RIUmpUWqqmqskzibOBbdTWyT+CgG0iQFLDUE8uadWuqfDTGTNmgOIw7du3T6thZRxBwOoQYL44lzNnzuD69eta4Zd5qT179tQPdvhAokKFCnqpVq0aKKYkTRAQBASBlEJAiGlKIWn3/UTmbBrXVxp5giIp6WNFoG0vzM7uv4ICgCAgCAgCgkCKIEB1Xy4URXr33Xd1eC/FrDZu3AjmjzOsmwtzVpmXWrdu3RQZVzoRBAQB+0ZAiKl9n/8Um70mpMpj+jSUN8W6TtGOtH3KbcpXaYKAICAIpCQCYUoU6NSpU8icObP2zqZk39KXIGAJBBgJxXxiLiNGjNAmzJ8/H2fPntUlZ7Zu3Yrp06cjT548aNeuna6Vmj9/fh3Kzt+BNEFAEBAEEoOAENPEoCX7xotApLfU2KQvikCrmQg3jfd0yoeCgCCQSAQY+vj555+DeXhffPFFIo+W3dMagYuXLmPXngOIUPU+k9Mye3qgcsWyyekiWcc+VDVkd+7ej6vXrierHx7cuH6t5/bRqlUrvc8bb7yBo0eP6nzU4OBgnY9K8lqqVCkEBARobypzrWvXrv3cPmUHyyKwb9++KAMOHjwYtS4r1oEAHwxRfJCCZdbehJha+xk0kP2RxFQZlLy/8ak4o0gL0ykDVTZsKo4jXQsCgoA9IkBxpTfffFPfINjj/K1pzkeOncD/Pv8KBw8dSbbZ2X2yYdiQL1C+TNrlTZsbPXTUeMyaPU+F20YqQpt/ltj1Yyc6o0fXjgk6LFOmTChdurReOnbsqMXMmI/6119/YcWKFVo8iZ7WOnXqoGzZsvKwJkGops1OmzdvxsCBA3Hp0iXt/aYonanxQYc060KAytkMrafwHlu5cuW0aFmLFi3079OaZiPE1JrOloFtZWisaXkYDoQ9Mh47DVU2nQmJLBlhstXAkIppgoAgYGUIuLq6on79+lZmtX2au2v3PuzYuRsN6tWGVxJDTh88eICly1fi5KnT6D94GL4e9BlKFgtMc0BX/rsWnuqhSIXyZeH85MY0sUYcO34CW7fvxKjvx8MhfTp0fLUdMqrvc0Ibv/tcXnrpJb3wuF9++QWrVq3SKr9btmzRocDNmzdHmzZttKozvalZsmRJ6BCyXxIRoFo4xayWLl2qSehPP/2ka03nzZtXK2yzfFCxYsWieqfHW0oDRcFhFSuMXLh58yZM3m6q3jPMfvDgwWCEg7+/PxjhUEjVmiaJNXIztnVGRk5sewYBFcSrVXkv3QrHzM13Uc7fGTk8U7dm4DNGxLNhw7EHuHY3QttI36k0QUAQEAQEAftD4LEK3T15+oyeeNtWTdCgTs0kgXDk6HGsXrMOoSq3eP+BQ/hfv8EY0PcjBJUvk6T+knrQyZOnUKJ4UXzQ4y3kyeWXpG5+/2OeJqbZs/tg4s9TVR/p0LXTK1H1apPSaefOncHl+PHjOH36NFavXq1VfimWxOgCenWo7MvQd3pe/fySZntSbLOnYyZPnowJEyZg586dCAwM1GJVDPmsVauWPg/ycMD2vg0kpiSpJKyMYFizZg1mzZqlSeoLL7yA6tWrG3bSQkwNe2qs0DAztrfxeCi2nQ6Di6PZRgtP6dZ9szAnukylCQKCgCCQggjcuHED33//PVjvs1u3binYs3RlZATy5M6JoArl8NeipfhUhQd/82XfNCenKYVPPUXSj6kw57ETfkZERAS6JzCsN77x6ZHjwpvhkJAQ3Lp1C9988w0OHz6Mvn37giHBJKoNGjTQ5ZxImKQlHwESE3rMSEyKFy+uFZVJ/lk2yxTymfxRpAcjIsAcby5sLJF2+/ZtLFu2DKwrzld6zY1KToWYGvEbZaU2sYZpJN+LJH0PVegsw3qfJp2q7SaRCe7Idb1rErebH2simrpPfqD6ZjSx3h65rkNTnoyvIpUih6Z50gQBQUAQSAEEqMpLrwRD5KTZDwK8yX/v7c6KXLlj6u9/YsBXwzH0y34oWTztw3qTi3omt4z48otP0OeLIRjx3Q86pLPzay/BxcU5uV1r76uPjw+4TJo0Sfc3b9487dWZOHEiqPbLG2Y+2GGJGob9kki5ubnpJdkG2EkHjAhYuXKlfjjGh2V8SPbhhx8iR44cdoKATNMcgaxZs4LL22+/rcN4KcxHsvrOO+/ggw8+QMaMGc13t/i6EFOLnwLbMIBUMFJUiPMhIzS1GOuaTPIztT2l1vVQMcbhNt3/k+2m9SdjRg2tj5V/BAFBQBBIPgLe3t4YPXq0eCOSD6VV9tDvk57wUMqYP/06DX36D8HAfh9bTBApOQDm88+D/n17Y8Dg4fjx5yk6/aXT6y8lOX81Pltat26tP+ZN8o4dO3Qe5N69e/HDDz9osaSaNWuC5WeYl8rfV+XKlePrTj5TCJCUvv/++/oBwKhRo0ABHGmCABHo0qWLFiLjgyBGLTg6OuKTTz4xFDhCTA11OqzdGGaZmlE+s9Xnz4wE0nRAItfTme1vvh7pMn0ytNk+0Yjz8y2TPQQBQUAQSAgCFJWgbL80+0Xg7Tdf057BcSoU9qM+A/H1wM9QOaic1QFStHBBjB42CJ/0HYwffvoV4Y9VWO9bHVNtHgznZWghl6tXr+LChQtYt26dJlmLFi3CwoULldfWRZeeqVixIrp3755qtlhzxwzfff311/XDMaYV1K1b15qnI7anAgJUyB46dCiuXLmC7777Tqv38gGQUZrUzDDKmbB6OyILsDByliG9OlQ2EesMszUd65QhPVyd0iGjE1+jrztliBRY4v4cIzJ8OLZ1RXOj9oltnRRavv5W/7WTCQgCBkKAOXnM5bl7966BrBJT0hIBJydHnZf5avt2OHf+Ar5Qar279uxPSxNSbCw/3+xKabgPAgsXwojRP2DcxClIi1IiDDssUaKEDjWcPXu2LmkyZMgQXaORJJV5cvT09OjRQ6v+Xrt2Dffv30+xeVtrRzw3JBoM3x05ciTq1aun74OsdT5id+oh4OnpiT59+ujvCvOQ+SDIKE08pkY5E7ZghyKK6n+1PI7yVSZ03TT9hsVdkC9bBni7xa7me+FmOOZuu4sb9+gBjRzLdCzHMjXaYWqRNj1JOVUb+Z6kNpOL+V6mveVVEBAEBIGkIUBPD0Po6DX99ttvk9aJHGV1CNy6dRsL/14OLy/PKNvz+ecC65sePXYcfQd+g5/GDUcOpXhr9Lb/wGHM+HNeNDMLF8yvyPU+TPhpsqqVmA5vvPqiKg3jEm2f1H7DEEQuVPg1hfzSozp9+nSFu5dW923cuLHO765SpUpqm2PI/ilqQyJvKsljSCPFKMMgUL58eYwZMwa9evXSqs2sa2uEJsTUCGfBBmzwcFUeTsf0ivBFKt+aU76Ermd1d0CPOu6aOMYHybHLj7D28IOoXRLSP3c234+eVu+M5luiupMVQUAQEASShABFJBo2bKhz4ZLUgRxkVQj4+flqMZHLV65imPIoxtX27T+I4aMnYMTXX8S1i8W3Mzc2Y0ZX/Ld2vV5iMyg0NBQ/TvoN9WtXR4H8AbHtkurbTAq/zDk9dOgQLl++rPNRWR6DxJXCSiw/w7qcLVu2RNWqVVPdJiMMcO/ePV0OhLVkBw0aZASTxAYrQIB1h/lAgx52IaZWcMLExIQj4KfqlWZRxPJ0yCPFAJ8QviiFXNUP1+mm5Csdm7Gsh9wJx6Pwx7q4d1wjR6hjWSdVjxDXOObbYxmH4zuqkOC8WeS5TFw4y3ZBQBBIPALMk2ONRmn2gYCbehCxbd0yrN0QHOeE9+4/hAmKzJ04FVk3Nc4dLfxBs8b1EOCfG9eu34jTkiHDxuDgocMIUyGjlm5M1WEtTi41atTQ5ixYsACbNm3CiBEj9M328OHDdRmaAQMGaBVShgjrFJ/0tpfGwzBehmPSW1y4cGFLnx4Z30oQoOI1FXpXrFiBJUuWgFEHlm5yZ27pM2BD4zcs5oKdp0PVjMg8nzQtRqTWNZN8st18Xf99eLp/uwlXUSmfChHS+6jjTB+p9yw/c+TyQ7Aeqeaepr45VFzr7MDUl6kz9b5OkbQNQ6KJ0gQBQcCyCPCmVJogwHIaphZNsM+0MZGv1asExXlEaGiY/iwtvnvJ/XYXC4yf0BQLXK6JaZyTtfAH9JBy+eijj/RN9urVq0ExoK+//lqXxaA6LRV+X3jhBV07tWTJkha2OOWG37JlC7Zt26ZFolKuV+nJHhCgGBJ/Fx9//LEQU3s44fY0xxI5HVHe3xnbTkb+IX5KCM1QMP/LGcd68HGSW1PjDYT5jnyn3pur75p//Lztat/Cvo5oV97VNIC8CgKCgCCQIgjcuXNH53gx5403yNIEAUEg7RHIkiULOnTooJczZ87okN8NGzZob+rvv/+OP//8U3tSGzVqBObZMSzY2Tn5dVrTfqZPR5w7dy78/f11KPPTrbImCDwfAf5eChUqpP92nTp1yuJ1uG0vnuH550D2SCUEMjmnQ+/67sjplUFF6j5V2TVf51Nj9b/6PL0OqYm+TnVd0/bY1hUfVQc8VeI1rbM/03rk69Mxo/fn7ZYenau5IbOrfPVT6Wsg3QoCdosAFXl/+eUXzJ8/324xkIkLAkZCIHfu3Fqdtl+/fvp3yVzUL774QntMWXO4Y8eO4I05P6eYkrU2ekxz5syphaCsdQ5it2UQYDjve++9h0ePHuHXX3+1jBFmo8rduRkYspp8BFjmpV8zD1Qp4AR356dfL1O4FJ2bkeuPtR80+jrHN203rZuO5HbTuqkP7vO89cj+sihCWtTPAf9r7IFC2SWCPRI5+VcQEARSEgHmsP3444/6xjcl+5W+BAFBIHkIpFd5pU5OTkpN2BVvvfUWgoODtcLvuHHjwBqO06ZNQ9OmTVGgQAF069YNa9eu1WHAyRs17Y7eunWr9nRly5Yt7QaVkWwGAW9vbyUB81iXO7P0pOQO3dJnwAbH9/VIj641MmH/BZWMfyMCFDW6eCsCFC5K6+bokE6Vn3FAYI4MyOXlAK+MT8lyWtsi4wkCgoBtI8DaioGBgbY9STua3cHDR3H6zHmUL1sS3l6ZY535iVOnVaH6a6hYvnSsnxthI1WD9+w7CHelvFuxXKlYTWLJm91qn2qVK8T6uS1uzJs3ryapJKoM9T137hwY6rtnzx6daxcQEIBatWppT2TdunVRoYIxsaEX2MFBCVAqz680QSApCDCUl8SUvwFLNyGmlj4DNjq+u6oRGhTgpEV4HylG+ij8qY5RWk6ZocJOipw6CB9NS9hlLEFAEBAErBqBgV+PwoKFf2syN27U17ES0xMnT6NTt164fvMmXmrbAh+81w2uLsYS1qMacJ8vhoAla8qUKo7fJo2J9bysWL0GA4eMgId7JvT79EM0qlcr1v1sdaOp9inzThnSSJVSiieNHTsWfOA0bNgwHf772WefoVWrVsiePbthoLh48aImpnzwIE0QsHYE5Hbd2s+gwe0nMaTXkiG+GS2wuDoKKTX4V0TMEwRsBoGrV6/qcjHMYZNmvQgcOXYCK1b+q0npqG8HIm+enHoyO3fvR82GbbBo6T/6fYB/HowZ+RUCCxfCvIXLcPXqNcNNeq8ipMFbtuGdrp0U4fwgyr5PPv8Kb7//CW7cvKW31axWGf0/+wjnzl/EvAWLNTmL2tmOVkjuKF724osvYvz48bh7964mpdWqVdOhwJ9++il8fX3xyiuv6LzUw4cP4+zZsxZFiGG8DFNmGLI0QSCpCAQFBemSQyw7ZMkmxNSS6MvYgoAgIAgIAjaDQIYMGZAvXz7kypXLZuZkjxO5eOkKHjx4gCKKcJYtVQLuqj4tm1dmDzSoVxOZPT2jYClRLBAN6tZQpPSqqu/5RJE+6lPLrxw/cVIb0b5dSxQqkC/KoDo1qqBs6ZLa08aNWbN4o23LJvrz6zduxVvPNKoTO1jJqGrV9uzZE6yRyjqPzCHv3r27DnmcOHEi6GEliR06dKiunXrrViTRtwNoZIqCQKogIKG8qQKrdCoICAKCgCBgbwh4KsLSu3dvUGhFmu0hkDdPLvR+/224WHlpEZ6ZBnVrKq9ouPK0OdreiUqlGdEjyYX1UG/cuAGS0KVLl2Lq1Knae0pPKwXQmLNaunRp1K5dO5UskW4FgZRHgN/Z9evXIyQkBDly5Ej5ARLYo/z1TCBQspsgIAgIAoKAIBAfAixnRQ+Li8HyDOOzWT6LjsCNGzexc/depFdiMrEJGsX20CGjUnplKOWoMZNw6/ad6B1a8N2ly1ewQ4UfZ/b0UA9LqIn/tEWq1D5LSt1VjmnItWs4cOioFkN5eoSsmRDg75vhvBSMef/998FSLQzn/fDDD3Ue6qBBg7TCb8GCBdGjRw+wNuSVK1dMh8urIGBIBFg2hvnVDx8+tKh9QkwtCr8MLggIAoKAIGArCNy/fx8rV67E5s2bbWVKdjePS5ev4sdJv+niZCWKFo42/6sh1zHxl2k4c/Z8tO2VKpZTeai5sHHzFsz4c0G0zyz5hgJOwZu3oXnTRs88LFm7IRir/1uPsLDoN6EvvdBaeQNvYeSYic98Zsm5GH1siiEx/5S//d9++w0jR46Ev78/Nm7ciGLFiqFZs2YYMWIEfv75Z+zduxfh4UoRUpogIAg8g4CE8j4DiWwQBAQBQUAQEAQSj8BNpc767bff6jzTihUrJr4DOcLiCFDo6I3X22PSr1OxeNkq5TUtE2XT1u07Me7HX1FMEdbcufyitm/bsVt5xc7g+xFfoWTxolHbLb3yae8ecMvoioWLl6oQ5G5wVl5dU+v96UDkC8iLooGFkd0nq2kzFi9ZrkisM959q6OE+UahkriV5s2b6wNatmyJe/fuaXVfPrD65JNPtGedZWp8fHx0yC/L0Pj5Pf0uJW4k2VsQsD0ExGNqe+dUZiQICAKCgCBgAQSYYzZ48GC89957FhhdhkwJBBimGaTIaCYV1kYRJFMLDQ3D73/MR7gKdatRJci0Wb/eVLmGYSr8rUB+f+Tw9Yn2mSXf5FHkOVdOX628GxEREWXKBOX1vco8Mt9smrhGfaBWLly8hJx+OVRpmWJgaLq0pCPAPL38+fOjS5cumDFjhvaSkpySlO7cuVNvz5kzJzp06ICBAwfi9u3bYNRFfG3VqlV2q5gcHy7yme0gIMTUds6lzEQQEAQEAUHAggg4K1GcChUqoGhR43jNLAiHTQ3NvKu16zeiZfPGSBdD3Oq6yks1erty5WqUidev39S50NWrVlY5kW5R22Ul9REgAV2zZg2Cg4MxZswYtGnTBvv27cP333+PUqVKoW3btlpMiSVgKLBk3nbs2IF27drhhx9+QGhoqPlHsi4I2AwCEsprM6dSJiIICAKCgCAgCAgCyUWApVP4kOHQ4SOYs+Bv1KgapErFZMa3gz9H/nz+SP/Ek3heeRdnzv4LG4K3o2CB/Mr7aDySlydXZA3WsROnoGK50ujwchs0aVAb2bJ46XmZsDp+8jQWLYmsz+rpkQmeHh6mj+Q1FRAIDAwEF9ZDpXASa0du2LABs2fP1rWQWXYqT548eO211/QrFX7nz5+Pa0qY6ssvvwQ94L169UoFy6RLQcCyCAgxtSz+MrogIAgIAoKAjSBAmf3PP/9c1zH97LPPbGRW9jeNwMIF0Lnjqxj8zQgMHTFW1//MljUL2rWJzB00IXL3zl1MmTpTh2h2UnmpHorQGa0VV3VWu77ZEb9Nm6nJD4lpqRJF9WJu6yYlkjRqzASUK1saH6qSOM7OT/NRzfeT9ZRFIJOqkVukSBG9kHz27dsXd+/exTvvvINFixZpMTWOyJBgqvuysWbuBx98oMkplYClCQK2hIAQU1s6m8+ZCwuGM4eBktAsacBGsQ6Gh1A1Llu2bFrSnLW5qCbnoOTypQkCgoAgIAgkDIHHjx/rm0VR3EwYXkbe683XX8Lr7duo0inX4Zs99rzRggXyYVfwSiNPAwXzB6BP7+56ic/QV15sjaqVKyBv7lzx7SafpQECvEejsi/blClT9AMFvo95XWFYMO/TJKw3DU6KDJFmCAgxTTOoLTfQnj17MH36dJw8eVLnLLi7u6NMmTLo2rUrjh8/jtdffx0TJ05Eo0aNtJw5t1HWPHfu3JYzWkYWBAQBQcDKEKD4EcPsMmSQP61WdupiNdfR0TFOUhrrAVa+UUip8U5gx44dtVHnz5/HwYMHoxlIJ8KQIUNQtmzZaNvljSBgzQiI+JE1n73n2M6n9wsXLgQly3/88Uf9tI2ElIXAmcfAgs98Anfnzp0olbeGDRuC8uXe3t7P6T1hH5MMt2rVSpPihB0hewkCgoAgYJ0I0HvByBMSVGmCgCAgCKQEArxXO3ToEHhPF7PxmsPcVGmCgK0gII91beVMxjKPM2fO4H//+x8KFy6Mn376Sec9mXZjWC+f6m/ZssW0Sb9Wr14d1apVA58UmxovhiSvJLHMhzB5A5h8/0hJ5/M99+HTOwpGmMKEuf+5c+e0+hw/CwsL0/umj6FoyHHYF+t90S6GsVCy3yRVzzH4OQk1Q1a4H+0wt5GKidyftlBunfvRMxwzHJnbORf2TztNY5jmKq+CgCAgCCQVAV6H+DCO10EKl0gTBAQBQSC5CFDwKEuWLKhZs6ZW/KbyN9OvXF1dUaJECa3uKzntyUVZjjcKAkJMjXImUsGOr776SvfKUI9cuaLnjZCYxdbmzp2r8xk6d+6sid3169cxc+ZMrFu3Drzp4kWQIcDZs2fHkSNHMGnSJLCY9IoVK3DgwAF9DFXm6HVdvXo1xo0bpwkrw9tYVPrNN9/USnTmY5OMcj/W9WLOK22lEl2lSpU0cZw3b56WU69Xr56uBXbp0iVdkJohLgxhISmmHfRSkHTy6SHFAygWwHqCrCXGRvn1qVOn4vTp00qkwgNNmzbFiy++aG6KrAsCgoAgkGQEeAPJOoW81o0ePTrJ/ciBgoAgIAiYEGBaFdOt+EDe1hqdFpcvX9ZOBEabpNYc+cDw2LFj+t40pTGk84T3x2x0htBpIk6PpKMsobxJx87wR86ZM0fXxSKZTGjbuHEj/v77b+2VJOEbNWqULvxcoEABTUZJID/++GPdHXMepk2bhpdfflmTPXoIOCYT8k+cOKFJKr2f/IHSe8nF5G01t4dklHW5SHZr1KiBZcuWgU//6BmlDZs2bdI1vkhEPT09Ua5cOfz+++/6BpAqddyHxJjS6cOHD9fEl32xRhiV7egl5RjNmjUD821r1aqlvbckwtIEAUFAEEgpBPjAq0uXLroWYUr1Kf0IAoKAfSPA6K7UImyWQpYOiT59+qBkyZL6vo+Reo0bN9YOipS2icSRDhY6Ihi5l5KN0Xxff/219mSzfjUjFKtWraqdKLw3lZZ4BMRjmnjMrOIIehXp7aS6bmxkMCGToCQ5iz5/+umnmvQxBJc3XkOHDsWgQYOiuiAh/eWXX/STIno5SQYpoFS/fn1NSletWhUVUhx1kNkKPZ0rV67UYku8WDE85aOPPtJhvaawYM6FXlEWo2bjOLyI7dq1K0qkifP877//NMHlPnyCxbpf69ev12HA9KbSm9upUyf07NmTu0gTBAQBQSDFEOC1i5EY0gQBQUAQEARiR4D3ZnQk0LHx0ksvoXLlyro+K+/nSCJTuvHekForjKJjSlhKNpJPRsrQ89utWzdd0ofOFEYH8p6Z85OWOASEmCYOL6vZ25RbSW9hUhsJHY9nHmq/fv10N3v37tU/NqrDMY+Kjaq+pvHojWRuKb2dCW089vDhw5rcMid13759mpSa207yShElU+NTNj8/Px2aYdrGUF9z0SZ6cqlGzD6pOEyv79ixY/VFhO/pSZZwCxN68ioICAKCgCAgCAgCgkDqInD27FkdCdegQQMtzGlynpCUmnsZuX7jxg1dt9XX11d7jXnPxu28x+RxJH8Uh2J0HkNoTc4MzoD3otQc4b0qSWlsef90WDCUmPeYXEzNRDgZbcexzfs17WP+yn2YNse2efNmTbb5KsTUHKWErUsob8Jwsrq9mCjPHwo9l3ySk5RGjylzUfmEiU+4uDBMgR5R9m1qBQsWNK3qcF16DRLTKMzEJ02sp8qcUT7ZYsiu+QXKx8dHX4BM/ZLMkoSaE8vMmTNHe89cVX7OhbkLf/zxh84vYCkcel4nT54cbQxT3/IqCAgCgkBSEOBNzDfffKMfsiXleDlGEBAEBAFbR4BkkvdlTMVilJypkWiaRC1JKL/77jvUqVMHTZo00RFyy5cv17vy3vTtt9/WEX28d6SmCR0RjIYLCQkxdYc1a9boY6k7Qq0Sc5LI+1mmqjHslo4KppFxPDYSWmq0UGyKn/GVY5vfk0YNEssK58S5UGtAWuIREI9p4jGziiP4o6eA0YQJE8BQ2hYt27boAwAAQABJREFUWkQjdnwyxYtDfK1IkSI6rJY/dj7ZMjX+oHnxoLgRG8cyb+bvuc6Fx8TV6MUkIWUhaeZRMCyYN3jmjVLpvIiZfugM7aWIkek99922bZsehxcEXkB4USJJJolmHgAJNElp79699cWOBatZHoeeV2mCgCAgCCQXAd6QrF27FgEBAfr6m9z+5PhUQkD9TeIDV/4NXPnvetxNRIRPYi06dPiY+ntEVfmnSvcx++DDDGo2fPHFF9prw4eoCxYs0AJa/Pv1zz//6Dw2Cmvxb1bM5qj+5p2/cBGLl/2TqnVX7ymy4KT+9j/v3iGmffJeEDBHgJ5Lkk0SQ2p/MD2MUXDmTg3+BpiDypBfKhBTM4Q6I7wX5P0khYyWLl2qI9/oaKAzg4JzdHAweo73uPzdcD+ST4pHmerA8rP+/fvr8du1a6dtYIQgvackpUxf470zxTMpPMWUNtrir1LjChUqZD6VqHU6gHjt3759O8aPH6+P49ykJR4BIaaJx8xqjmCeJn9sJGIkdUzM5g+f8fAUJ+IPMr7GmqdZs2bVP0r+EecPnyVoSAh79OgR36FRn1HwiN7bGTNm4IUXXtBE0jzcljvSHubEMuyBhPfnn3+OOt585fPPP9feWtOTLnpEixcvHrULj//1118RFBSkw3d5sWO4Lknv/v37dehI6dKl9QWLIRsksFykCQKCgCCQEgjwWscHbaY0h5ToU/pIeQTSK2JatVJFzJy9ALNmz9NLyo/ytEdqM3R+7eWnG8zW+BCV3xmmrtD7w7/RFCCcNWuWFtHi3+m//vpLPwhmOGJsxPSFNi2w+r91GDpirFnPKb/Kv5cN6taCT7asKd+59Gg3CNBZwfs5VkxgnikdJ1wYjcf7TjZWcmjdurXWA2GYLn9DrAhB4UtG1bHdvn1bp2uxH66TvAYHB6OWSimj55T3v2+99dYz93kkqPxNsb+RI0fqVDRThQbeK/7555+a3LLcIh/CUHCTnltWnoiLmNKLSyJLcSU+ZKJDh9Uh+Ps2d9Zow+WfeBGQu/J44bHuD/lD5lMfPkWiahh/HCSY/LHwR8Y/eNxmWjhbU64ot/FiwB8tCS7zSBnWS88jn1qxmY6L7+kpySNFimgHBY6omkv1NfNG+yim9MYbb+gxeWHiBcC80TPKsbmPKWeAT7Hy5csXtRvnRIEkPoXj0yuSUvZNIswcVj6VZmM/nCefgPFGUpogIAgIAimBAG/c6S2VZnwEihTOj7EjvsKW7Tv134TUstjbKzMK5s+HsqVjV8fn31GWMePfLH53+HeWD5PpUaKAIBtveOk1ql27dqxm9n6/G155sRW279yTqt5fN6UOW6NaZXh6uMdqh2wUBBKKAL/n3bt312JxjA5gtADv++htZFUFejrphKBDg78RejMZSUfiaCKm9ISaygHSCdK2bVstgGkS4KQTheUMYzbqjnDh78x0z2va5+jRo3osVm0weTzpRWU0DB0ocbWcOXPqdDF6Yy9cuKB/s3TksJKFyca4jpXt0REQYhodD5t6xx8zn+6wFAsXek2ZMM4wCpJONoaxmsfkkziaN4ZEMDSCPzBeGPiH0xRuwadSfDJk3viZ+TaG5tJzSXLLH7d5bqrpOD6pYigGLyL+KlTCnOiaYvppL/94X7x4Ud9E8CJgauyXjX+4Fy5cqC8K9Fgwr5QYsFHFl+SU8+D+5oRW7yD/CAKCgCCQTAR4veLNFK87plypZHYph6cSAiRZJItxEcZUGjbWbmMSTkb2cDE1pqGYazmYtptes3h7gUvxokVMm+RVEDA8ArxO8p6S4br8DdApwcoKJJ68hyPxrFChQrR5MOTX1EzeVdN7OlsokkkxI5aHYbRcbPd69GpyIZmN2Ugs6bzggyEKZpoa+65YsaLp7TOvtNfkTWV0Iis/DBs2TN+zCjF9Bq54NwgxjRce2/rQPB8zMTPjxSM2NbPE9EGSGF+jpyG2C4j5MbQjIT9w5gTE1kh4k4pBbP3JNkFAEBAEzBFgOBdvSHi9NEVomH8u64KAICAI2DsCjNqjo4OeUVPjOokiCSPv8xjxx+vou+++G5UaQW0RpmGZOz9Mx/PVXzk2GClHvRI6KegQoShmzMb7US4MC6Z31eQM4UNFRvlRgZdpbO+//36UR5VOnYQ+bKSSMEOF2Y+kdcRE//nvhZg+HyPZQxAQBAQBQUAQeC4CDE+jgqOkCDwXKtlBEBAE7BSBkydP6hxSOhEY6cZyL4sXL9aRfPSI0lHB/E8KYfKaWr58eU1GmXvN2vRxNZJbpopR6IjRewyFp0MjZqNHs3r16jqFjGPT80qbSCRZ654Rdkw/ox2MXGBoLkWXTA8dY/bH93woyZQ5RiAy3JjioAxVJlmWljgEhJgmDi/ZO40R4EXl22+/jdf7wBwBKrhx35j5AmlsrgwnCAgCBkSAwjIsnWWuLp4aZvKJP2+opAkCgoAgIAjEjgC9mPROskoCvZVMgaCnkuVaWPqFjd5Oeh4ZecLwWuqjtG/fXn/Ge73Y7vdIJJl+xjxVPiCMGf5uuj+kN5a5n/SIUmSJfTGajkq9TBubrEoJUjRpwIABUeMwz5vHxdUYPtyvXz9tJ8OTObcuXbro93EdI9tjRyCd+kI8jv0j2SoICAKCgCBgrQiwfBKf/lLtkLku9tyoQs5UAT7FZm68NNtFgN6NmOXGbHe2tj0zhm2ah3va9myTPjuq0X722WdgCTwq2VpLo5IudUP4QI/nmQQxZuM+JH38nJolKd0YUszFx8cnKqTXNAaJMa8l/MykrWL6zBZfKQZFrzRDnGPm78Y1X4pCUXSKYc5z5859BsO4jotvu3hM40NHPhMEBIFkI8B8El68JLwx2VBKB0lEgPXu+EQ8ZqmqJHYX52G8wWFuEW+oqUYuLe0RoFr7kiVL0n5gGTHFEeANL8uKSLNNBEhIucTXErJPfMc/7zOS3bgILz27seWoPq9P+Tx5CAgxTR5+crQgIAjEgwDDsH/88Ucdjs2bDGmCQFojwO8fnwSzrhzzmVKz8ek+85tYb1KIaWoiHXffVJ9n3hhDAkV4JG6cjPwJf0erVq3SKvpGtlNsEwQEgZRHQIhpymMqPQoCdo0AbwzXrVun65Ixr495GcwnkSYIpCUCrHe8fPlyXYCdCozMTzLlGKWWHVRyHDt2rF2EfaUWhinRL8O2mR8mURopgWba90EhGpZ3kyYICAL2h4AQU/s75zJjQSBVEGCN2BkzZmDOnDnYvHlztDFYOJu5C9LSDgEWCmcYNW/y7AV7klHmLLGcAPOSZs2apWvLjR49Wqs1pjb6zLMpXrx4ag8j/QsCgoAgIAgIAjaJgBBTmzytMilBIG0RYE4X642RELAOmXlj3h2JARXzpKUdAuHh4VrUgTL8DIuzh8bC6FTgZU4zywxQJZEhvAmpf2wP+MgcBQFBQBAQBAQBIyMgd4pGPjtimyBgJQgwn+7/7d0HfFVV1vfxFXrvHaSKFCkiIiKCqIBIUxELWB4LqNh1VMY6jI+iqDM69sFxVMYyioqKitJEFAERpAgjIr13kN7f/NfznsxNSMIN5Cb3nvz2fGLuPXefffb5HgaysnbRoi9a4v3HH3+0TZs2peq55nudfvrpqY7xJrYCK1as8NX1lMHr2rVrbC8WJ62XLl3aGjZsaKeeemquzC/UXnYDBw407c+noaQUBBBAAAEEEIhegMA0eitqIoBAJgJNmza1r776yoeNajivAlX9oK4V7y655BK77LLLMjmbj7JbQNvFKJPdsmVL/4VBdrdPe4cLaA5rtWrVTHNaKQgggAACCCCQNYF8WatObQQQQCBzAWXntK/a2LFj7dprr828Mp8iECIBZWzvvfdeHz4cotvKs7eioeE7d+40fQ972bx5s7355ps+HSPs98r9IYBA/AoQmMbvs6FnCCSsQLFixax58+b22muvmVbpbdu2bcLeCx1HIFqBfPny+b58+vNPSXwBbTWkDPjIkSMT/2bS3IHm/mtxtKD8/PPP9swzz/iCYcExviOAAAI5LUBgmtPiXA+BPCagDao1546CQNgFtOiStkr66aefwn6rob8/Pcs33njD5yoPHz48dPd7xx132F//+lfTImkqJ598si9Sp8XCKAgggEBuCRCY5pY810UAAQQQCJXAli1b7LHHHrNXX301VPeVF29m4sSJPqxVC7dNnjzZli1bli6D5tHPmjXL9Oy1IrmGxAbBnk7Qa22lpV9WKNjV0GDVDYpeK3upvZ61d2dkFnP9+vXedtrF5HSuhhevXbvWZs6c6W1qNerIdlVn27ZtpkzovHnzUlZL379/v/dRW3ip3Y0bN5q2WSpcuLCddNJJviaAzg2K+qy6v/zyi/c/OK7v+mzr1q1+SO3MmTPH7yWyDq8RQCAxBPT3hBIJZcuWzdUOE5jmKj8XRwABBBAIi4D+QddqvNo6iZK4AocOHbLXX3/df0hTZlHPdejQoaluSAHmn//8Z2vcuLEpeG3RooXdc8891rp165SMuYLM/v37+7SGTp062Zlnnmm9evWyVq1aeVsKLnWsb9++/nXaaaf53Hy1ff/991uDBg3s7LPP9r1x33nnHVO/VHTeQw89ZI0aNbKOHTv651dffXVKu6r33HPPWa1ataxDhw6+h6+mU6xcudKmTp3qfdQPocoIqw2tCTB79mw766yzUraWUhuffPKJr3Ldrl07n47RrFkz718w51ZGOuell17y/YJ1L/JIu4+1d5r/xEzglFNO8V88aO9qCgJHK6BfLukXVPrKzUJgmpv6XBsBBBBAIDQC+gddgYm26KEkrsDcuXM906iVxBVwKnh77733fJXx4K608riCxTvvvNO0V7ACSQVyQVHwpmPTpk2zIUOG2JgxY6xHjx6evQwCzKCuMq6VKlXyAPGEE07wIHjEiBH25JNP2r///W8PPm+++WYPKtXu448/bm+//bbdd9999uWXX/oWRbqOsq4qal+ZTAXOaufRRx/1rK2G7p544on2wgsvWO3ata1Lly4egF9wwQVBV1LO1/3169fPtBWY2vjggw98hW/d04IFC1LqL1q0yDTUWf154okn/Phf/vKXVJnflMq8QACBuBXQ3yFVqlTJ9X2/2S4mbv+I0DEEEEAAAQQQyEkBBXWTJk3yYbBXXnmlFSxY0C666CIPALUd1uWXX+7dUeCmLOhdd93lGQZlrZSN1BBgFWUnVWfAgAGmbKbaqV69uu/zrOG1kUWrOSvAPf74432Y7WeffeaZUmVXVUqWLOlbP+n6devWTQlWb731VitSpIgHm8qABoGxFuG67bbbTO1quK+2MdL1NRy3VKlS1rlzZw9u1Va3bt388xkzZqR0SUOL1ZYCcgXHur6KFoLS/U+ZMsWzucEJTz31lOn+VXT/Gva8bt06q1OnTlCF7zEUqF+/vmmItoZ+UxBIdAEypon+BOk/AggggEBcCGjOngIM/aBOSUwBzdP89ttvLSkpyecKa8js999/79nI0aNH+3xM3ZmCPM3JLFSokN+ogj8FqkHRsErNL9Xq5AoKVZQVVRChtiOLFoerV6+eH9I8VWUh33//fQ84leFURlPZUAW7K1as8KC5TZs2HpTqpKJFi5qG2QbX0THNC1WwqD5eeOGFfo7aCIbhqk5GRQYKaDWMOAhKVbdChQoebKrtoKjv2is5KBo6rHvQnFdKzgjouei5Rs5Pzpkrc5WwCOgXU/p7Kfh7KDfvi4xpbupzbQQQQACB0Ajoh0P9UB/5w3xobi6P3IiyfT/++KPVrFnTh+EGt60AUZnO+fPne7CnoFPPWs9cQalKsBCQXgdBoBZDCorOUZ20Q3krV66cEqzqh8MCBQrY9ddfnyrgUxsKApUZ0/kKHIOi98ECSjqmHzI1z1kZTwXW6ruG5UZblHHVl9qMLOq/7qtEiRIphxWYRwbaQaCeUoEXOSKgVZX1Z1eLcSlQpSCQFQH9Mk7/n9cc8dwuBKa5/QS4PgIIIIBAKAS0SI7m/0VmrkJxY3noJjRnU0NgtYdpjRo1Uu5c2cquXbt60KosqDKf2hroxhtv9EBNK+Dq3KBorqgyhxre27t3b89qKnBYuHBhUCXd7wrsNARWQaEynUHQp6Gx6pcCXf350pDZW265xYfm/v7776mC6CVLlnh29dNPP/V7UIZT11WgGhQNAVaGTYFmEFgHn+nPsYJgDR3W4k+Bw+LFi33l4BtuuCGoyvc4EVB2W8+LwDROHkiCdUN/TykwDRZmy83uE5jmpj7XRgABBBAIjYB+wNfiEZTEFFD2843klWrPPfdcX9FWQ2SDUjt5sSANnx05cqRde+21PtdSq/AqM6lVeceNG+fbpQSBpDKuffr08bmaxYoV86G2WiRICytFZhyD9oPvmgOqobtasEirZCrgUFCsxYW0yJLmhV5xxRX28ssv+/zW9u3b+/xTBclBgKn2dc3bb7/dV81Vn9NmP7UCsObA/u1vf/MhvwpGg6JzNb9Wge2ll17qrxVkaxskLewVDz+8Bn3l+/8JaC7zM888439GGjZsCAsCUQtohIVGiegXTvqFWm4XAtPcfgJcHwEEEEAgFAIaZrlq1Sqfd0iAmniPVPtwKqBUMBgZlOpOlMnUIkgK5LTvp4JHZacU3ClgU7CmH+z+8Y9/+LnKPmjhIAWJGianeapa4VZBX7Cth4JYZTEjFwnSeVcnL5akQFBtK3OraytQrFq1qmdQH3zwQT+mQDWYS6pzgsWPtDWMhvAqyNZqwt27d/fhvJr3GQTOWsRIw5J1jtpVVlTD+BQYqyjgVfuDBw+2N99804NeBeAKxoOhohUrVjxs6F/58uV9ixllZCk5J6D9J5s2bep//+TcVblSGAT099GaNWtSLWiWm/eVlDw34f82xsrNXnBtBBBAAIFsFZg+fbrvjdizZ08W48lW2Ywb03BLZS60f6S25qDkvID2BF2+fLkHUwqSYl00HFZBpAJQDetV5mH8+PEWXFs/YmkuqrYS0nBfzR3VZ//85z+P2DW1qzmpmrOcNtAL5pUq0FQw+8c//tEXRvroo49S2tUwXe2JqiHA6RV9riA7CEbTq6Mssvqg/iuozomiocjXXHONZ3LT7h+bE9dPxGvol2L6JYL2pJ08ebKv8JyI90Gfc1ZAv6zSL5v0d1ba1cKj6cnu3bv9F3aaXqC/e/R30bGWY2/hWHvA+QgggAACCIRAQMGJhlkqQ0UJt8A333zjQ111lxpC+9prr9nYsWM9kxoMi3322Wd965nixYt7AKigQXuWKoCNpihTqqxk2qBUWVStEKzrakEiXVtbzFxyySWpmtUPixkFpaqozzMLSlVHP2jqfnIqKNU1KVkX0IJZZ5xxhv8CQXvNUhCIRkCjOl5//XXfczma+jlRh6G8OaHMNRBAAAEEQi+gH961YA0l/ALa0kXDeh9++OGUm9WeoAMHDkzJGsycOdPeSB5OGxQFmtr3VCuoHktZsGCBzzEN2lDweNlll/lQ4eAY3/OegIaga0j3kCFD7MUXX7T+/fv7kO+8J8EdRyOgX24NGjTIzjzzTNOc83gpBKbx8iToBwIIIIAAAggkhICGmuorsxIZlGZWL6ufPf3001k9hfp5REDznEeNGmWPPPKIzwVWFj2YV5xHCLjNKAS0QvgTTzzhix3pF2xaVC1eCoFpvDwJ+hF6Ac3V0W+oNH+GgkA0Ascff7x17NgxmqrUiQMBbduhYZUafqkhvRQEEEAgJwW0zc8777zjK0dr7uD69et9W6Gc7APXim8BbSukX25NmjTJF2vTolnxVAhM4+lp0JdQC2gukIbXfPHFF+xzGOonnT03p4VJtAoogWn2eOZEK1poRv//Drb0yIlrcg0EEEAgUqBBgwa+mvNVV11lt956q+95++c//9lXSyZ7GimVd15rsTQtVKQ5pfqzoF9665eo8fgLVALTvPPnkjuNEwFtzq6N0bNj9bI4uSW6kc0CWinzpZdeyuZWaS7WAtpG45VXXvEFSGJ9LdpHAAEEMhLQfrP6N0TbF2mP3d69e9vNN99sp556qlWrVs2/MjqX4+ER2Lx5s6/MPWHCBBs2bJh9/fXXvkjaAw884NsLxeOdEpjG41OhT6EWqFy5sp1//vmmVfQoCKQnoCGh77//fnofcSyOBfT/6Xr16sVxD+kaAgjkFQEtaKMv7VWrRbcUmNavX98qVapkl156qVWvXt169eqVVzjy1H3OmDHDVq5c6dtSrV271reC0ereL7/8sq8cHmxnFY8o/GQcj0+FPiGAAAIIIIDAUQksXbrUVyZNu83KUTXGSTkuoF/MrVq1KsevG9YL6hfh+lK56aabfJuj2267LdXt6pdqp5xyijVq1MgXTUr1IW/iWmDFihW2ePFi01622kc5bdFzHTNmjLVu3TrtR3H5nsA0Lh8LnUIAAQQQSDQBLTRy5513Ws2aNX2z+0Trfxj627dvXw9qNGSNkrgC2l9Vo4so2Sug4b36+vTTT00BjQIWFS3OqL+/fvjhB9u7d2/2XpTWYipQtGhR017JhQsX9myoLnbCCSd4Rvzyyy+3eM6OpgdDYJqeCscQQAABBBDIooB+MNBvpTXXlJI7Ap06dfLh1Dt27MidDnDVbBPQ6taU2Aj07NnTG1YGVUWB6erVq01zErVIDiVxBBSU6hc5WrekatWqidPxDHpKYJoBDIcRQAABBBDIioB+OBgwYAD7BmYFLZvr6pcDGo5IQQCB6AUU1GjOqb4oCOSmAIFpbupzbQQQQACBUAmwqFmoHic3gwACCCCQgwL5cvBaXAoBBBBAAIHQCmj46Icffmhjx44N7T1yYwgggAACCMRKgMA0VrK0iwACCCCQpwS0muiLL75o//73v/PUfXOzCCCAAAIIZIcAQ3mzQ5E2EEAAAQTyvIBWP3z22WdNqyRSEEAAAQQQQCBrAgSmWfOiNgIIIIAAAukKFCpUyJo1a5buZxxEAAEEEEAAgcwFCEwz9+FTBPKMgJaL1zLx+q6i1S0LFiyYZ+6fG0UAAQQQQAABBBDIPQHmmOaePVdGIK4EtLH2qaeeanXr1rX69etblSpVrF27djZu3Dg7cOBAXPWVziAQjwIbNmyw/v372yOPPBKP3aNPCCCAAAIIxLUAgWlcPx46h0DOCRw6dMgv1q9fP3vqqafs1ltv9YD07rvvtlmzZuVcR7gSAgkqoL0Ay5Ur55udJ+gt0G0EEEAAAQRyTYChvLlGz4URiE+Bs88+2zp27GgKVDt37mw9e/a0efPm2cknn5zS4Z07d9qCBQusdOnSdtxxx1n+/PlTPtu/f7/95z//Me3nePzxx/twYGVctWJpkSJF/P1vv/3m9ZWd1by8yKKhxEuWLDFtvVG7dm0rWbJkysdBOzqm6/z6669WuXJl/0qplPxi48aNtnTpUqtUqZLVqFEj8iPbtm2bLVy40MqWLet9VzBBQSA7BMqUKWP3339/qv8/ZEe7tIEAAggggEBeEOAnsrzwlLlHBI5CICkpyU444QT/ITuYa6qgceTIkda0aVMPWlu2bGnXX3+97dmzx68wdepU/+ycc86x9u3b+5BgfbB48WI77bTTfIijAt0zzzzThwmff/75tmzZMj9XgfD3339vJ554otdVcFyrVi176aWXbN++fV5HAWurVq3s8ccf96BS11HA/PHHH/vn6p9WRVW/zzvvPDvppJNMGV8VtT969Givr4Bbfb/hhhs8iPUK/AeBYxTQLzn0y5oSJUocY0ucjgACCCCAQN4TIDDNe8+cO0YgUwFlM6dPn25jx441DetVEBqsNKrjDz30kF1wwQX2ySef2AMPPGATJkywwYMH29atW+3RRx+1ChUq2EcffWSvv/66B62RF/vggw88YP388889gFRQ+txzz3kVDRe+/fbbrVGjRvbOO+/YiBEj/PpPP/20ffjhhymLMmkenwLRN954w1599VXPyt522222fv16mzJlig9DVrCs/uncM844w9ufOHGi9e3b17p06eLtqe86pj4FCz5F9pXXCGRVQL+gmTZtms2dOzerp1IfAQQQQACBPC/AUN48/0cAAARSCyjjqCG3GnqrIPHJJ5+0Bg0aeKUvv/zSh95effXVVq1aNatZs6Z99dVXHtwp+7h3715T1kjHFRB27949VeOnnHKKB5/a51EB75w5c+zTTz/1YFLZUgWIr7zyig/B1YnKav7888/27bffWo8ePVLauummm6xbt27+XtlYLTajocXqszKjxYoV8/aVpVXRMWVelclS0Kq+N2zY0CZPnuxZ2muuueawIcV+Iv9BIAsCW7ZssUGDBlmdOnXshRdeyMKZVEUAAQQQQAABAlP+DCCAQCqBgQMH+lBYZT8VuGkYbzAPc/bs2R4Aah5qUDTXU8MXNaf0kksu8aGzGqp71VVX+Xw7bTsTFA2tVVCqouPNmzf3zKrmrC5atMgaN27si8cE9VVHQ3d13V27dvlhLS7TokWLoIo1adLEX2vuaIcOHXxl4WeeecaUlX3wwQc9OFbAunr1alPgENl3zVlVsBzmjOmkSZPsvvvuS/HiRewE9OdJc5f15xnz2DnTMgIIIIBA7gvo3zyt9aEpWNlVCEyzS5J2EAiJgBYzatu2rWd8NB9UAaqyjeXLl/dgsnXr1qaMaRBg6rYVvCo4ve6663x+qIbZavithgNrTmpQguBS75XF1HstfqQMrQJbvdfxyKIf8nWtYIElfQ8CZdULjuu12tF1dc3333/f+6NM7j333GOaM6vMrxaniSwKdIM5tJHHE/21Fo7S0OVhw4a5RaLfD/1HAAEEEEAAgfgT0PaC2VUITLNLknYQCJlAvXr1bMiQIT70VsNtlQHVXFMFfgpONVxRZffu3b7SrQI/BZb6zZnmnFavXt2DWg3F1dBZlW+++cY2bdrkWVGtuqv3Gq6rQFPDhjV3VCv6BnNatbquglstklS8eHE/1xvK4D/bt2/3YbyaA6vsaa9evTxzeu+993p/NQdV19HiSCrqgwLhyOA2g6YT7rB+kXDzzTf7nNqE6zwdRgABBBBAAIGEENAv+CMTBsfSaQLTY9HjXARCLtC1a1cPFpUxVXCoeZ1amEhDdq+99lrfskWLDPXp08e0Qq4WFNJwXf0lpWBWwzzq16/vAaCoFKRqgaN27drZ+PHjfX6n5pQqqNUqvsruaS6p5pAqA6v3GiqsQDPttjLp0Y8aNcr7pwWONGxX808V+Cqo1XXVVy3o1Lt3b8+S6v2NN97o7afXXqIf00JU+qLkjMDmzZv9lzlVq1b1P285c1WuggACCCCAQDgEWJU3HM+Ru0DgmAW0N6jmfGovxqDoN2C33HKLb80ybtw4zzZqFV3tDfr222/7okcKPDVvU4GksqUKDrUirwKiL774wvRDelD69+/vw3IVcCpwfOKJJ6xTp07+sTKwQ4cO9T1U1ca7775r2uf0vffe82BXlTSkV/NLFWgGRdfVPFTN7dO+qXqvvmmOqYLcv//97x746jy1W7FiRR/aqnZVP8jOBu3xHYGjFdAvUZYvX25r1qw52iY4DwEEEEAAgTwrkJQ8jC31hK48S8GNIxBbAe3FqaGl+uH1rbfe8jmVsb1i7FrXYkEakqvFibTSrTKeQdGWGVqISAFiMHdTW9Ao26ogV8NLlVnS55pXml7RkFxdQ8FyZNvp1U3vmLauUSlVqtRh58tfQbHmoyrAPZr207tmdh7TYk0aOh0E0dnZNm3FTkAjBNauXet/7vXsKAgggAACCCAQvUD6PxVGfz41EUAgDwook5rREFEFq/rKqOhczX/MrCjYPZaioDejomA4o75ndA7HEYhGQHOVg/nU0dSnDgIIIIAAAgj8V4ChvP+14BUCCMRIQD+wa4hw5Eq+MboUzSKQawJBxlSLdlEQQAABBBBAIGsCZEyz5kVtBBA4CoHKlSvbk08+6XNGj+J0TkEgIQQUkGq4eq1atezpp59OiD7TSQQQQAABBOJFgMA0Xp4E/UAgxALFihWzM888M8R3yK0hYD5nWSs+Ry4ghgsCCCCAAAIIRCdAYBqdE7UQQAABBBDIVECLaV166aWZ1uFDBBBAAAEEEEhfgDmm6btwFAEEYiywYsUK0xY0WoE3ozJ79mxbtGhRRh9zHAEEEEAAAQQQQCAkAgSmIXmQ3AYCiSYwffp0e/zxx317jfT6ri1l7rzzTvvzn//sW8ekV4djCMSTgLb5eemll3zv3XjqF31BAAEEEEAgEQQYypsIT4k+IhBCAe0nqj1PM9pKWfP0Lr/8ct9+Q1vMUBCId4EdO3bY+++/74t8MaQ33p8W/UMAAQQQiDcBAtN4eyL0B4E4Fti5c6fph++SJUtakSJFUnqqYxqSq/1L01v4RUHo1q1bvb4+1/YxkWXv3r22ZcsWK1WqVEq7SUlJ1rdv35S6Bw8eNNUrWLCgB7MbNmww7XeqeX2qG1mCfgbX2rdvnxUqVOiwepHn8BqBYxXQ/rhDhw5N+TN8rO1xPgIIIIAAAnlJgMA0Lz1t7hWBoxRQ4Pnmm2/apEmTbNu2bVa6dGm76aab7KSTTvJhi6NHj/bjCkzPPvtsu/HGGy3Ics6bN89ee+21lLmiZ5xxhvXv3997omzpmDFjbMqUKaahu9WrV7eBAwda7dq1Pfi855577MQTT/T2NNdUW87ofA0DXrhwoVWsWNHbOv3007097SOpjNVnn33mgXLZsmWtW7du9uOPP9pdd91l2raGgkCsBPRLkxNOOCFWzdMuAggggAACoRZgfFyoHy83h8CxCyjbOHjwYPvTn/7kmdKePXvarl27bMGCBbZu3TrPEB133HF2/vnnezb14YcftvHjx/uFlQW98MIL7fvvv7euXbtaq1atbPHixX6+Kiho1X6PCizr1q1rI0eOtNtvv93PVdA6duxYmzFjhr9X4Dp8+HB76KGHPCur7We+/fZbfx8MB3777bftD3/4gwell1xyiRUoUMAD6AkTJnjfvCH+gwACCCCAAAIIIBB3AmRM4+6R0CEE4kvg559/9gzkAw88YHfccYd3rl+/fv599+7d9vHHH3vmUkN5lfHU8NuZM2dax44dffEiDc999dVXrUmTJofdmLKqWtzoiiuu8GG6ysZ++OGHpqG4kUOFI0/s1auX/fGPf/TPy5cvb8qqatEZDRdWYNu4cWMPYDV0V3NU169fb2vWrIlsgtcIxERAf9b0i5GaNWvao48+GpNr0CgCCCCAAAJhFSAwDeuT5b4QyCYBbeuiuZ0KONMWBX/KgP7tb3+zVatW2erVq30IrgJFZVWV0TznnHM8WEx7rt5Xq1bNmjVr5h+prYYNG/oQYGVHq1atetgpRYsWtZYtW5q+q9SqVcuzp2vXrvWVe1euXGkDBgzw+aTByRdffLE9//zzwVu+IxAzAf0Zbt68uf+iJmYXoWEEEEAAAQRCKkBgGtIHy20hkF0CGo5brFixVMFe0LaG2t59990+d/Oiiy7y+aA9evTw4FQZVK26qwWIgvmmwXnBd2VT1XZQ9F4LGWmho/SKhuaWK1cu5SNlVTWvVdlSDTlOL9Ma2X7KibxAIAYC+vN76623sshWDGxpEgEEEEAg/ALMMQ3/M+YOETgmAWUuN27caEuWLEnVjrKoWlRIw3lHjRrlCxRFBpQKIPWD+vz5832obXCy5oMGc0LTrqYb1Mnse0bnaHVeLco0YsSIlMBW/VEfKQjkhID+bCprqkWQKAgggAACCCCQNQEyplnzojYCeU6gQYMGPsRWq9oqG1SlShVfEVeLFakoU6m5nQpCtXJvULQlzL333uuLEz311FPWuXNn06q5Gqar+afZXRRAaxjlRx99ZMOGDTP1e/bs2f5eASsFgVgLKGOvhb/0/4X27dvH+nK0jwACCCCAQKgECExD9Ti5GQSyX0ALGg0ZMsQXGdLiRxo+W6lSJV/cRcN2f/rpJ18UST+M9+nTxz799NOUobt6r7mmzz33nG8ro2ySVvXVljJp9zKN7LkyT0FmNBgGrO+RxyPr6zNlTDWsWPNctVCT9jjVIjTXXnutffLJJyntRZ7HawSyU0BzqzXfuk6dOgSm2QlLWwgggAACeUIgKXlI3aE8cafcJAK5LKDMolaU1XzIt956y7cyyeUuZfnyynYq0FTWNAgY1Yi2jdHwRe0bml7RvWsocI0aNVIWLkqvXnYd27Rpky/YpH1Ltfep9l8dOnSo9zu7rhHLdhTgXHXVVb6IjvZlpSSGgIa3z5071+dNK2NPQQABBBBAAIHoBciYRm9FTQTyvIACz/SCT2VQMysKWuvXr59ZlWz5TNvUaLGj2rVr+zxTBaTvvvuu76HKcN5sIaaRTAQ0IqBFixaZ1OAjBBBAAAEEEMhIgMA0IxmOI4BAwgkoCP3666995V4tfKStbpSlVfYx2GIm4W6KDiOAAAIIIIAAAnlAgMA0DzxkbhGBvCKgubAUBHJLYMOGDfbggw+a5mU/9NBDudUNrosAAggggEBCCrBdTEI+NjqNAAIIIBBvApp3rcy8FgijIIAAAggggEDWBMiYZs2L2ggggAACCKQrUKZMGc+UFijAP63pAnEQAQQQQACBTAT41zMTHD5CAAEEEEAgWgFlTMuVKxdtdeohgAACCCCAQIQAQ3kjMHiJAAIIIIDA0Qpou5hZs2bZr7/+erRNcB4CCCCAAAJ5VoDANM8+em4cAQQQQCA7BbTPrxY9euGFF7KzWdpCAAEEEEAgTwgwlDdPPGZuEgEEEEAg1gLaK/fOO++0EiVKxPpStI8AAggggEDoBAhMQ/dIuaF4F9i1a5ctWbLEWCAl3p9U7vVv+/bttnv37tzrAFc+KgGtxnvWWWcd1bmchAACCCCAQF4XIDDN638CuP8cE0hKSrJ69erZ8OHDrV+/fqb3FATSEzhw4ID/8uK4445L72OOIYAAAggggAACoRMgMA3dI+WG4lVAGdKbb77ZSpYsaWvXro3XbtKvOBFo3bq1tWrVKk56QzeiEdAc02effdYqV65sN910UzSnUAcBBBBAAAEE/r9A0qHkggYCCCCAAAIIZF1g69atNmjQIBs/fryfrF866atZs2b+/rbbbrPrrrsu6w1zBgIIIIAAAnlMgIxpHnvg3C4CCCCAQPYJaMGj2rVr2/z5823Pnj0pDc+ePduqVKmSEqCmfMALBBBAAAEEEEhXgO1i0mXhIAIIIIAAAtEJXH311VaxYsXDKnfp0oXA9DAVDiCAAAIIIJC+AIFp+i4cRQABBBBAICoBZU0HDhyYqq6OXXbZZVa4cOFUx3mDAAIIIIAAAukLMMc0fReOIoAAAgggkCWBRo0a2S+//OLnnHfeefbFF19k6XwqI4AAAgggkJcFCEzz8tPn3hFAAAEEsk1g5MiR1rNnT29v0aJFVqdOnWxrm4YQQAABBBAIuwCLH4X9CXN/CCCAAAI5IqDtfdq3b2/169cnKM0RcS6CAAIIIBAmAQLTMD1N7gUBBBBAINcEtAqvtoZp06ZNrvWBCyOAAAIIIJCoAgzlTdQnR78RQACBHBaYN2+ezZgxI4evmliX2759uy94VLBgwcTqeA73tly5ctauXTsrWbJkDl+ZyyGAAAIIxKsAGdN4fTL0CwEEEIgzAc2hfOCBB+KsV3QnEQVatGhh77zzDoFpIj48+owAAgjESIDANEawNIsAAgiETeDgwYNWvHhx69+/vzVu3Dhst8f95JDA22+/bZs3b86hq3EZBBBAAIFEESAwTZQnRT8RQACBOBAoUqSIde7c2b/ioDt0IQEFpk2bZlOnTk3AntNlBBBAAIFYCuSLZeO0jQACCCCAAAIIIIAAAggggMCRBAhMjyTE5wgggAACCCCAAAIIIIAAAjEVIDCNKS+NI4AAAggggAACCCCAAAIIHEmAwPRIQnyOAAIIIIAAAggggAACCCAQUwEC05jy0jgCCCCAAAIIIIAAAggggMCRBAhMjyTE5wgggAACCCCAAAIIIIAAAjEVIDCNKS+NI4AAAggggAACCCCAAAIIHEmAwPRIQnyOAAIIIIAAAggggAACCCAQUwEC05jy0jgCCCCAAAIIIIAAAggggMCRBAhMjyTE5wgggAACCCCAAAIIIIAAAjEVIDCNKS+NI4AAAggggAACCCCAAAIIHEmAwPRIQnyOAAIIIBC3AocOHbJ9+/bZgQMHMuxjNHUyPDmTDzZu3Gjz5s3z62dS7ag+WrdunS1YsMD2799/VOdzEgIIIIAAAokmQGCaaE+M/iKAAAIIpAjMmTPHbrzxRhs4cGDKsbQvVq1aZddcc4298MILaT86pvcvvfSS3Xrrrfbrr78eUzvpnfz000/7PanvFAQQQAABBPKCAIFpXnjK3CMCCCAQUoE1a9bYiBEj7JlnnrFZs2ale5evvfaavf322zZlypR0Pz/ag+edd5517drVatSo4U1MmDDBrr76asuOYLJHjx7WpUsXK1++/NF2j/MQQAABBBBIKAEC04R6XHQWAQQQQCA9gaJFi9rQoUMPG/q6YcMGe/nll61IkSLpnWa7d+82DcnduXNnqs81/Hfv3r128OBB/9qyZYtt3749VZ2TTjrJM6alSpXyuhrWO3fuXNu1a5ft2bMnVV21pets27bN1HZQgutoKLKu9fvvv/uw5DZt2niWt1ixYl5V56uO6m/duvWwdoL2dD+bNm3y4cVqT+dREEAAAQQQSASBAonQSfqIAAIIIIBAZgJXXHGFff311zZ//nw78cQTU6oqKFXQ2apVq5RjeqEA7t///rcpy7l582YrWbKktWvXzvr27euvFdw9/vjj1r17d/viiy9s4cKFVrhwYbv88sutW7du3paOT5s2zW6//XZ77rnnbNy4cbZkyRK77777PIv65JNPWr58+fx8ZXXXr19vCjRPOeUU+5//+R+rWLGiKeDVkODmzZvbjz/+aIsXL7aHHnrIXy9fvtxuuOEGU+A7aNAga9mypc2ePdvntardCy+80C677LKU+/ryyy/9nnQ/VapUsdatW3t99aNQoUIp9XiBAAIIIIBAPAqQMY3Hp0KfEEAAAQSyJKBgTsN6x44d65lHnbxy5Up79913fbjt8ccfn9KeMomDBw+2m2++2Xbs2GGdO3f2c+6++2579dVXPTOp7OgHH3zgwd/q1autYcOGNn78eLvyyis9+FRjM2fOtE8++cSzl2XLlvUAsmDBglahQgX/Uh0NI1bQvHTpUh+aW61aNXvggQfsqaee8qyqrj9q1Ci75ZZb7LPPPvOgWFnRH374wUaPHu3ZV7WjwFbzZH/++Wc7+eSTbfr06da/f38PxPW52ujTp48vmHTuued6ZlXzX994443DssiqT0EAAQQQQCDeBMiYxtsToT8IIIAAAlkWUGCobOann37q2cjSpUt7plJDee+991578cUXU9rUgkkKOlX/73//uyUlJXmQetttt9m//vUvD/CCyqeddpof0/s6dep4BvObb76x2rVrB1X8+5133mklSpTwYbT333+/Z0xXrFhhr7zyimdwFXQGw4lr1qzpgfEdd9yR0oYyuBMnTvSMasrBNC+aNm1qw4YNs+LFi3ubyrqOHDnSatWqZX/5y198PqoC2EqVKnlwrUyxPqcggAACCCCQCAJkTBPhKdFHBBBAAIEjCvTu3dszhhoSq6G4n3/+uWdLGzRokOpcBYzKgv7pT3/yoDT4UOdrKK6ymEG5+OKLg5c+HFjZTM0VjaYoS6rA+K677koJSnVe27ZtTZnVRYsWpTSjhY6C+aQpB9O86Nixow8n1uHGjRt7gKosse5Hw3579erlQak+11BfZYILFOD3z/KgIIAAAgjEvwCBafw/I3qIAAIIIBCFQLNmzTx4HDJkiA9xnTp1qg0YMOCwM4PFidKueKsFlJQ9VfAZFGUjg6IhuioaChxNUcZSiw8F5wXnKChV9jQyAG7RokXwcYbfNW80f/78/rkywgo6tSCSFkzSdSIDW92H3kfb1wwvygcIIIAAAgjkkACBaQ5BcxkEEEAAgdgKaDivFiuaNGmSPfLII6ZhuPXr1z/sogpIy5Qp44slRQah2o9UbQRDbnWiArygRL4OjkV+V5YyWF1Xx7W4kRZV0qJMkQGispxaWTcyk6tg9Ugl8vqRr3U/6rMWY9q/f783o+tpwabI6x6pfT5HAAEEEEAgNwUY45Ob+lwbAQQQQCBbBbRi7tNPP+3BqfY2VaCpDGlkadSoka9wq8WBtPJu3bp1bdmyZb4gkc4vV66cD8GNPCea15qDqgWXNAe1Xr161qRJE9O2L88//7zPA1VGV0OMldHVCsDKpGpV3mMtVatW9ZV+P/74Y/vHP/7hWeMFCxbYP//5z2NtmvMRQAABBBDIMQEC0xyj5kIIIIAAArEW0MI/N954oy92pHmbkZnF4NoaEqvgUIsiqa6CV22xojmaWplXiwtpHqkyoOmdH7SjYbWRnyvg1d6mf/zjH02r7ypz+9hjj/m80IEDB/qqvRreq21cdFzXUeZUbUS2o/aDIbvBtTLqi87TVjBqT0ODde0gI3zOOefY8OHDgyb4jgACCCCAQFwLJCUPY/rvZJq47iqdQwABBBDITQFlF5999llfpVYL64ShKDBcu3at1U5eZTc79vrUP6laQEmBqfY9DYoCUi1SdNxxx5nmssai6NraK1XzTatXr27aw3Xo0KE2ZcqUVMOTY3HtrLSpeb+a//vee++lO9Q6K21RFwEEEEAgPAJkTMPzLLkTBBBAAIEsCmgRIX1lV1EGU0N60xYtRHTCCSekPZxt77UFjgLr4NraY1Vby2goMSvzZhszDSGAAAIIxFCAwDSGuDSNAAIIIIBATgi8+eabNm7cOM+U6nraikZDhfv160dgmhMPgGsggAACCByzAIHpMRPSAAIIIIAAArkrMHjwYPv+++9tzJgxpmHD2pNVe7AqOKUggAACCCCQCAIEponwlOgjAggggAACmQhoGG+HDh38K5NqfIQAAggggEDcCrCPadw+GjqGAAIIIIAAAggggAACCOQNAQLTvPGcuUsEEEAAAQQQQAABBBBAIG4FCEzj9tHQMQQQQACBWAn8/PPPNn78+Fg1f1i727Zts0ceecS+/vrrwz7jAAIIIIAAAgiYEZjypwABBBBAIM8J/Otf/7K77747x+5be4yWKFHC2Do8x8i5EAIIIIBAggmw+FGCPTC6iwACCCCQeAKlSpWyW265ha1bEu/R0WMEEEAAgRwSIDDNIWgugwACCCAQ/wI7duywjz/+2IYNG2ZbtmyxihUr2n333WennXaa5c+f3+bOnetDcpcsWWI1a9a0E0880cqVK2c33nijHTx40N5991176623fMsWnbNy5Ur705/+ZDVq1LBBgwZZt27drGPHjva3v/3N1q9fb/ny5bOvvvrKihUrZk8//bS1bNnS9u/f73uS/uUvf7Ht27fbySef7JnWHj16WJcuXeIfkR4igAACCCBwFAIM5T0KNE5BAAEEEAifgALCN9980x588EG74IIL7OGHH7Y6derYhRdeaD/88IMtW7bMA0ttzTJw4EBr3ry5B5MLFy70oHTs2LH217/+1Xr27Gn33HOPKXgdMWKE/f7777Zv3z6bM2eOrVmzxuF++eUXe/755z3wHDBggO3evdszqtqDdMKECdanTx9r1aqV3XXXXXbgwAF76aWXbPXq1eFD544QQAABBBD4/wJkTPmjgAACCCCAQLLA1q1bbfTo0Z6VVAY0KSnJ2rdvb5qPquNVqlSxFStW2L333mtNmzb14HXGjBkpdu+88461aNHCrr32WitZsqSVL1/epk+fnvJ52hcVKlSwwYMHW5EiRWzXrl322GOPeeCqjGvx4sXtgQce8Exq9+7dbcyYMWlP5z0CCCCAAAKhEiBjGqrHyc0ggAACCBytgIbxrlu3zs477zwPStWOAkwNr121apUtWrTIFExq+K6KhuE2btzYX+s/v/32mzVq1MjP0fuqVata6dKl9TLdcvrpp3tQqg8V6GphJGVOlYHt0KGDB6X6TIFrvXr19JKCAAIIIIBAaAUITEP7aLkxBBBAAIGsCCgALFu2rH3zzTcpp2mO57x586x69eoeZG7YsMHnjQYVvvvuu+Clf758+XIPLnVQgawC3YyKMrJBCV7ruxZK0rDfvXv3+sfaambWrFlBVb4jgAACCCAQSgGG8obysXJTCCCAAAJHElCQ+d5776VUa9KkiQ/d1dxPDclVZlTDczXMVvNGldHU/NMnnnjCh+tqLuiUKVN8rqkaueiii2zIkCF25plnWt26de3VV181XSMrRYGp5rRqBd+XX37ZzjjjDJ9funbt2qw0Q10EEEAAAQQSToDANOEeGR1GAAEEEDhWAS1gtHnzZrvuuutSmtJ8z9tvv91X49UcUwWitWrV8vmdJ510ktcbPny4r8D7xhtv+OJE11xzjRUsWNCH9WrBIs057devnx/TAkoaglu0aFEfGqyMrOqq6Ppa1CgoWvFXK/NqeLD6pOG8999/v3981VVXWadOnaxw4cJBdb4jgAACCCAQOoGk5H94D4XurrghBBBAAIFsF3j88cft2Wef9cWAOnfunO3tx1ODe/bs8RVzy5Qp49vEqG/651LBpFbY1ecKJLWFi+akKqAN/jndtGmTf6Yhwcp8zp492xczivb+tDqwAlUNI1YGVfNOFZjKPwzbxWgV4qlTp3q2un79+tGyUA8BBBBAIOQCZExD/oC5PQQQQACBrAsoO5k2Q6ntWm699VZfmEgLG2mlXm0ho0WMFEB+++23Hmy1a9fOg8nXXnvNzjrrrCwFperppEmTfB/Vtm3beh/++c9/+tzXZs2aZf1GOAMBBBBAAIEEESAwTZAHRTcRQAABBHJXQBnSatWq2YsvvuhzRzW8V3NUtaKuihZO0lzQG264wbeKueyyy+zuu+/OcqcrVarkCx8NGjTIM7Sas/rMM89Y5cqVs9wWJyCAAAIIIJAoAgSmifKk6CcCCCCAQK4KaFivFkbKqChA/eCDDzL6OOrj2nJGe6dSEEAAAQQQyEsCbBeTl54294oAAggggAACCCCAAAIIxKEAgWkcPhS6hAACCCCQuwK//PKL3XPPPelu96KFjzRkN1jsKG1PtWjR+vXrU626m7ZOtO8XL15sGtKrBZAoCCCAAAIIhFmAwDTMT5d7QwABBBA4KgFtJaM9StMLCD/66COrUqWKDR069LC2FZR27drVGjdubP/5z38O+zztgTlz5tjSpUvTHk55r+1ntEXNqlWrUo7xAgEEEEAAgTAKEJiG8alyTwgggAACMRd44oknfM/TyAt9/fXXNm/evMhDmb6++eabbfz48RnW6dmzp33xxRdWt27dDOvwAQIIIIAAAmEQIDANw1PkHhBAAAEEXEDZR62ae+mll9pjjz1ma9asSTn+0EMP2aJFi3zLl169evmKupFs2pbloosusuuvv940hDazcvLJJ9uKFStSLXa0Y8cODyKbN2+e6lTtffrqq6/aBRdcYNdcc43va6qhvlqxV0OGhw0bZn/4wx9s586d3nftf3rfffeZAt8ff/zR9y+NzNy+/vrrdvHFF1vfvn1txIgRdvDgQe+H+t67d2/78MMPU12fNwgggAACCCSCAIFpIjwl+ogAAgggcEQBzfnU8NoJEyb4UFqtkDtw4EA/b926dfbOO+9Yt27dfP6nhtz26dPHFAQqcLz33ntNgetxxx3n80q15UtmRfWuu+46016lW7du9aoKiqdNm+ZBY3Du/v377c4777RHH33Ut5pZsGCBXXnllTZ//vyUfVILFCjgrzV39fPPP/fA+LfffvNj+v73v//d9Jm+rrrqKvvf//1fq127tmn7mu+++84+/vhju+OOO0yr+WqIcTRDiIP+8R0BBBBAAIF4EWC7mHh5EvQDAc8Pd2IAABy1SURBVAQQQOCYBJKSkuy2226zQoUK+eJE+/btszfffNP0PSgKRhWAag6pgksFsdqbVBlNLXakTKXa0WvNMc2sKON5/vnn27fffmvdu3f3rGWTJk2sVq1aKadpWO/LL7/sgamyuApUzznnHM/IKqM7ZswYz3wqk6o+qaiN999/3/sRuf3MxIkTPRuqQLRTp05eV0G12i9atKgH2gpO1X8KAggggAACiSZAxjTRnhj9RQABBBBIV0BB3/fff+9Booa0fvLJJx6gRg6DveKKKzxwK1eunNWvX99+//13z14qeO3Ro0dKUKfM6pGKAtuOHTvaqFGjfHGiN954w8477zwrWbJkyqmzZs3yjOwrr7zi2VoFssreKgjNaFXfLl26pPQjpaHkF2qrfPnydvbZZ6cczp8/v/ehatWqpuHJypxqiDEFAQQQQACBRBMgME20J0Z/EUAAAQTSFVi4cKEPc9Vcyx9++MGzlJFBok6KfF+8eHEPDhXcqWzZssW/6z/RDofVPM/Jkyfb4MGDrVSpUnbuueemtKEXGm6rDK4CU2Vn9bVs2TIfrhtkNtMGqJUrV07VRvBGQ341Z3bDhg3BIf/esGFDH5KsPqh9ZY0pCCCAAAIIJJoAgWmiPTH6iwACCCCQrsCuXbt8e5emTZv6FixaGCgy2Ez3pOSDGv5atmxZ06JCWvRIW7hoCHA0RVnXevXqmRZO0qJJZcqUSXVaixYtPBjW8FsteKQ+aniv5riqqL4WZNLXkUqbNm2sRIkS9vzzz3s/Z86c6Ysjab6q+ty2bVu75JJLbPny5Udqis8RQAABBBCIOwHmmMbdI6FDCCCAAAJHI6C5nRrmqoyhMqMarqtALshMqs3I18E1dN5TTz3l80s1XFZZTgWB06dPD6pk+F0BreaXKsOqYcIqkdfQNi8vvPCCPfzwwz4XVXNBFcw+/vjjVqFCBV+p99lnn/XPFLzq3MjzI1+3bNnSVHfIkCE+fFir8SoQ1YJHzz33nM8zVcCrLWgoCCCAAAIIJJpAUvIQokOJ1mn6iwACCCCQ8wIKphQY/etf/7LOnTvnfAeivOLGjRstX758ngWN8hSvtnfvXp//qUBPw2azs2gOq+Z+KmBWQBpZNN9Uw301tDiaorm0q1evNg351XkqmkerbK/mvSoYj+cyYMAAmzp1qm/XoyCdggACCCCAgASy919eTBFAAAEEEMhlAS0QdDRFQV6NGjWO5tQjnlOwYEGrU6dOuvWUdc1KUdCsADSyFClSxIckRx7jNQIIIIAAAokkwBzTRHpa9BUBBBBAAAEEEEAAAQQQCKEAgWkIHyq3hAACCCCAAAIIIIAAAggkkgCBaSI9LfqKAAIIIIAAAggggAACCIRQgMA0hA+VW0IAAQQQQAABBBBAAAEEEkmAwDSRnhZ9RQABBBBAAAEEEEAAAQRCKEBgGsKHyi0hgAACCCCAAAIIIIAAAokkQGCaSE+LviKAAAIIIIAAAggggAACIRQgMA3hQ+WWEEAAAQQQQAABBBBAAIFEEiAwTaSnRV8RQAABBBBAAAEEEEAAgRAKEJiG8KFySwgggAACCCCAAAIIIIBAIgkQmCbS06KvCCCAAAIIIIAAAggggEAIBQqE8J64JQQQQACBGAgUKFDAdu3aZa+88op99tlnMbgCTeYFgcmTJ1u+fPxePC88a+4RAQQQyIoAgWlWtKiLAAII5GGBnj172pw5c+ynn36yBQsW5GEJbv1YBRo0aGCFCxc+1mY4HwEEEEAgRAJJh5JLiO6HW0EAAQQQiKHAqlWrbPPmzTG8Ak3nBYGiRYtajRo1rFChQnnhdrlHBBBAAIEoBAhMo0CiCgIIIIAAAggggAACCCCAQOwEmOQRO1taRgABBBBAAAEEEEAAAQQQiEKAwDQKJKoggAACCCCAAAIIIIAAAgjEToDANHa2tIwAAggggAACCCCAAAIIIBCFAIFpFEhUQQABBBBAAAEEEEAAAQQQiJ0AgWnsbGkZAQQQQAABBBBAAAEEEEAgCgEC0yiQqIIAAggggAACCCCAAAIIIBA7AQLT2NnSMgIIIIAAAggggAACCCCAQBQCBKZRIFEFAQQQQAABBBBAAAEEEEAgdgIEprGzpWUEEEAAAQQQQAABBBBAAIEoBAhMo0CiCgIIIIAAAggggAACCCCAQOwECExjZ0vLCCCAAAIIIIAAAggggAACUQgQmEaBRBUEEEAAAQQQQAABBBBAAIHYCRCYxs6WlhFAAAEEEEAAAQQQQAABBKIQIDCNAokqCCCAAAIIIIAAAggggAACsRMgMI2dLS0jgAACCCCAAAIIIIAAAghEIUBgGgUSVRBAAAEEEEAAAQQQQAABBGInQGAaO1taRgABBBBAAAEEEEAAAQQQiEKAwDQKJKoggAACCCCAAAIIIIAAAgjEToDANHa2tIwAAggggAACCCCAAAIIIBCFAIFpFEhUQQABBBBAAAEEEEAAAQQQiJ0AgWnsbGkZAQQQQAABBBBAAAEEEEAgCgEC0yiQqIIAAggggAACCCCAAAIIIBA7AQLT2NnSMgIIIIAAAggggAACCCCAQBQCBKZRIFEFAQQQQAABBBBAAAEEEEAgdgIEprGzpWUEEEAAAQQQQAABBBBAAIEoBAhMo0CiCgIIIIAAAggggAACCCCAQOwECExjZ0vLCCCAAAIIIIAAAggggAACUQgQmEaBRBUEEEAAAQQQQAABBBBAAIHYCRCYxs6WlhFAAAEEEEAAAQQQQAABBKIQIDCNAokqCCCAAAIIIIAAAggggAACsRMgMI2dLS0jgAACCCCAAAIIIIAAAghEIUBgGgUSVRBAAAEEEEAAAQQQQAABBGInQGAaO1taRgABBBBAAAEEEEAAAQQQiEKAwDQKJKoggAACCCCAAAIIIIAAAgjEToDANHa2tIwAAggggAACCCCAAAIIIBCFAIFpFEhUQQABBBBAAAEEEEAAAQQQiJ0AgWnsbGkZAQQQQAABBBBAAAEEEEAgCgEC0yiQqIIAAggggAACCCCAAAIIIBA7AQLT2NnSMgIIIIAAAggggAACCCCAQBQCBKZRIFEFAQQQQAABBBBAAAEEEEAgdgIEprGzpWUEEEAAAQQQQAABBBBAAIEoBAhMo0CiCgIIIIAAAggggAACCCCAQOwECExjZ0vLCCCAAAIIIIAAAggggAACUQgQmEaBRBUEEEAAAQQQQAABBBBAAIHYCRCYxs6WlhFAAAEEEEAAAQQQQAABBKIQIDCNAokqCCCAAAIIIIAAAggggAACsRMgMI2dLS0jgAACCCCAAAIIIIAAAghEIVAgijpUQSBUAocOHbI1a9bY4sWLrWrVqla7dm1LSkoK1T1yMwgggAACCCCAAAIIJJIAgWkuPa3907+xgysXJV/9UJQ9SLJ81evYznrV7ddtE23PgR1RnmfJQVc+a1Sph5UpWtOSkv+XXlm3bp0tXLjQDhw4YCVLlrQTTjjBihYtmqrqwYMHbfXq1bZ06VI/XqVKFatZs6b98ssvNmPGDDvppJOsWbNmqc6Jtzfbt2+3Tz75xKZOnWq6n9atW1v16tWtYMGC3lUC1Hh7YvQHAQQQQAABBBBAIC8IEJjm0lPeN+YD2zvh8+S4NMrANDmjV/DMLrahVzv7ctkg27p7ddQ9z5dU0MqfWtvKFKmRHKXmT/e8JUuW2PDhw2337t1WunRpu+666+z4449PVXfnzp02ZswYmzZtmuXPn99OP/10q1y5sv3nP//xYwru4jkwVaZUQfSsWbM8+G7Xrp3VqlXLNmzYYPPmzbMaNWpYgwYNyJ6meuq8QQABBBBAAAEEEEAg9gIEprE3zvgKHpRGGZhGtOJnHDoQcSTzl4eSg9FDnpnN/FoK3PS1Y8cOD+DSBqbr16+3VatWeZ3gisowtm3bNmVIbHA8Hr8rQ7pp0ybbs2ePnXrqqdahQwcrXLiwB+STJk2yLl26eKaYrGk8Pj36hAACCCCAAAIIIBBmAQLTMD/dLN6bArJChQp5sDZ9+nQ799xzU4a4KqhTZnTLli2eWdQczaAouKtWrVrK0F8Ft3v37rWNGzeahs7u27fP261UqZJ/V4ZS7ZUpU8brqH6dOnX8mIYUB+coA6vsbbly5bwfqrdr1y7PcKqO+luqVCkPivPly+fXUf+2bt3qr5XVLVGihJUvX94KFCjgQbX6pHaUGdaQZF1Dx9RHBa2LFi3yNtVXCgIIIIAAAggggAACCOSMAIFpzjgnzFXKli1r9erV8+GuGvJ6yimneN8VtGkOqoLJxo0b++JBwU19//33poyjhvb27NnTtm3bZlOmTPF5nL///rtXU+DYqVMnO+6443yOpwLL+vXr2/z58z1QHDhwoM2cOdMmTpxoOkfBo0rFihWtffv21rJlS890fvvtt962AlQVZXWvvPJKD1Jnz55t3333nSm41VxZFfW3TZs21qRJExs5cqTfw/79++2nn37yQFvBrfqi62merIJvDUe++OKLGdLrgvwHAQQQQAABBBBAAIHYCxCYxt44oa6gjGkQmCoI1IJGCt6WLVvmGUYFecpCRhYNjVVwpyykAjwFmF9//bUHh1pcSHM3165d61lLBYUaKqwspdpVkKsgUgHqZ599ZvpcAa4WJFL28scff7Qvv/zS57JqjqsCT2U/e/Xq5V3QMRWtsKv5r8rGtmjRwurWrWsrV670YHPcuHGezW3evLlnZTXPtHbySrwKjJVVVUCq7KnmmzZq1Mi0qBMFAQQQQAABBBBAAAEEck6AwDTnrBPiSgoWtSKvhrJqTqmCQ71W8KagVcHc5s2bM7wXDeHVMGAFjBdccIGdccYZKcOBNVxWiyypKLg866yzTAsQaVjvW2+95QFrx44d/Tz1QwGmyg8//OBfCpiVKdXQXAW76pfaUfn55589U6oM74UXXujBs9pVO8roKvDs3r27B9ALFizwwPXss8/2e1LQrMBb2ddzzjnHlN2lIIAAAggggAACCCCAQM4J8BN4zlknxJUUyGnepoI0DamdO3euZx41xFVbw2gV3syKzlHmVENwNW802IZF5+i12lfRVjQNGzb0IFAZUwXA+kzBalBHc1fVDwWYK1assAoVKngfNKz43XfftbFjx3rflGXV8GFlP5VpLV68uF9DAaYCaV1LGVr1i4IAAggggAACCCCAAALxJ0BgGn/PJNd7pABS2UoFdhpiq3mfCg4VaGoOamZFGVMFmgoqlWHNqCj41OdBEKrgUkXBZVD0mfqg77p+1apV7bzzzrOmTZv6Akfjx4+3UaNGeWY3yI6mzXYqo6rzNcQ4mLcatM93BBBAAAEEEEAAAQQQiA8BAtP4eA5x1QsFcsp4av7n8uXLfZisVsbVAkJpA7+0Hdf8UwWlWoBIczwVpCogVOCoobzpBYdqU9lQfaZAWHX1WkGuhtnqc636qyBTGdS+ffvaJZdc4kGyhuX+9ttvVqRIEZ+fqjmmmvMaXFNDeJUp1fBf9SuzElw3vT5mdh6fIYAAAggggAACCCCAwLEJMMf02PxCe3axYsV8NVwtFKSATdlSBYcKNDMrCkxVd/Xq1TZhwgSf06ksq+alaoVcBZBpiwJOzQ1VIPvpp5/6XFPVVVCq+aU6v1WrVh4kKxBV5lTBo9pS1lV91WJHCmrnzJnj71VH28ZoISYN7VVAqyG96RW1r2Bcqw7rfNXXEGAKAggggAACCCCAAAII5IwAgWnOOMf9VRQcKiBTkKcSZCk1D1TzM0877bSUYbcKBlVXGUgFdHofZEo1FFd1tfKuglqtlBvMM9W2L1q0SNfQsSD7qu/aomXVqlWenR09erRnRxUEq65WAtaKuWpv8uTJ3j8FpvpSFleLNem15p5q4aVg5V4F1Oqjzm/QoIFfT9dV3yOHEWvlYW0fowWQRowYYVq9l8DUmfkPAggggAACCCCAAAI5IkBgmiPM8X8RBYxdunRJlVUsXbq0nXvuuR6YKguqosBTQWLXrl09c6lAT8GhMpxaeEhFbWlFXi2YpMypAkxlJRV8KgDWAkcKGiMzmPpcq+kqgNTwYQ3jVbCroFPX03lafKlDhw6+JYyuo+spcFY/VbSirlbu1UJKWhU4yKSq78qu6prKnCooVVvBfFa107t3b++v+qo+UBBAAAEEEEAAAQQQQCDnBJKSM02Hcu5yXCkQ2PP2M7ZvxneWnOoLDmX+PTkzWbBFG9vUoYWNXvOc7dizKfP6EZ8mJeWz7o2fsBqlWydnOHN2WrGCQZUgOxrRrQxf6o+kvpSN1VfacqQ2j3R+2vaC90dqN6jHdwQQQAABBBBAAAEEEMheAQLT7PWMurXVK1ba1s1bo66viqXKlray5QokD5OdYQcO7srCuUnJGcu2yZnCisnnHB7oZaEhqiKAAAIIIIAAAggggAAC2S7AUN5sJ42uwWFbytmE1aWiq5xcS+FkOytg/Yr8ZhVXvmWWhYxpctrRrEjyMNuCFZIbIjCNGp2KCCCAAAIIIIAAAgggkCMCBKY5wnz4RWZtOGCjl+6z/xvoevjnaY8onCxZIMl2ldlgtm6i2a4Vaatk/D5f8n6itQckf66rHXkor4a0LlmyxFfS1dzM2rVr+4JBGV+ATxBAAAEEEEAAAQQQQACBoxcgMD16u9CeqRV1x40bZ4sXL7aSJUtar169WBAotE+bG0MAAQQQQAABBBBAIPcFjpw+y/0+0oMcFNDCQStWrLClS5f6PqDaS1T7gx5p/9Ic7CKXQgABBBBAAAEEEEAAgZAJkDEN2QM91ttRAKpMqbKm2jZFQaq2fenUqVPK9i4KXnft2mV79uw57HJaRVfDf/WZ6mnLF231orJ7927/0ufaXzR4r31FVV/XrFChgm/jovfbtm3z46qvdvSdggACCCCAAAIIIIAAAuETIDAN3zM9pjvavn27/frrrx4E9ujRw8aPH28LFiywefPmWcuWLb3t/fv326RJk2z69OmHXUt7h5566qn2008/efDap08f3+9UFWfPnm3fffedtW/f3po3b24//PCDTZ061dq2bWtz5841ZWevvfZa096oqvfLL7/Yvn37vC/az/T000+3ypUrH3ZNDiCAAAIIIIAAAggggEBiCzCUN7GfX7b2XhnOjRs3+jDeatWqWa1ataxmzZqe2ZwxY4ZF7vNZrlw5/1x1VPf333/37GrFihU9kFy1apW/V1Y0KEEdZUJ1ra1bt9ry5cttzJgxtn79eitdurQHoqNGjbLJkyd79lTBaKlSpfz9xIkTvS9Be3xHAAEEEEAAAQQQQACBcAiQMQ3Hc8yWu1AmdMqUKR40tmrVyvLly2d169Y1BaErV670gLVOnTo+1LZZs2bWuHFjD1aV+VRGVUN/zznnHB+Sq8BTX2lL5HG9VrCr4cPXX3+9B7Qazqtsq65zwQUXWJkyZez444+31157zTOoJ598stWrVy9ts7xHAAEEEEAAAQQQQACBBBYgME3gh5fdXVcGU8Nz8+fP78NwNaRX2U0NrVUGVHNNlSFVwKpjmju6aNEimzZtms8/VXZTGVMFl1kpbdq08eG+ClSVFdXwXRW1q2tpPquO7d2717ewyUrb1EUAAQQQQAABBBBAAIH4FyAwjf9nlCM9VNYymBeqwHT06NEeoCpY1LxTZVO1t+mmTZt8iK06peG3Y8eOtTVr1vjiSI0aNTItfpTVUrVqVT9P11JbwXcN/Q2KFj7SlwJiCgIIIIAAAggggAACCIRLgMA0XM/zqO9GGUkFpspQamXcsmXLprSluZ/Lli3zLwWO+lyr5mrhIi1Q1LRpU2vdurVp4aPIomG6CjKDsmXLlpR5qsExfdc1g6KMqwLjdu3a2RlnnJEq0A1W/A3q8h0BBBBAAAEEEEAAAQTCIUBgGo7neMx3EWRDS5YsaVpJV3M8g6IhvsOHD/fVejV0t379+r63qYb9KhjVnM+dO3f6kFudo+xr0aJFfSEl1dfiRQpKtfJuMEw3aDvyuwJUDevVirwzZ870+a3Vq1f34FaLMinQ1ZxXCgIIIIAAAggggAACCIRLgMA0XM/zqO5GgeTChQt9PqlW4VWgGew9qga1+NEpp5zigeX8+fN9kaNx48bZunXrfHjtN99843NDVVfZzp49e/rCSMqufvXVV56J1VzVQoUKpcqOqn7aUqlSJd8WRsHpsGHDrEqVKh6Ybt682bRljALmoxkunPY6vEcAAQQQQAABBBBAAIH4ESAwzaVn0aR8flu3O/r5kpq52axC/uRMZHmzCqeb7dkYfc/z5TcrrP0//ztkNvJkzR9VNlKr7LZo0SJVUKp6CjYVsCo41WvNM9VQX80pTVv0uYb+duvWzetoASMFub179/bhv8qyaiiwgksFobqm6gdFdc8//3xTplR7qGrRJWVlNVxYK/5GDvsNzuE7AggggAACCCCAAAIIJLZAUvIcwP9OAkzse6H3CCCAAAIIIIAAAggggAACCSiQfgotAW+ELiOAAAIIIIAAAggggAACCCSmAIFpYj43eo0AAggggAACCCCAAAIIhEaAwDQ0j5IbQQABBBBAAAEEEEAAAQQSU4DANDGfG71GAAEEEEAAAQQQQAABBEIjQGAamkfJjSCAAAIIIIAAAggggAACiSlAYJqYz41eI4AAAggggAACCCCAAAKhESAwDc2j5EYQQAABBBBAAAEEEEAAgcQUIDBNzOdGrxFAAAEEEEAAAQQQQACB0AgQmIbmUXIjCCCAAAIIIIAAAggggEBiChCYJuZzo9cIIIAAAggggAACCCCAQGgECExD8yi5EQQQQAABBBBAAAEEEEAgMQUITBPzudFrBBBAAAEEEEAAAQQQQCA0AgSmoXmU3AgCCCCAAAIIIIAAAgggkJgCBKaJ+dzoNQIIIIAAAggggAACCCAQGgEC09A8Sm4EAQQQQAABBBBAAAEEEEhMAQLTxHxu9BoBBBBAAAEEEEAAAQQQCI0AgWloHiU3ggACCCCAAAIIIIAAAggkpgCBaWI+N3qNAAIIIIAAAggggAACCIRGgMA0NI+SG0EAAQQQQAABBBBAAAEEElOAwDQxnxu9RgABBBBAAAEEEEAAAQRCI0BgGppHyY0ggAACCCCAAAIIIIAAAokpQGCamM+NXiOAAAIIIIAAAggggAACoREgMA3No+RGEEAAAQQQQAABBBBAAIHEFCAwTcznRq8RQAABBBBAAAEEEEAAgdAIEJiG5lFyIwgggAACCCCAAAIIIIBAYgoQmCbmc6PXCCCAAAIIIIAAAggggEBoBAhMQ/MouREEEEAAAQQQQAABBBBAIDEFCEwT87nRawQQQAABBBBAAAEEEEAgNAIEpqF5lNwIAggggAACCCCAAAIIIJCYAgSmifnc6DUCCCCAAAIIIIAAAgggEBoBAtPQPEpuBAEEEEAAAQQQQAABBBBITAEC08R8bvQaAQQQQAABBBBAAAEEEAiNAIFpaB4lN4IAAggggAACCCCAAAIIJKYAgWliPjd6jQACCCCAAAIIIIAAAgiERoDANDSPkhtBAAEEEEAAAQQQQAABBBJTgMA0MZ8bvUYAAQQQQAABBBBAAAEEQiNAYBqaR8mNIIAAAggggAACCCCAAAKJKUBgmpjPjV4jgAACCCCAAAIIIIAAAqERIDANzaPkRhBAAAEEEEAAAQQQQACBxBQgME3M50avEUAAAQQQQAABBBBAAIHQCBCYhuZRciMIIIAAAggggAACCCCAQGIKEJgm5nOj1wgggAACCCCAAAIIIIBAaAQITEPzKLkRBBBAAAEEEEAAAQQQQCAxBQhME/O50WsEEEAAAQQQQAABBBBAIDQC/w9XLU5IwYHVtwAAAABJRU5ErkJggg==;" vertex="1" parent="1">
          <mxGeometry x="40" y="129.99999999999997" width="664" height="469.92" as="geometry" />
        </mxCell>
        <mxCell id="BSDBFG1URIrfFOQFSTYh-2" value="" style="shape=image;verticalLabelPosition=bottom;labelBackgroundColor=#ffffff;verticalAlign=top;aspect=fixed;imageAspect=0;image=data:image/svg+xml,PHN2ZyB4bWxuczpjYz0iaHR0cDovL2NyZWF0aXZlY29tbW9ucy5vcmcvbnMjIiB4bWxuczpkYz0iaHR0cDovL3B1cmwub3JnL2RjL2VsZW1lbnRzLzEuMS8iIHhtbG5zOmlua3NjYXBlPSJodHRwOi8vd3d3Lmlua3NjYXBlLm9yZy9uYW1lc3BhY2VzL2lua3NjYXBlIiB4bWxuczpyZGY9Imh0dHA6Ly93d3cudzMub3JnLzE5OTkvMDIvMjItcmRmLXN5bnRheC1ucyMiIHhtbG5zOnNvZGlwb2RpPSJodHRwOi8vc29kaXBvZGkuc291cmNlZm9yZ2UubmV0L0RURC9zb2RpcG9kaS0wLmR0ZCIgeG1sbnM6c3ZnPSJodHRwOi8vd3d3LnczLm9yZy8yMDAwL3N2ZyIgeG1sbnM9Imh0dHA6Ly93d3cudzMub3JnLzIwMDAvc3ZnIiB4bWxuczp4bGluaz0iaHR0cDovL3d3dy53My5vcmcvMTk5OS94bGluayIgdmVyc2lvbj0iMS4xIiBpZD0ic3ZnOTMyMDEiIGlua3NjYXBlOnZlcnNpb249IjAuOTIuMyAoMjQwNTU0NiwgMjAxOC0wMy0xMSkiIHNvZGlwb2RpOmRvY25hbWU9InJlZGlzX2NhY2hlXzEuc3ZnIiB4PSIwcHgiIHk9IjBweCIgdmlld0JveD0iMCAwIDM3LjUxIDMxLjYiIHN0eWxlPSJlbmFibGUtYmFja2dyb3VuZDpuZXcgMCAwIDM3LjUxIDMxLjY7IiB4bWw6c3BhY2U9InByZXNlcnZlIj4mI3hhOzxzb2RpcG9kaTpuYW1lZHZpZXcgYm9yZGVyY29sb3I9IiM2NjY2NjYiIGJvcmRlcm9wYWNpdHk9IjEiIGZpdC1tYXJnaW4tYm90dG9tPSIwIiBmaXQtbWFyZ2luLWxlZnQ9IjAiIGZpdC1tYXJnaW4tcmlnaHQ9IjAiIGZpdC1tYXJnaW4tdG9wPSIwIiBncmlkdG9sZXJhbmNlPSIxMCIgZ3VpZGV0b2xlcmFuY2U9IjEwIiBpZD0ibmFtZWR2aWV3OTMyMDMiIGlua3NjYXBlOmN1cnJlbnQtbGF5ZXI9InN2ZzkzMjAxIiBpbmtzY2FwZTpjeD0iMzMuNTI0MjM1IiBpbmtzY2FwZTpjeT0iMTkuNzUxMjkxIiBpbmtzY2FwZTpwYWdlb3BhY2l0eT0iMCIgaW5rc2NhcGU6cGFnZXNoYWRvdz0iMiIgaW5rc2NhcGU6d2luZG93LWhlaWdodD0iMTAxNyIgaW5rc2NhcGU6d2luZG93LW1heGltaXplZD0iMSIgaW5rc2NhcGU6d2luZG93LXdpZHRoPSIxOTIwIiBpbmtzY2FwZTp3aW5kb3cteD0iLTgiIGlua3NjYXBlOndpbmRvdy15PSItOCIgaW5rc2NhcGU6em9vbT0iMTMuODg5MzQ4IiBvYmplY3R0b2xlcmFuY2U9IjEwIiBwYWdlY29sb3I9IiNmZmZmZmYiIHNob3dncmlkPSJmYWxzZSI+JiN4YTsJPC9zb2RpcG9kaTpuYW1lZHZpZXc+JiN4YTs8ZyBpZD0iZzkzMTk5IiB0cmFuc2Zvcm09InRyYW5zbGF0ZSgtMC43NDY3NjM4LC0wLjc1MTYyNSkiPiYjeGE7CTx0aXRsZSBpZD0idGl0bGU5MzExNSI+UGFnZS0xPC90aXRsZT4mI3hhOwk8ZyBpZD0iZ3JvdXA0OTc3LTEiIHRyYW5zZm9ybT0idHJhbnNsYXRlKDAuNDA3MjksLTAuNjA5Mzc1KSI+JiN4YTsJCTx0aXRsZSBpZD0idGl0bGU5MzExNyI+UmVkaXMgQ2FjaGUgIzE8L3RpdGxlPiYjeGE7CQk8ZyBpZD0iZ3JvdXA0OTc4LTIiPiYjeGE7CQkJPHRpdGxlIGlkPSJ0aXRsZTkzMTE5Ij5TaGVldC40OTc4PC90aXRsZT4mI3hhOwkJCTxnIGlkPSJzaGFwZTQ5NzktMyIgdHJhbnNmb3JtPSJ0cmFuc2xhdGUoMC4yMzcpIj4mI3hhOwkJCQk8dGl0bGUgaWQ9InRpdGxlOTMxMjEiPlNoZWV0LjQ5Nzk8L3RpdGxlPiYjeGE7CQkJCTxwYXRoIGlkPSJwYXRoOTMxMjMiIGlua3NjYXBlOmNvbm5lY3Rvci1jdXJ2YXR1cmU9IjAiIHN0eWxlPSJmaWxsOiNCQTE0MUE7IiBkPSJNMC4xMSwyNS4xOWMtMC4wNiwwLjQsMC4yOCwwLjgsMS4wMiwxLjExICAgICAgbDE1LjI0LDYuMjRjMS4zNywwLjU2LDMuNiwwLjU2LDQuOTcsMGwxNS4yNC02LjI0YzAuNzQtMC4zMSwxLjA4LTAuNzEsMS4wMi0xLjExdi0zLjU4YzAuMDUsMC4zOS0wLjI5LDAuNzktMS4wMiwxLjA5ICAgICAgbC0xNS4yNCw2LjI0Yy0xLjM3LDAuNTYtMy42LDAuNTYtNC45NywwTDEuMTMsMjIuN2MtMC44LTAuMzMtMS4xMy0wLjc4LTEtMS4yTDAuMTEsMjUuMTl6Ii8+JiN4YTsJCQk8L2c+JiN4YTsJCQk8ZyBpZD0ic2hhcGU0OTgwLTUiIHRyYW5zZm9ybT0idHJhbnNsYXRlKDAsLTMuNikiPiYjeGE7CQkJCTx0aXRsZSBpZD0idGl0bGU5MzEyNiI+U2hlZXQuNDk4MDwvdGl0bGU+JiN4YTsJCQkJPHBhdGggaWQ9InBhdGg5MzEyOCIgaW5rc2NhcGU6Y29ubmVjdG9yLWN1cnZhdHVyZT0iMCIgc3R5bGU9ImZpbGw6I0JBMTQxQTsiIGQ9Ik0zNi44MSwyNC4yNmMxLjM4LDAuNTcsMS4zOCwxLjQ4LDAsMi4wNCAgICAgIGwtMTUuMjMsNi4yNGMtMS4zNywwLjU2LTMuNiwwLjU2LTQuOTcsMEwxLjM3LDI2LjNDMCwyNS43NCwwLDI0LjgyLDEuMzcsMjQuMjZsMTUuMjQtNi4yNGMxLjM3LTAuNTYsMy42LTAuNTYsNC45NywwICAgICAgTDM2LjgxLDI0LjI2eiIvPiYjeGE7CQkJPC9nPiYjeGE7CQk8L2c+JiN4YTsJCTxnIGlkPSJncm91cDQ5ODEtNyIgdHJhbnNmb3JtPSJ0cmFuc2xhdGUoMCwtNi4zMTk1KSI+JiN4YTsJCQk8dGl0bGUgaWQ9InRpdGxlOTMxMzIiPlNoZWV0LjQ5ODE8L3RpdGxlPiYjeGE7CQkJPGcgaWQ9InNoYXBlNDk4Mi04IiB0cmFuc2Zvcm09InRyYW5zbGF0ZSgwLjIzNykiPiYjeGE7CQkJCTx0aXRsZSBpZD0idGl0bGU5MzEzNCI+U2hlZXQuNDk4MjwvdGl0bGU+JiN4YTsJCQkJPHBhdGggaWQ9InBhdGg5MzEzNiIgaW5rc2NhcGU6Y29ubmVjdG9yLWN1cnZhdHVyZT0iMCIgc3R5bGU9ImZpbGw6I0JBMTQxQTsiIGQ9Ik0wLjExLDI1LjE5Yy0wLjA2LDAuNCwwLjI4LDAuOCwxLjAyLDEuMTEgICAgICBsMTUuMjQsNi4yNGMxLjM3LDAuNTYsMy42LDAuNTYsNC45NywwbDE1LjI0LTYuMjRjMC43NC0wLjMxLDEuMDgtMC43MSwxLjAyLTEuMTF2LTMuNThjMC4wNSwwLjM5LTAuMjksMC43OS0xLjAyLDEuMDkgICAgICBsLTE1LjI0LDYuMjRjLTEuMzcsMC41Ni0zLjYsMC41Ni00Ljk3LDBMMS4xMywyMi43Yy0wLjgtMC4zMy0xLjEzLTAuNzgtMS0xLjJMMC4xMSwyNS4xOXoiLz4mI3hhOwkJCTwvZz4mI3hhOwkJCTxnIGlkPSJzaGFwZTQ5ODMtMTAiIHRyYW5zZm9ybT0idHJhbnNsYXRlKDAsLTMuNikiPiYjeGE7CQkJCTx0aXRsZSBpZD0idGl0bGU5MzEzOSI+U2hlZXQuNDk4MzwvdGl0bGU+JiN4YTsJCQkJPHBhdGggaWQ9InBhdGg5MzE0MSIgaW5rc2NhcGU6Y29ubmVjdG9yLWN1cnZhdHVyZT0iMCIgc3R5bGU9ImZpbGw6I0JBMTQxQTsiIGQ9Ik0zNi44MSwyNC4yNmMxLjM4LDAuNTcsMS4zOCwxLjQ4LDAsMi4wNCAgICAgIGwtMTUuMjMsNi4yNGMtMS4zNywwLjU2LTMuNiwwLjU2LTQuOTcsMEwxLjM3LDI2LjNDMCwyNS43NCwwLDI0LjgyLDEuMzcsMjQuMjZsMTUuMjQtNi4yNGMxLjM3LTAuNTYsMy42LTAuNTYsNC45NywwICAgICAgTDM2LjgxLDI0LjI2eiIvPiYjeGE7CQkJPC9nPiYjeGE7CQk8L2c+JiN4YTsJCTxnIGlkPSJncm91cDQ5ODQtMTIiPiYjeGE7CQkJPHRpdGxlIGlkPSJ0aXRsZTkzMTQ1Ij5TaGVldC40OTg0PC90aXRsZT4mI3hhOwkJCTxnIGlkPSJzaGFwZTQ5ODUtMTMiIHRyYW5zZm9ybT0idHJhbnNsYXRlKDAuMjM3LC0xMi42MzkpIj4mI3hhOwkJCQk8dGl0bGUgaWQ9InRpdGxlOTMxNDciPlNoZWV0LjQ5ODU8L3RpdGxlPiYjeGE7CQkJCTxwYXRoIGlkPSJwYXRoOTMxNDkiIGlua3NjYXBlOmNvbm5lY3Rvci1jdXJ2YXR1cmU9IjAiIHN0eWxlPSJmaWxsOiNCQTE0MUE7IiBkPSJNMC4xMSwyNS4xOWMtMC4wNiwwLjQsMC4yOCwwLjgsMS4wMiwxLjExICAgICAgbDE1LjI0LDYuMjRjMS4zNywwLjU2LDMuNiwwLjU2LDQuOTcsMGwxNS4yNC02LjI0YzAuNzQtMC4zMSwxLjA4LTAuNzEsMS4wMi0xLjExdi0zLjU4YzAuMDUsMC4zOS0wLjI5LDAuNzktMS4wMiwxLjA5ICAgICAgbC0xNS4yNCw2LjI0Yy0xLjM3LDAuNTYtMy42LDAuNTYtNC45NywwTDEuMTMsMjIuN2MtMC44LTAuMzMtMS4xMy0wLjc4LTEtMS4yTDAuMTEsMjUuMTl6Ii8+JiN4YTsJCQk8L2c+JiN4YTsJCQk8ZyBpZD0ic2hhcGU0OTg2LTE1IiB0cmFuc2Zvcm09InRyYW5zbGF0ZSgwLjIzNykiPiYjeGE7CQkJCTx0aXRsZSBpZD0idGl0bGU5MzE1MiI+U2hlZXQuNDk4NjwvdGl0bGU+JiN4YTsJCQkJPHBhdGggaWQ9InBhdGg5MzE1NCIgaW5rc2NhcGU6Y29ubmVjdG9yLWN1cnZhdHVyZT0iMCIgc3R5bGU9ImZpbGw6IzFFMUUxRTtmaWxsLW9wYWNpdHk6MC4yNTsiIGQ9Ik0wLjExLDI1LjE5ICAgICAgYy0wLjA2LDAuNCwwLjI4LDAuOCwxLjAyLDEuMTFsMTUuMjQsNi4yNGMxLjM3LDAuNTYsMy42LDAuNTYsNC45NywwbDE1LjI0LTYuMjRjMC43NC0wLjMxLDEuMDgtMC43MSwxLjAyLTEuMTF2LTMuNTggICAgICBjMC4wNSwwLjM5LTAuMjksMC43OS0xLjAyLDEuMDlsLTE1LjI0LDYuMjRjLTEuMzcsMC41Ni0zLjYsMC41Ni00Ljk3LDBMMS4xMywyMi43Yy0wLjgtMC4zMy0xLjEzLTAuNzgtMS0xLjJMMC4xMSwyNS4xOXoiLz4mI3hhOwkJCTwvZz4mI3hhOwkJCTxnIGlkPSJzaGFwZTQ5ODctMTciIHRyYW5zZm9ybT0idHJhbnNsYXRlKDAuMjM3LC02LjMxOTUpIj4mI3hhOwkJCQk8dGl0bGUgaWQ9InRpdGxlOTMxNTciPlNoZWV0LjQ5ODc8L3RpdGxlPiYjeGE7CQkJCTxwYXRoIGlkPSJwYXRoOTMxNTkiIGlua3NjYXBlOmNvbm5lY3Rvci1jdXJ2YXR1cmU9IjAiIHN0eWxlPSJmaWxsOiMxRTFFMUU7ZmlsbC1vcGFjaXR5OjAuMjU7IiBkPSJNMC4xMSwyNS4xOSAgICAgIGMtMC4wNiwwLjQsMC4yOCwwLjgsMS4wMiwxLjExbDE1LjI0LDYuMjRjMS4zNywwLjU2LDMuNiwwLjU2LDQuOTcsMGwxNS4yNC02LjI0YzAuNzQtMC4zMSwxLjA4LTAuNzEsMS4wMi0xLjExdi0zLjU4ICAgICAgYzAuMDUsMC4zOS0wLjI5LDAuNzktMS4wMiwxLjA5bC0xNS4yNCw2LjI0Yy0xLjM3LDAuNTYtMy42LDAuNTYtNC45NywwTDEuMTMsMjIuN2MtMC44LTAuMzMtMS4xMy0wLjc4LTEtMS4yTDAuMTEsMjUuMTl6Ii8+JiN4YTsJCQk8L2c+JiN4YTsJCQk8ZyBpZD0ic2hhcGU0OTg4LTE5IiB0cmFuc2Zvcm09InRyYW5zbGF0ZSgwLjIzNywtMTIuNjM5KSI+JiN4YTsJCQkJPHRpdGxlIGlkPSJ0aXRsZTkzMTYyIj5TaGVldC40OTg4PC90aXRsZT4mI3hhOwkJCQk8cGF0aCBpZD0icGF0aDkzMTY0IiBpbmtzY2FwZTpjb25uZWN0b3ItY3VydmF0dXJlPSIwIiBzdHlsZT0iZmlsbDojMUUxRTFFO2ZpbGwtb3BhY2l0eTowLjI1OyIgZD0iTTAuMTEsMjUuMTkgICAgICBjLTAuMDYsMC40LDAuMjgsMC44LDEuMDIsMS4xMWwxNS4yNCw2LjI0YzEuMzcsMC41NiwzLjYsMC41Niw0Ljk3LDBsMTUuMjQtNi4yNGMwLjc0LTAuMzEsMS4wOC0wLjcxLDEuMDItMS4xMXYtMy41OCAgICAgIGMwLjA1LDAuMzktMC4yOSwwLjc5LTEuMDIsMS4wOWwtMTUuMjQsNi4yNGMtMS4zNywwLjU2LTMuNiwwLjU2LTQuOTcsMEwxLjEzLDIyLjdjLTAuOC0wLjMzLTEuMTMtMC43OC0xLTEuMkwwLjExLDI1LjE5eiIvPiYjeGE7CQkJPC9nPiYjeGE7CQkJPGcgaWQ9InNoYXBlNDk4OS0yMSIgdHJhbnNmb3JtPSJ0cmFuc2xhdGUoMCwtMTYuMjM5KSI+JiN4YTsJCQkJPHRpdGxlIGlkPSJ0aXRsZTkzMTY3Ij5TaGVldC40OTg5PC90aXRsZT4mI3hhOwkJCQk8cGF0aCBpZD0icGF0aDkzMTY5IiBpbmtzY2FwZTpjb25uZWN0b3ItY3VydmF0dXJlPSIwIiBzdHlsZT0iZmlsbDojQkExNDFBOyIgZD0iTTM2LjgxLDI0LjI2YzEuMzgsMC41NywxLjM4LDEuNDgsMCwyLjA0ICAgICAgbC0xNS4yMyw2LjI0Yy0xLjM3LDAuNTYtMy42LDAuNTYtNC45NywwTDEuMzcsMjYuM0MwLDI1Ljc0LDAsMjQuODIsMS4zNywyNC4yNmwxNS4yNC02LjI0YzEuMzctMC41NiwzLjYtMC41Niw0Ljk3LDAgICAgICBMMzYuODEsMjQuMjZ6Ii8+JiN4YTsJCQk8L2c+JiN4YTsJCTwvZz4mI3hhOwkJPGcgaWQ9InNoYXBlNDk5MC0yMyIgdHJhbnNmb3JtPSJ0cmFuc2xhdGUoNi4zNjE1LC0yMi4xMTIzKSI+JiN4YTsJCQk8dGl0bGUgaWQ9InRpdGxlOTMxNzMiPlNoZWV0LjQ5OTA8L3RpdGxlPiYjeGE7CQkJPHBhdGggaWQ9InBhdGg5MzE3NSIgaW5rc2NhcGU6Y29ubmVjdG9yLWN1cnZhdHVyZT0iMCIgc3R5bGU9ImZpbGw6I0ZGRkZGRjsiIGQ9Ik04LjA0LDMyLjMzYy0xLjc0LDAuNzctNC41NiwwLjc3LTYuMywwICAgICBDMCwzMS41NiwwLDMwLjMsMS43NCwyOS41M2MxLjc0LTAuNzcsNC41Ni0wLjc3LDYuMywwQzkuNzcsMzAuMyw5Ljc4LDMxLjU2LDguMDQsMzIuMzN6Ii8+JiN4YTsJCTwvZz4mI3hhOwkJPGcgaWQ9InNoYXBlNDk5MS0yNSIgdHJhbnNmb3JtPSJ0cmFuc2xhdGUoMTMuMjE4LC0xNy45ODgpIj4mI3hhOwkJCTx0aXRsZSBpZD0idGl0bGU5MzE3OCI+U2hlZXQuNDk5MTwvdGl0bGU+JiN4YTsJCQk8cGF0aCBpZD0icGF0aDkzMTgwIiBpbmtzY2FwZTpjb25uZWN0b3ItY3VydmF0dXJlPSIwIiBzdHlsZT0iZmlsbDojRkZGRkZGOyIgZD0iTTAsMzAuMmw4LjkyLTEuMDZMNi41MywzMy4xTDAsMzAuMnoiLz4mI3hhOwkJPC9nPiYjeGE7CQk8ZyBpZD0ic2hhcGU0OTkyLTI3IiB0cmFuc2Zvcm09InRyYW5zbGF0ZSgyMS44NjQsLTIxLjg5MSkiPiYjeGE7CQkJPHRpdGxlIGlkPSJ0aXRsZTkzMTgzIj5TaGVldC40OTkyPC90aXRsZT4mI3hhOwkJCTxwYXRoIGlkPSJwYXRoOTMxODUiIGlua3NjYXBlOmNvbm5lY3Rvci1jdXJ2YXR1cmU9IjAiIHN0eWxlPSJmaWxsOiMxRTFFMUU7ZmlsbC1vcGFjaXR5OjAuMjU7IiBkPSJNNS4zNCwzMy4xTDAsMzAuNzNsNS4zNC0yLjM3ICAgICBsNS4zMywyLjM3TDUuMzQsMzMuMXoiLz4mI3hhOwkJPC9nPiYjeGE7CQk8ZyBpZD0ic2hhcGU0OTkzLTI5IiB0cmFuc2Zvcm09InRyYW5zbGF0ZSgyMS44NjQsLTIxLjg5MSkiPiYjeGE7CQkJPHRpdGxlIGlkPSJ0aXRsZTkzMTg4Ij5TaGVldC40OTkzPC90aXRsZT4mI3hhOwkJCTxwYXRoIGlkPSJwYXRoOTMxOTAiIGlua3NjYXBlOmNvbm5lY3Rvci1jdXJ2YXR1cmU9IjAiIHN0eWxlPSJmaWxsOiMxRTFFMUU7ZmlsbC1vcGFjaXR5OjAuMjU7IiBkPSJNNS4zNCwzMy4xTDAsMzAuNzNsNS4zNC0yLjM3ICAgICBWMzMuMXoiLz4mI3hhOwkJPC9nPiYjeGE7CQk8ZyBpZD0ic2hhcGU0OTk0LTMxIiB0cmFuc2Zvcm09InRyYW5zbGF0ZSgxMy44OTY3LC0yNS42MTU1KSI+JiN4YTsJCQk8dGl0bGUgaWQ9InRpdGxlOTMxOTMiPlNoZWV0LjQ5OTQ8L3RpdGxlPiYjeGE7CQkJPHBhdGggaWQ9InBhdGg5MzE5NSIgaW5rc2NhcGU6Y29ubmVjdG9yLWN1cnZhdHVyZT0iMCIgc3R5bGU9ImZpbGw6I0ZGRkZGRjsiIGQ9Ik0zLjQ4LDMxLjU1TDAsMzEuMjRsMy4wOS0wLjc4bC0wLjQtMS41NyAgICAgbDIuNjIsMS4wN2wzLjI0LTAuNjZsLTEuNDgsMS40NGwyLjQxLDEuMTdsLTMuNTQtMC4xOEw0LjE5LDMzLjFMMy40OCwzMS41NXoiLz4mI3hhOwkJPC9nPiYjeGE7CTwvZz4mI3hhOzwvZz4mI3hhOzwvc3ZnPg==;" vertex="1" parent="1">
          <mxGeometry x="530" y="460" width="38" height="32" as="geometry" />
        </mxCell>
      </root>
    </mxGraphModel>
  </diagram>
</mxfile>
